SplineFontDB: 3.0
FontName: KAN-KaveriBoldItalic
FullName: KAN Kaveri Bold Italic
FamilyName: KAN Kaveri
Weight: Bold
Copyright: Copyright (c) 2009-2015, NLCI (http://www.nlci.in/fonts/)
Version: 1.0 Wed May 17 15:32:13 1995
ItalicAngle: 12
UnderlinePosition: -593.92
UnderlineWidth: 40.96
Ascent: 1638
Descent: 410
InvalidEm: 0
LayerCount: 2
Layer: 0 1 "Back" 1
Layer: 1 1 "Fore" 0
XUID: [1021 122 585067096 5556871]
FSType: 0
OS2Version: 0
OS2_WeightWidthSlopeOnly: 0
OS2_UseTypoMetrics: 1
CreationTime: 1250825690
ModificationTime: 1523584325
PfmFamily: 81
TTFWeight: 700
TTFWidth: 5
LineGap: 0
VLineGap: 0
Panose: 5 0 0 0 0 0 0 0 0 0
OS2TypoAscent: -147
OS2TypoAOffset: 1
OS2TypoDescent: -401
OS2TypoDOffset: 1
OS2TypoLinegap: 0
OS2WinAscent: -467
OS2WinAOffset: 1
OS2WinDescent: -213
OS2WinDOffset: 1
HheadAscent: -467
HheadAOffset: 1
HheadDescent: 213
HheadDOffset: 1
OS2SubXSize: 1434
OS2SubYSize: 1331
OS2SubXOff: 0
OS2SubYOff: 293
OS2SupXSize: 1434
OS2SupYSize: 1331
OS2SupXOff: 0
OS2SupYOff: 928
OS2StrikeYSize: 102
OS2StrikeYPos: 530
OS2Vendor: 'Alts'
OS2UnicodeRanges: 00000000.00000000.00000000.00000000
Lookup: 262 0 0 "blwm" { "blwm-2sub"  } []
MarkAttachClasses: 1
DEI: 91125
TtTable: prep
NPUSHB
 1
 1
SCANTYPE
PUSHW_1
 511
SCANCTRL
EndTTInstrs
ShortTable: maxp 16
  1
  0
  319
  206
  5
  177
  6
  2
  8
  64
  10
  0
  3
  417
  4
  2
EndShort
LangName: 1033 "" "" "Bold Italic" "NLCI:KAN Kaveri Bold Italic" "" "1.0 Wed May 17 15:32:13 1995"
Encoding: Original
Compacted: 1
UnicodeInterp: none
NameList: Adobe Glyph List
DisplaySize: -48
AntiAlias: 1
FitToEm: 1
WinInfo: 0 37 14
BeginPrivate: 0
EndPrivate
AnchorClass2: "Sub" "blwm-2sub" "Nukta"""  "s"""  "V""" 
BeginChars: 572 313

StartChar: .notdef
Encoding: 0 -1 0
Width: 1024
Flags: W
LayerCount: 2
Fore
SplineSet
63 0 m 1,0,-1
 63 1237 l 1,1,-1
 961 1237 l 1,2,-1
 961 0 l 1,3,-1
 63 0 l 1,0,-1
897 63 m 1,4,-1
 897 1174 l 1,5,-1
 127 1174 l 1,6,-1
 127 63 l 1,7,-1
 897 63 l 1,4,-1
EndSplineSet
EndChar

StartChar: exclam
Encoding: 4 33 4
Width: 796
VWidth: 1024
Flags: W
LayerCount: 2
Fore
SplineSet
711 1292 m 0,0,1
 658 1129 658 1129 606 974 c 0,2,3
 584 907 584 907 561 836 c 0,4,5
 537 764 537 764 514 693 c 0,6,7
 491 622 491 622 468 557 c 0,8,9
 446 491 446 491 428 436 c 0,10,-1
 314 436 l 0,11,-1
 362 1243 l 0,12,13
 362 1287 362 1287 380 1324 c 0,14,15
 397 1360 397 1360 426 1386 c 0,16,17
 455 1412 455 1412 492 1426 c 0,18,19
 529 1440 529 1440 568 1441 c 0,20,21
 645 1441 645 1441 678 1405 c 0,22,23
 711 1369 711 1369 711 1292 c 0,0,1
504 136 m 0,24,25
 504 101 504 101 490 72 c 0,26,27
 476 42 476 42 453 20 c 0,28,29
 429 -2 429 -2 398 -13 c 0,30,31
 367 -25 367 -25 332 -26 c 0,32,33
 298 -26 298 -26 269 -12 c 0,34,35
 240 2 240 2 219 26 c 0,36,37
 197 50 197 50 186 80 c 0,38,39
 174 111 174 111 174 144 c 0,40,41
 174 179 174 179 186 209 c 0,42,43
 198 239 198 239 220 263 c 0,44,45
 242 286 242 286 271 299 c 0,46,47
 300 312 300 312 334 312 c 0,48,49
 372 312 372 312 403 298 c 0,50,51
 434 284 434 284 457 260 c 0,52,53
 480 236 480 236 492 203 c 0,54,55
 504 171 504 171 504 136 c 0,24,25
EndSplineSet
EndChar

StartChar: quotedbl
Encoding: 5 34 5
Width: 788
VWidth: 1024
Flags: W
LayerCount: 2
Fore
SplineSet
883 1403 m 0,0,1
 883 1393 883 1393 871 1356 c 0,2,3
 860 1319 860 1319 842 1268 c 0,4,5
 824 1217 824 1217 802 1157 c 0,6,7
 780 1097 780 1097 760 1041 c 0,8,9
 740 986 740 986 723 941 c 0,10,11
 707 896 707 896 698 874 c 0,12,-1
 621 874 l 0,13,-1
 638 1365 l 0,14,15
 639 1394 639 1394 651 1418 c 0,16,17
 663 1442 663 1442 684 1459 c 0,18,19
 704 1476 704 1476 730 1487 c 0,20,21
 756 1497 756 1497 782 1497 c 0,22,23
 828 1497 828 1497 856 1475 c 0,24,25
 883 1452 883 1452 883 1403 c 0,0,1
472 1403 m 0,26,27
 472 1393 472 1393 461 1356 c 0,28,29
 450 1319 450 1319 432 1268 c 0,30,31
 414 1217 414 1217 392 1157 c 0,32,33
 370 1097 370 1097 349 1041 c 0,34,35
 329 986 329 986 312 941 c 0,36,37
 295 896 295 896 288 874 c 0,38,-1
 210 874 l 0,39,-1
 224 1365 l 0,40,41
 225 1394 225 1394 239 1418 c 0,42,43
 252 1442 252 1442 272 1459 c 0,44,45
 292 1476 292 1476 318 1487 c 0,46,47
 344 1497 344 1497 371 1497 c 0,48,49
 417 1497 417 1497 444 1475 c 0,50,51
 472 1452 472 1452 472 1403 c 0,26,27
EndSplineSet
EndChar

StartChar: numbersign
Encoding: 6 35 6
Width: 1554
VWidth: 1024
Flags: W
LayerCount: 2
Fore
SplineSet
1105 868 m 0,0,-1
 1015 592 l 0,1,-1
 1340 592 l 0,2,-1
 1340 460 l 0,3,-1
 969 460 l 0,4,-1
 810 -50 l 0,5,-1
 665 -14 l 0,6,-1
 820 460 l 0,7,-1
 558 460 l 0,8,-1
 394 -50 l 0,9,-1
 254 -12 l 0,10,-1
 411 460 l 0,11,-1
 130 460 l 0,12,-1
 130 592 l 0,13,-1
 453 592 l 0,14,-1
 543 868 l 0,15,-1
 232 868 l 0,16,-1
 232 1007 l 0,17,-1
 587 1007 l 0,18,-1
 749 1489 l 0,19,-1
 889 1451 l 0,20,-1
 734 1007 l 0,21,-1
 1007 1007 l 0,22,-1
 1162 1489 l 0,23,-1
 1307 1449 l 0,24,-1
 1149 1007 l 0,25,-1
 1424 1007 l 0,26,-1
 1424 868 l 0,27,-1
 1105 868 l 0,0,-1
694 868 m 0,28,-1
 602 592 l 0,29,-1
 862 592 l 0,30,-1
 958 868 l 0,31,-1
 694 868 l 0,28,-1
EndSplineSet
EndChar

StartChar: dollar
Encoding: 7 36 7
Width: 1253
VWidth: 1024
Flags: W
LayerCount: 2
Fore
SplineSet
711 1267 m 0,0,1
 668 1261 668 1261 630 1239 c 0,2,3
 597 1220 597 1220 566 1182 c 0,4,5
 535 1144 535 1144 522 1076 c 0,6,7
 516 1044 516 1044 517 1018 c 0,8,9
 518 992 518 992 525 972 c 0,10,11
 532 952 532 952 543 936 c 0,12,13
 553 921 553 921 565 909 c 0,14,15
 593 882 593 882 633 870 c 0,16,-1
 711 1267 l 0,0,1
841 354 m 0,17,18
 851 406 851 406 839 442 c 0,19,20
 827 478 827 478 804 502 c 0,21,22
 780 526 780 526 751 539 c 0,23,24
 721 553 721 553 696 560 c 0,25,-1
 612 136 l 0,26,27
 665 143 665 143 712 169 c 0,28,29
 731 179 731 179 751 196 c 0,30,31
 771 212 771 212 788 234 c 0,32,33
 805 256 805 256 819 286 c 0,34,35
 833 315 833 315 841 354 c 0,17,18
1160 990 m 0,36,-1
 1015 990 l 0,37,-1
 1019 1210 l 0,38,39
 1021 1222 1021 1222 1016 1227 c 0,40,41
 1011 1232 1011 1232 1002 1235 c 0,42,43
 987 1242 987 1242 963 1249 c 0,44,45
 938 1256 938 1256 913 1261 c 0,46,47
 888 1267 888 1267 867 1270 c 0,48,49
 845 1273 845 1273 837 1273 c 0,50,-1
 751 841 l 0,51,52
 784 832 784 832 827 818 c 0,53,54
 871 804 871 804 918 783 c 0,55,56
 964 762 964 762 1007 732 c 0,57,58
 1051 702 1051 702 1081 659 c 0,59,60
 1111 617 1111 617 1124 560 c 0,61,62
 1137 504 1137 504 1122 430 c 0,63,64
 1105 340 1105 340 1057 267 c 0,65,66
 1009 194 1009 194 939 140 c 0,67,68
 868 86 868 86 778 51 c 0,69,70
 687 16 687 16 585 2 c 0,71,-1
 543 -214 l 0,72,-1
 420 -214 l 0,73,-1
 462 0 l 0,74,75
 388 3 388 3 315 12 c 0,76,77
 252 20 252 20 180 34 c 0,78,79
 108 47 108 47 44 70 c 0,80,-1
 116 432 l 0,81,-1
 266 432 l 0,82,-1
 260 206 l 0,83,-1
 260 191 l 0,84,85
 260 187 260 187 262 185 c 0,86,87
 264 183 264 183 266 182 c 0,88,89
 269 180 269 180 276 176 c 0,90,91
 306 159 306 159 343 150 c 0,92,93
 379 141 379 141 412 136 c 0,94,95
 449 131 449 131 486 130 c 0,96,-1
 577 592 l 0,97,98
 540 603 540 603 497 618 c 0,99,100
 454 633 454 633 412 655 c 0,101,102
 370 677 370 677 333 707 c 0,103,104
 296 737 296 737 271 779 c 0,105,106
 246 820 246 820 237 875 c 0,107,108
 228 930 228 930 242 1000 c 0,109,110
 255 1072 255 1072 284 1127 c 0,111,112
 313 1182 313 1182 351 1225 c 0,113,114
 388 1267 388 1267 432 1296 c 0,115,116
 476 1325 476 1325 518 1345 c 0,117,118
 619 1391 619 1391 738 1401 c 0,119,-1
 770 1556 l 0,120,-1
 893 1556 l 0,121,-1
 862 1401 l 0,122,123
 927 1401 927 1401 992 1391 c 0,124,125
 1057 1381 1057 1381 1110 1370 c 0,126,127
 1171 1357 1171 1357 1229 1340 c 0,128,-1
 1160 990 l 0,36,-1
EndSplineSet
EndChar

StartChar: percent
Encoding: 8 37 8
Width: 1886
VWidth: 1024
Flags: W
LayerCount: 2
Fore
SplineSet
1805 548 m 0,0,1
 1805 478 1805 478 1793 408 c 0,2,3
 1781 338 1781 338 1756 273 c 0,4,5
 1731 208 1731 208 1692 152 c 0,6,7
 1654 96 1654 96 1603 55 c 0,8,9
 1552 14 1552 14 1487 -10 c 0,10,11
 1422 -34 1422 -34 1345 -34 c 0,12,13
 1201 -34 1201 -34 1129 42 c 0,14,15
 1058 118 1058 118 1059 260 c 0,16,17
 1059 329 1059 329 1071 399 c 0,18,19
 1083 469 1083 469 1108 534 c 0,20,21
 1133 599 1133 599 1170 655 c 0,22,23
 1208 711 1208 711 1260 753 c 0,24,25
 1311 794 1311 794 1375 819 c 0,26,27
 1440 843 1440 843 1519 843 c 0,28,29
 1662 843 1662 843 1734 766 c 0,30,31
 1805 690 1805 690 1805 548 c 0,0,1
474 0 m 0,32,-1
 323 0 l 0,33,-1
 1473 1407 l 0,34,-1
 1625 1407 l 0,35,-1
 474 0 l 0,32,-1
889 1145 m 0,36,37
 889 1075 889 1075 877 1006 c 0,38,39
 865 936 865 936 839 871 c 0,40,41
 814 806 814 806 776 750 c 0,42,43
 738 694 738 694 688 652 c 0,44,45
 637 611 637 611 572 586 c 0,46,47
 507 562 507 562 430 562 c 0,48,49
 285 562 285 562 212 640 c 0,50,51
 140 718 140 718 140 860 c 0,52,53
 140 963 140 963 168 1068 c 0,54,55
 196 1172 196 1172 254 1254 c 0,56,57
 311 1337 311 1337 398 1389 c 0,58,59
 485 1441 485 1441 602 1441 c 0,60,61
 745 1441 745 1441 817 1364 c 0,62,63
 889 1288 889 1288 889 1145 c 0,36,37
1585 598 m 0,64,65
 1585 620 1585 620 1582 645 c 0,66,67
 1579 671 1579 671 1570 693 c 0,68,69
 1561 715 1561 715 1543 730 c 0,70,71
 1526 745 1526 745 1497 744 c 0,72,73
 1454 744 1454 744 1421 715 c 0,74,75
 1388 685 1388 685 1362 638 c 0,76,77
 1336 591 1336 591 1318 534 c 0,78,79
 1300 476 1300 476 1289 418 c 0,80,81
 1277 361 1277 361 1272 310 c 0,82,83
 1267 260 1267 260 1267 228 c 0,84,85
 1267 203 1267 203 1270 175 c 0,86,87
 1273 146 1273 146 1283 122 c 0,88,89
 1293 97 1293 97 1312 81 c 0,90,91
 1331 65 1331 65 1363 65 c 0,92,93
 1404 65 1404 65 1436 96 c 0,94,95
 1468 127 1468 127 1493 176 c 0,96,97
 1518 225 1518 225 1535 286 c 0,98,99
 1553 347 1553 347 1564 407 c 0,100,101
 1575 466 1575 466 1580 517 c 0,102,103
 1585 568 1585 568 1585 598 c 0,64,65
671 1193 m 0,104,105
 671 1216 671 1216 668 1242 c 0,106,107
 665 1269 665 1269 655 1291 c 0,108,109
 646 1313 646 1313 629 1328 c 0,110,111
 612 1343 612 1343 583 1342 c 0,112,113
 540 1342 540 1342 506 1313 c 0,114,115
 472 1284 472 1284 446 1238 c 0,116,117
 420 1191 420 1191 402 1133 c 0,118,119
 384 1075 384 1075 372 1018 c 0,120,121
 360 961 360 961 355 911 c 0,122,123
 350 861 350 861 350 830 c 0,124,125
 350 804 350 804 353 775 c 0,126,127
 356 745 356 745 367 720 c 0,128,129
 378 694 378 694 397 677 c 0,130,131
 416 660 416 660 449 660 c 0,132,133
 489 660 489 660 521 692 c 0,134,135
 553 723 553 723 578 773 c 0,136,137
 603 823 603 823 621 883 c 0,138,139
 638 944 638 944 649 1003 c 0,140,141
 660 1062 660 1062 666 1113 c 0,142,143
 671 1164 671 1164 671 1193 c 0,104,105
EndSplineSet
EndChar

StartChar: ampersand
Encoding: 9 38 9
Width: 1562
VWidth: 1024
Flags: W
LayerCount: 2
Fore
SplineSet
1340 640 m 0,0,1
 1295 550 1295 550 1229 455 c 0,2,3
 1163 360 1163 360 1084 276 c 0,4,5
 1122 227 1122 227 1157 196 c 0,6,7
 1192 164 1192 164 1231 145 c 0,8,9
 1270 127 1270 127 1317 120 c 0,10,11
 1364 113 1364 113 1424 114 c 0,12,-1
 1424 4 l 0,13,14
 1348 1 1348 1 1307 -2 c 0,15,16
 1265 -5 1265 -5 1235 -6 c 0,17,18
 1155 -12 1155 -12 1076 0 c 0,19,20
 1024 11 1024 11 980 37 c 0,21,22
 936 63 936 63 891 112 c 0,23,24
 850 84 850 84 803 59 c 0,25,26
 756 34 756 34 701 16 c 0,27,28
 646 -2 646 -2 582 -13 c 0,29,30
 518 -24 518 -24 442 -24 c 0,31,32
 344 -24 344 -24 267 3 c 0,33,34
 190 29 190 29 136 75 c 0,35,36
 82 122 82 122 54 187 c 0,37,38
 26 252 26 252 26 330 c 0,39,40
 26 407 26 407 54 471 c 0,41,42
 82 535 82 535 130 589 c 0,43,44
 178 643 178 643 244 688 c 0,45,46
 310 733 310 733 384 772 c 0,47,48
 336 837 336 837 304 901 c 0,49,50
 272 965 272 965 272 1038 c 0,51,52
 272 1119 272 1119 307 1191 c 0,53,54
 342 1263 342 1263 408 1317 c 0,55,56
 474 1371 474 1371 568 1403 c 0,57,58
 662 1435 662 1435 782 1435 c 0,59,60
 871 1435 871 1435 940 1411 c 0,61,62
 1008 1387 1008 1387 1053 1347 c 0,63,64
 1099 1307 1099 1307 1122 1255 c 0,65,66
 1145 1204 1145 1204 1145 1151 c 0,67,68
 1145 1077 1145 1077 1114 1017 c 0,69,70
 1083 957 1083 957 1028 908 c 0,71,72
 972 859 972 859 894 820 c 0,73,74
 817 781 817 781 724 749 c 0,75,-1
 975 424 l 0,76,77
 1013 473 1013 473 1042 524 c 0,78,79
 1072 575 1072 575 1093 616 c 0,80,81
 1095 619 1095 619 1093 628 c 0,82,83
 1091 636 1091 636 1089 636 c 0,84,-1
 965 656 l 0,85,-1
 965 770 l 0,86,-1
 1495 770 l 0,87,-1
 1495 656 l 0,88,-1
 1340 640 l 0,0,1
856 1135 m 0,89,90
 856 1169 856 1169 851 1200 c 0,91,92
 846 1232 846 1232 834 1256 c 0,93,94
 821 1281 821 1281 799 1296 c 0,95,96
 776 1311 776 1311 740 1311 c 0,97,98
 722 1311 722 1311 690 1299 c 0,99,100
 658 1288 658 1288 626 1263 c 0,101,102
 595 1237 595 1237 571 1195 c 0,103,104
 547 1153 547 1153 548 1093 c 0,105,106
 548 1060 548 1060 556 1028 c 0,107,108
 564 996 564 996 576 965 c 0,109,110
 589 934 589 934 606 905 c 0,111,112
 623 876 623 876 642 851 c 0,113,114
 690 874 690 874 730 902 c 0,115,116
 769 930 769 930 797 964 c 0,117,118
 825 998 825 998 841 1040 c 0,119,120
 856 1083 856 1083 856 1135 c 0,89,90
474 648 m 0,121,122
 407 596 407 596 371 532 c 0,123,124
 334 469 334 469 334 390 c 0,125,126
 334 325 334 325 356 277 c 0,127,128
 378 228 378 228 411 196 c 0,129,130
 444 163 444 163 481 146 c 0,131,132
 518 130 518 130 550 130 c 0,133,134
 583 130 583 130 610 136 c 0,135,136
 638 142 638 142 665 155 c 0,137,138
 692 167 692 167 722 186 c 0,139,140
 752 205 752 205 788 232 c 0,141,-1
 474 648 l 0,121,122
EndSplineSet
EndChar

StartChar: quotesingle
Encoding: 10 39 10
Width: 366
VWidth: 1024
Flags: W
LayerCount: 2
Fore
SplineSet
472 1403 m 0,0,1
 472 1387 472 1387 461 1347 c 0,2,3
 450 1308 450 1308 432 1256 c 0,4,5
 414 1204 414 1204 392 1146 c 0,6,7
 370 1088 370 1088 349 1036 c 0,8,9
 329 983 329 983 312 940 c 0,10,11
 295 896 295 896 288 874 c 0,12,-1
 210 874 l 0,13,-1
 224 1365 l 0,14,15
 225 1394 225 1394 239 1418 c 0,16,17
 252 1442 252 1442 272 1459 c 0,18,19
 292 1476 292 1476 318 1487 c 0,20,21
 344 1497 344 1497 371 1497 c 0,22,23
 417 1497 417 1497 444 1475 c 0,24,25
 472 1452 472 1452 472 1403 c 0,0,1
EndSplineSet
EndChar

StartChar: parenleft
Encoding: 11 40 11
Width: 888
VWidth: 1024
Flags: W
LayerCount: 2
Fore
SplineSet
967 1391 m 0,0,1
 887 1381 887 1381 821 1339 c 0,2,3
 755 1298 755 1298 700 1234 c 0,4,5
 645 1171 645 1171 602 1089 c 0,6,7
 558 1007 558 1007 525 915 c 0,8,9
 492 823 492 823 469 727 c 0,10,11
 445 631 445 631 431 537 c 0,12,13
 416 443 416 443 409 358 c 0,14,15
 402 272 402 272 402 204 c 0,16,17
 402 135 402 135 413 70 c 0,18,19
 423 4 423 4 451 -49 c 0,20,21
 479 -102 479 -102 529 -138 c 0,22,23
 579 -174 579 -174 656 -184 c 0,24,-1
 633 -298 l 0,25,26
 501 -295 501 -295 409 -248 c 0,27,28
 317 -201 317 -201 259 -123 c 0,29,30
 201 -45 201 -45 175 60 c 0,31,32
 149 165 149 165 148 286 c 0,33,34
 148 411 148 411 170 548 c 0,35,36
 192 685 192 685 236 819 c 0,37,38
 280 953 280 953 348 1075 c 0,39,40
 416 1197 416 1197 509 1291 c 0,41,42
 602 1385 602 1385 722 1442 c 0,43,44
 842 1499 842 1499 990 1503 c 0,45,-1
 967 1391 l 0,0,1
EndSplineSet
EndChar

StartChar: parenright
Encoding: 12 41 12
Width: 888
VWidth: 1024
Flags: W
LayerCount: 2
Fore
SplineSet
740 921 m 0,0,1
 740 797 740 797 719 659 c 0,2,3
 698 522 698 522 654 388 c 0,4,5
 609 254 609 254 542 132 c 0,6,7
 474 10 474 10 380 -85 c 0,8,9
 286 -179 286 -179 167 -237 c 0,10,11
 47 -294 47 -294 -100 -298 c 0,12,-1
 -80 -184 l 0,13,14
 0 -174 0 -174 67 -133 c 0,15,16
 134 -92 134 -92 187 -27 c 0,17,18
 241 37 241 37 285 119 c 0,19,20
 329 201 329 201 362 293 c 0,21,22
 395 385 395 385 419 482 c 0,23,24
 443 579 443 579 457 672 c 0,25,26
 472 765 472 765 479 850 c 0,27,28
 486 936 486 936 486 1005 c 0,29,30
 486 1074 486 1074 476 1138 c 0,31,32
 466 1203 466 1203 438 1256 c 0,33,34
 410 1309 410 1309 360 1345 c 0,35,36
 310 1381 310 1381 232 1391 c 0,37,-1
 256 1503 l 0,38,39
 387 1499 387 1499 479 1453 c 0,40,41
 571 1407 571 1407 629 1329 c 0,42,43
 687 1251 687 1251 714 1146 c 0,44,45
 740 1042 740 1042 740 921 c 0,0,1
EndSplineSet
EndChar

StartChar: asterisk
Encoding: 13 42 13
Width: 1048
VWidth: 1024
Flags: W
LayerCount: 2
Fore
SplineSet
977 1061 m 0,0,-1
 707 1063 l 0,1,-1
 694 1095 l 0,2,-1
 916 1258 l 0,3,-1
 1069 1197 l 0,4,-1
 977 1061 l 0,0,-1
673 1118 m 0,5,-1
 640 1118 l 0,6,-1
 554 1380 l 0,7,-1
 656 1505 l 0,8,-1
 761 1380 l 0,9,-1
 673 1118 l 0,5,-1
914 709 m 0,10,-1
 753 751 l 0,11,-1
 669 1011 l 0,12,-1
 696 1036 l 0,13,-1
 919 872 l 0,14,-1
 914 709 l 0,10,-1
608 1063 m 0,15,-1
 336 1061 l 0,16,-1
 246 1197 l 0,17,-1
 394 1258 l 0,18,-1
 618 1093 l 0,19,-1
 608 1063 l 0,15,-1
562 751 m 0,20,-1
 400 709 l 0,21,-1
 394 872 l 0,22,-1
 618 1036 l 0,23,-1
 646 1011 l 0,24,-1
 562 751 l 0,20,-1
EndSplineSet
EndChar

StartChar: plus
Encoding: 14 43 14
Width: 2097
VWidth: 1024
Flags: W
LayerCount: 2
Fore
SplineSet
1113 564 m 0,0,-1
 1113 0 l 0,1,-1
 984 0 l 0,2,-1
 984 564 l 0,3,-1
 420 564 l 0,4,-1
 420 694 l 0,5,-1
 984 694 l 0,6,-1
 984 1258 l 0,7,-1
 1113 1258 l 0,8,-1
 1113 694 l 0,9,-1
 1677 694 l 0,10,-1
 1677 564 l 0,11,-1
 1113 564 l 0,0,-1
EndSplineSet
EndChar

StartChar: comma
Encoding: 15 44 15
Width: 671
VWidth: 1024
Flags: W
LayerCount: 2
Fore
SplineSet
420 176 m 0,0,1
 420 115 420 115 397 52 c 0,2,3
 374 -10 374 -10 334 -70 c 0,4,5
 294 -129 294 -129 241 -182 c 0,6,7
 188 -235 188 -235 129 -274 c 0,8,9
 70 -314 70 -314 7 -339 c 0,10,11
 -56 -364 -56 -364 -116 -369 c 0,12,-1
 -96 -266 l 0,13,14
 -38 -258 -38 -258 14 -236 c 0,15,16
 66 -213 66 -213 106 -178 c 0,17,18
 147 -143 147 -143 175 -94 c 0,19,20
 203 -46 203 -46 212 14 c 0,21,-1
 84 14 l 0,22,23
 64 33 64 33 53 59 c 0,24,25
 42 85 42 85 42 114 c 0,26,27
 42 156 42 156 60 194 c 0,28,29
 78 232 78 232 108 262 c 0,30,31
 138 291 138 291 176 308 c 0,32,33
 215 325 215 325 258 325 c 0,34,35
 329 325 329 325 374 288 c 0,36,37
 420 252 420 252 420 176 c 0,0,1
EndSplineSet
EndChar

StartChar: hyphen
Encoding: 16 45 16
Width: 729
VWidth: 1024
Flags: W
LayerCount: 2
Fore
SplineSet
612 394 m 0,0,-1
 62 394 l 0,1,-1
 106 616 l 0,2,-1
 656 616 l 0,3,-1
 612 394 l 0,0,-1
EndSplineSet
EndChar

StartChar: period
Encoding: 17 46 17
Width: 665
VWidth: 1024
Flags: W
LayerCount: 2
Fore
SplineSet
400 148 m 0,0,1
 400 112 400 112 387 81 c 0,2,3
 373 49 373 49 349 26 c 0,4,5
 325 2 325 2 294 -12 c 0,6,7
 262 -26 262 -26 226 -26 c 0,8,9
 190 -26 190 -26 158 -12 c 0,10,11
 126 2 126 2 102 26 c 0,12,13
 78 50 78 50 64 81 c 0,14,15
 50 113 50 113 50 148 c 0,16,17
 50 185 50 185 64 217 c 0,18,19
 78 249 78 249 102 273 c 0,20,21
 126 297 126 297 158 311 c 0,22,23
 190 325 190 325 226 325 c 0,24,25
 262 325 262 325 294 311 c 0,26,27
 326 297 326 297 349 273 c 0,28,29
 373 249 373 249 387 217 c 0,30,31
 400 185 400 185 400 148 c 0,0,1
EndSplineSet
EndChar

StartChar: slash
Encoding: 18 47 18
Width: 1050
VWidth: 1024
Flags: W
LayerCount: 2
Fore
SplineSet
164 -195 m 0,0,-1
 0 -195 l 0,1,-1
 885 1407 l 0,2,-1
 1051 1407 l 0,3,-1
 164 -195 l 0,0,-1
EndSplineSet
EndChar

StartChar: zero
Encoding: 19 48 19
Width: 1622
VWidth: 1024
Flags: W
LayerCount: 2
Fore
SplineSet
1438 322 m 0,0,-1
 1597 1081 l 0,1,2
 1605 1118 1605 1118 1584 1142 c 0,3,4
 1562 1166 1562 1166 1524 1165 c 0,5,-1
 1307 1165 l 0,6,7
 1276 1165 1276 1165 1257 1163 c 0,8,9
 1239 1161 1239 1161 1220 1145 c 0,10,11
 1201 1129 1201 1129 1189 1114 c 0,12,13
 1178 1100 1178 1100 1176 1083 c 0,14,-1
 1014 315 l 0,15,16
 1006 282 1006 282 1035 260 c 0,17,18
 1065 237 1065 237 1110 238 c 0,19,-1
 1327 238 l 0,20,21
 1364 238 1364 238 1398 265 c 0,22,23
 1432 293 1432 293 1438 322 c 0,0,-1
1700 254 m 0,24,25
 1690 188 1690 188 1632 129 c 0,26,27
 1601 102 1601 102 1572 79 c 0,28,29
 1542 55 1542 55 1509 41 c 0,30,31
 1421 4 1421 4 1350 4 c 0,32,-1
 973 6 l 0,33,34
 844 6 844 6 782 94 c 0,35,36
 729 151 729 151 729 238 c 0,37,38
 729 277 729 277 733 295 c 0,39,-1
 913 1151 l 0,40,41
 938 1253 938 1253 1049 1327 c 0,42,43
 1160 1395 1160 1395 1296 1395 c 0,44,-1
 1628 1395 l 0,45,46
 1767 1395 1767 1395 1833 1309 c 0,47,48
 1886 1256 1886 1256 1886 1167 c 0,49,50
 1886 1130 1886 1130 1878 1098 c 0,51,-1
 1700 254 l 0,24,25
EndSplineSet
EndChar

StartChar: one
Encoding: 20 49 20
Width: 1622
VWidth: 1024
Flags: W
LayerCount: 2
Fore
SplineSet
1645 0 m 0,0,-1
 838 0 l 0,1,-1
 885 231 l 0,2,-1
 1151 231 l 0,3,-1
 1333 1096 l 0,4,5
 1341 1129 1341 1129 1333 1151 c 0,6,7
 1329 1155 1329 1155 1315 1159 c 0,8,-1
 1087 1159 l 0,9,-1
 1135 1391 l 0,10,-1
 1407 1391 l 0,11,12
 1524 1391 1524 1391 1577 1319 c 0,13,14
 1628 1262 1628 1262 1628 1194 c 0,15,16
 1628 1163 1628 1163 1624 1147 c 0,17,-1
 1430 227 l 0,18,-1
 1692 227 l 0,19,-1
 1645 0 l 0,0,-1
EndSplineSet
EndChar

StartChar: two
Encoding: 21 50 21
Width: 1622
VWidth: 1024
Flags: W
LayerCount: 2
Fore
SplineSet
1645 0 m 0,0,-1
 637 0 l 0,1,-1
 745 512 l 0,2,3
 759 573 759 573 791 617 c 0,4,5
 822 661 822 661 883 694 c 0,6,7
 1002 770 1002 770 1135 770 c 0,8,-1
 1460 770 l 0,9,10
 1478 770 1478 770 1509 801 c 0,11,12
 1534 838 1534 838 1542 874 c 0,13,-1
 1593 1114 l 0,14,15
 1595 1130 1595 1130 1591 1147 c 0,16,17
 1583 1155 1583 1155 1559 1155 c 0,18,-1
 1235 1155 l 0,19,20
 1190 1155 1190 1155 1161 1141 c 0,21,22
 1147 1137 1147 1137 1143 1114 c 0,23,-1
 1100 913 l 0,24,-1
 825 913 l 0,25,-1
 883 1180 l 0,26,27
 906 1276 906 1276 996 1331 c 0,28,29
 1087 1386 1087 1386 1206 1386 c 0,30,-1
 1647 1386 l 0,31,32
 1766 1386 1766 1386 1833 1319 c 0,33,34
 1880 1268 1880 1268 1880 1194 c 0,35,36
 1880 1161 1880 1161 1876 1145 c 0,37,-1
 1817 858 l 0,38,39
 1801 772 1801 772 1742 695 c 0,40,41
 1684 618 1684 618 1605 578 c 0,42,43
 1526 537 1526 537 1450 537 c 0,44,-1
 1102 537 l 0,45,46
 1051 537 1051 537 1032 528 c 0,47,-1
 1018 524 l 0,48,-1
 956 229 l 0,49,-1
 1690 229 l 0,50,-1
 1645 0 l 0,0,-1
EndSplineSet
EndChar

StartChar: three
Encoding: 22 51 22
Width: 1622
VWidth: 1024
Flags: W
LayerCount: 2
Fore
SplineSet
1696 238 m 0,0,1
 1678 142 1678 142 1580 72 c 0,2,3
 1483 2 1483 2 1378 2 c 0,4,-1
 940 4 l 0,5,6
 823 4 823 4 741 61 c 0,7,8
 682 108 682 108 682 170 c 0,9,10
 682 180 682 180 686 209 c 0,11,-1
 729 418 l 0,12,-1
 1004 418 l 0,13,-1
 979 293 l 0,14,15
 975 268 975 268 993 250 c 0,16,17
 1011 232 1011 232 1049 231 c 0,18,-1
 1325 231 l 0,19,20
 1364 231 1364 231 1395 252 c 0,21,22
 1426 272 1426 272 1434 309 c 0,23,-1
 1481 535 l 0,24,25
 1485 564 1485 564 1468 596 c 0,26,27
 1445 619 1445 619 1403 618 c 0,28,-1
 1294 618 l 0,29,-1
 1346 850 l 0,30,-1
 1436 850 l 0,31,32
 1465 850 1465 850 1477 854 c 0,33,34
 1489 858 1489 858 1518 872 c 0,35,36
 1551 880 1551 880 1552 897 c 0,37,-1
 1591 1087 l 0,38,39
 1595 1116 1595 1116 1581 1141 c 0,40,41
 1567 1155 1567 1155 1542 1155 c 0,42,-1
 1237 1155 l 0,43,44
 1194 1155 1194 1155 1165 1141 c 0,45,46
 1151 1131 1151 1131 1141 1100 c 0,47,-1
 1118 995 l 0,48,-1
 844 995 l 0,49,-1
 889 1210 l 0,50,51
 905 1292 905 1292 996 1340 c 0,52,53
 1087 1388 1087 1388 1206 1389 c 0,54,-1
 1665 1389 l 0,55,56
 1776 1389 1776 1389 1835 1317 c 0,57,58
 1858 1294 1858 1294 1870 1264 c 0,59,60
 1882 1233 1882 1233 1882 1196 c 0,61,62
 1882 1163 1882 1163 1878 1147 c 0,63,-1
 1835 942 l 0,64,65
 1831 911 1831 911 1811 881 c 0,66,67
 1792 850 1792 850 1761 819 c 0,68,69
 1743 803 1743 803 1713 784 c 0,70,71
 1683 766 1683 766 1653 750 c 0,72,73
 1710 721 1710 721 1729 678 c 0,74,75
 1758 633 1758 633 1757 582 c 0,76,77
 1757 572 1757 572 1753 532 c 0,78,-1
 1696 238 l 0,0,1
EndSplineSet
EndChar

StartChar: four
Encoding: 23 52 23
Width: 1622
VWidth: 1024
Flags: W
LayerCount: 2
Fore
SplineSet
1714 326 m 0,0,-1
 1511 326 l 0,1,-1
 1444 0 l 0,2,-1
 1167 0 l 0,3,-1
 1235 326 l 0,4,-1
 860 326 l 0,5,6
 766 326 766 326 705 379 c 0,7,8
 658 418 658 418 657 475 c 0,9,10
 657 498 657 498 659 508 c 0,11,12
 682 592 682 592 748 700 c 0,13,-1
 1145 1391 l 0,14,-1
 1425 1391 l 0,15,-1
 999 678 l 0,16,17
 952 592 952 592 948 561 c 0,18,-1
 944 553 l 0,19,-1
 1290 553 l 0,20,-1
 1470 1393 l 0,21,-1
 1747 1393 l 0,22,-1
 1567 553 l 0,23,-1
 1769 553 l 0,24,-1
 1714 326 l 0,0,-1
EndSplineSet
EndChar

StartChar: five
Encoding: 24 53 24
Width: 1622
VWidth: 1024
Flags: W
LayerCount: 2
Fore
SplineSet
1696 238 m 0,0,1
 1673 138 1673 138 1587 72 c 0,2,3
 1501 0 1501 0 1405 0 c 0,4,-1
 801 0 l 0,5,6
 707 0 707 0 655 59 c 0,7,8
 616 102 616 102 616 158 c 0,9,10
 616 183 616 183 618 197 c 0,11,-1
 670 442 l 0,12,-1
 946 442 l 0,13,-1
 909 283 l 0,14,15
 909 252 909 252 918 248 c 0,16,17
 949 232 949 232 965 231 c 0,18,-1
 1374 231 l 0,19,20
 1388 231 1388 231 1405 251 c 0,21,22
 1421 270 1421 270 1430 309 c 0,23,-1
 1495 614 l 0,24,25
 1499 645 1499 645 1419 645 c 0,26,-1
 707 645 l 0,27,-1
 866 1393 l 0,28,-1
 1907 1393 l 0,29,-1
 1860 1161 l 0,30,-1
 1098 1161 l 0,31,-1
 1038 881 l 0,32,-1
 1544 881 l 0,33,34
 1667 881 1667 881 1729 809 c 0,35,36
 1780 758 1780 758 1780 682 c 0,37,38
 1780 668 1780 668 1776 635 c 0,39,-1
 1696 238 l 0,0,1
EndSplineSet
EndChar

StartChar: six
Encoding: 25 54 25
Width: 1622
VWidth: 1024
Flags: W
LayerCount: 2
Fore
SplineSet
1436 319 m 0,0,-1
 1493 588 l 0,1,2
 1501 613 1501 613 1476 634 c 0,3,4
 1450 656 1450 656 1399 655 c 0,5,-1
 1022 655 l 0,6,-1
 956 342 l 0,7,8
 946 299 946 299 977 274 c 0,9,10
 1008 241 1008 241 1047 242 c 0,11,-1
 1309 242 l 0,12,13
 1354 242 1354 242 1386 266 c 0,14,15
 1426 288 1426 288 1436 319 c 0,0,-1
1702 266 m 0,16,17
 1673 151 1673 151 1579 82 c 0,18,19
 1528 49 1528 49 1470 27 c 0,20,21
 1413 4 1413 4 1360 4 c 0,22,-1
 920 6 l 0,23,24
 797 6 797 6 724 68 c 0,25,26
 651 129 651 129 651 201 c 0,27,28
 651 211 651 211 655 240 c 0,29,-1
 846 1153 l 0,30,31
 877 1257 877 1257 979 1329 c 0,32,33
 1088 1397 1088 1397 1212 1397 c 0,34,-1
 1882 1397 l 0,35,-1
 1835 1165 l 0,36,-1
 1214 1165 l 0,37,38
 1169 1165 1169 1165 1146 1147 c 0,39,40
 1122 1129 1122 1129 1114 1098 c 0,41,-1
 1071 887 l 0,42,-1
 1518 887 l 0,43,44
 1655 887 1655 887 1726 813 c 0,45,46
 1783 756 1783 756 1784 676 c 0,47,48
 1784 643 1784 643 1780 625 c 0,49,-1
 1702 266 l 0,16,17
EndSplineSet
EndChar

StartChar: seven
Encoding: 26 55 26
Width: 1622
VWidth: 1024
Flags: W
LayerCount: 2
Fore
SplineSet
1882 1133 m 0,0,-1
 1122 0 l 0,1,-1
 842 0 l 0,2,-1
 1610 1143 l 0,3,4
 1608 1157 1608 1157 1604 1161 c 0,5,6
 1600 1165 1600 1165 1577 1165 c 0,7,-1
 1118 1165 l 0,8,-1
 1090 1032 l 0,9,-1
 813 1032 l 0,10,-1
 889 1399 l 0,11,-1
 1673 1399 l 0,12,13
 1788 1399 1788 1399 1845 1323 c 0,14,15
 1888 1272 1888 1272 1888 1196 c 0,16,17
 1888 1178 1888 1178 1882 1133 c 0,0,-1
EndSplineSet
EndChar

StartChar: eight
Encoding: 27 56 27
Width: 1622
VWidth: 1024
Flags: W
LayerCount: 2
Fore
SplineSet
1434 311 m 0,0,-1
 1438 334 l 0,1,2
 1448 402 1448 402 1397 434 c 0,3,-1
 1266 551 l 0,4,-1
 1051 434 l 0,5,6
 994 397 994 397 991 373 c 0,7,-1
 975 293 l 0,8,9
 973 268 973 268 992 250 c 0,10,11
 1011 232 1011 232 1053 231 c 0,12,-1
 1319 231 l 0,13,14
 1358 231 1358 231 1389 252 c 0,15,16
 1420 272 1420 272 1434 311 c 0,0,-1
1602 1108 m 0,17,18
 1610 1133 1610 1133 1599 1151 c 0,19,20
 1585 1161 1585 1161 1569 1161 c 0,21,-1
 1225 1161 l 0,22,-1
 1167 1157 l 0,23,-1
 1157 1149 l 0,24,25
 1153 1110 1153 1110 1153 1102 c 0,26,27
 1153 1079 1153 1079 1161 1071 c 0,28,-1
 1337 905 l 0,29,-1
 1556 1044 l 0,30,31
 1594 1061 1594 1061 1602 1108 c 0,17,18
1688 201 m 0,32,33
 1672 125 1672 125 1577 59 c 0,34,35
 1481 2 1481 2 1378 2 c 0,36,-1
 940 4 l 0,37,38
 823 4 823 4 741 61 c 0,39,40
 682 108 682 108 682 170 c 0,41,42
 682 180 682 180 686 209 c 0,43,-1
 737 453 l 0,44,45
 745 500 745 500 850 575 c 0,46,-1
 1118 737 l 0,47,-1
 950 891 l 0,48,49
 903 948 903 948 882 989 c 0,50,51
 860 1030 860 1030 864 1061 c 0,52,-1
 895 1206 l 0,53,54
 911 1288 911 1288 1002 1336 c 0,55,56
 1093 1384 1093 1384 1212 1384 c 0,57,-1
 1671 1384 l 0,58,59
 1786 1384 1786 1384 1845 1337 c 0,60,61
 1902 1298 1902 1298 1903 1237 c 0,62,63
 1903 1219 1903 1219 1901 1210 c 0,64,-1
 1858 1008 l 0,65,66
 1844 934 1844 934 1733 872 c 0,67,-1
 1460 713 l 0,68,-1
 1604 623 l 0,69,70
 1749 494 1749 494 1733 418 c 0,71,-1
 1688 201 l 0,32,33
EndSplineSet
EndChar

StartChar: nine
Encoding: 28 57 28
Width: 1622
VWidth: 1024
Flags: W
LayerCount: 2
Fore
SplineSet
1518 748 m 0,0,-1
 1591 1096 l 0,1,2
 1599 1125 1599 1125 1576 1144 c 0,3,4
 1552 1163 1552 1163 1501 1163 c 0,5,-1
 1219 1163 l 0,6,7
 1168 1163 1168 1163 1142 1147 c 0,8,9
 1116 1131 1116 1131 1108 1098 c 0,10,-1
 1051 827 l 0,11,12
 1047 796 1047 796 1075 782 c 0,13,14
 1100 751 1100 751 1147 752 c 0,15,-1
 1518 748 l 0,0,-1
1706 283 m 0,16,17
 1681 168 1681 168 1563 84 c 0,18,19
 1444 0 1444 0 1305 0 c 0,20,-1
 666 0 l 0,21,-1
 713 231 l 0,22,-1
 1260 231 l 0,23,24
 1328 231 1328 231 1378 259 c 0,25,26
 1429 287 1429 287 1434 317 c 0,27,-1
 1473 512 l 0,28,-1
 1024 512 l 0,29,30
 899 512 899 512 823 584 c 0,31,32
 757 641 757 641 758 715 c 0,33,34
 758 723 758 723 762 752 c 0,35,-1
 850 1171 l 0,36,37
 864 1230 864 1230 922 1288 c 0,38,39
 975 1335 975 1335 1056 1362 c 0,40,41
 1137 1389 1137 1389 1231 1389 c 0,42,-1
 1620 1389 l 0,43,44
 1702 1389 1702 1389 1769 1356 c 0,45,46
 1837 1317 1837 1317 1860 1264 c 0,47,48
 1883 1225 1883 1225 1882 1178 c 0,49,50
 1882 1168 1882 1168 1878 1135 c 0,51,-1
 1706 283 l 0,16,17
EndSplineSet
EndChar

StartChar: colon
Encoding: 29 58 29
Width: 665
VWidth: 1024
Flags: W
LayerCount: 2
Fore
SplineSet
543 868 m 0,0,1
 543 832 543 832 529 801 c 0,2,3
 516 769 516 769 493 745 c 0,4,5
 469 721 469 721 437 708 c 0,6,7
 405 694 405 694 369 694 c 0,8,9
 333 694 333 694 301 708 c 0,10,11
 269 722 269 722 244 745 c 0,12,13
 220 769 220 769 206 801 c 0,14,15
 192 833 192 833 193 868 c 0,16,17
 193 904 193 904 206 936 c 0,18,19
 220 968 220 968 244 993 c 0,20,21
 268 1017 268 1017 301 1031 c 0,22,23
 333 1045 333 1045 369 1044 c 0,24,25
 406 1044 406 1044 437 1031 c 0,26,27
 469 1017 469 1017 493 993 c 0,28,29
 517 969 517 969 529 936 c 0,30,31
 543 904 543 904 543 868 c 0,0,1
400 148 m 0,32,33
 400 112 400 112 387 81 c 0,34,35
 373 49 373 49 349 26 c 0,36,37
 325 2 325 2 294 -12 c 0,38,39
 262 -26 262 -26 226 -26 c 0,40,41
 190 -26 190 -26 158 -12 c 0,42,43
 126 2 126 2 102 26 c 0,44,45
 78 50 78 50 64 81 c 0,46,47
 50 113 50 113 50 148 c 0,48,49
 50 185 50 185 64 217 c 0,50,51
 78 249 78 249 102 273 c 0,52,53
 126 297 126 297 158 311 c 0,54,55
 190 325 190 325 226 325 c 0,56,57
 262 325 262 325 294 311 c 0,58,59
 326 297 326 297 349 273 c 0,60,61
 373 249 373 249 387 217 c 0,62,63
 400 185 400 185 400 148 c 0,32,33
EndSplineSet
EndChar

StartChar: semicolon
Encoding: 30 59 30
Width: 665
VWidth: 1024
Flags: W
LayerCount: 2
Fore
SplineSet
543 868 m 0,0,1
 543 832 543 832 529 801 c 0,2,3
 516 769 516 769 493 745 c 0,4,5
 469 721 469 721 437 708 c 0,6,7
 405 694 405 694 369 694 c 0,8,9
 333 694 333 694 301 708 c 0,10,11
 269 722 269 722 244 745 c 0,12,13
 220 769 220 769 206 801 c 0,14,15
 192 833 192 833 193 868 c 0,16,17
 193 904 193 904 206 936 c 0,18,19
 220 968 220 968 244 993 c 0,20,21
 268 1017 268 1017 301 1031 c 0,22,23
 333 1045 333 1045 369 1044 c 0,24,25
 406 1044 406 1044 437 1031 c 0,26,27
 469 1017 469 1017 493 993 c 0,28,29
 517 969 517 969 529 936 c 0,30,31
 543 904 543 904 543 868 c 0,0,1
420 176 m 0,32,33
 420 115 420 115 397 52 c 0,34,35
 374 -10 374 -10 334 -70 c 0,36,37
 294 -129 294 -129 241 -182 c 0,38,39
 188 -235 188 -235 129 -274 c 0,40,41
 70 -314 70 -314 7 -339 c 0,42,43
 -56 -364 -56 -364 -116 -369 c 0,44,-1
 -96 -266 l 0,45,46
 -38 -258 -38 -258 14 -236 c 0,47,48
 66 -213 66 -213 106 -178 c 0,49,50
 147 -143 147 -143 175 -94 c 0,51,52
 203 -46 203 -46 212 14 c 0,53,-1
 84 14 l 0,54,55
 64 33 64 33 53 59 c 0,56,57
 42 85 42 85 42 114 c 0,58,59
 42 156 42 156 60 194 c 0,60,61
 78 232 78 232 108 262 c 0,62,63
 138 291 138 291 176 308 c 0,64,65
 215 325 215 325 258 325 c 0,66,67
 329 325 329 325 374 288 c 0,68,69
 420 252 420 252 420 176 c 0,32,33
EndSplineSet
EndChar

StartChar: less
Encoding: 31 60 31
Width: 2097
VWidth: 1024
Flags: W
LayerCount: 2
Fore
SplineSet
420 564 m 0,0,-1
 420 694 l 0,1,-1
 1677 1177 l 0,2,-1
 1677 1047 l 0,3,-1
 554 629 l 0,4,-1
 1677 212 l 0,5,-1
 1677 82 l 0,6,-1
 420 564 l 0,0,-1
EndSplineSet
EndChar

StartChar: equal
Encoding: 32 61 32
Width: 2097
VWidth: 1024
Flags: W
LayerCount: 2
Fore
SplineSet
420 755 m 0,0,-1
 420 885 l 0,1,-1
 1677 885 l 0,2,-1
 1677 755 l 0,3,-1
 420 755 l 0,0,-1
420 374 m 0,4,-1
 420 504 l 0,5,-1
 1677 504 l 0,6,-1
 1677 374 l 0,7,-1
 420 374 l 0,4,-1
EndSplineSet
EndChar

StartChar: greater
Encoding: 33 62 33
Width: 2097
VWidth: 1024
Flags: W
LayerCount: 2
Fore
SplineSet
420 82 m 0,0,-1
 420 212 l 0,1,-1
 1543 629 l 0,2,-1
 420 1047 l 0,3,-1
 420 1177 l 0,4,-1
 1677 694 l 0,5,-1
 1677 564 l 0,6,-1
 420 82 l 0,0,-1
EndSplineSet
EndChar

StartChar: question
Encoding: 34 63 34
Width: 1122
VWidth: 1024
Flags: W
LayerCount: 2
Fore
SplineSet
1076 1120 m 0,0,1
 1076 1048 1076 1048 1053 986 c 0,2,3
 1030 923 1030 923 990 868 c 0,4,5
 950 814 950 814 895 769 c 0,6,7
 841 724 841 724 780 689 c 0,8,9
 719 654 719 654 653 630 c 0,10,11
 587 606 587 606 524 594 c 0,12,-1
 488 416 l 0,13,-1
 346 416 l 0,14,-1
 400 694 l 0,15,16
 474 709 474 709 543 748 c 0,17,18
 612 786 612 786 666 841 c 0,19,20
 719 896 719 896 751 965 c 0,21,22
 783 1034 783 1034 782 1113 c 0,23,24
 782 1166 782 1166 764 1204 c 0,25,26
 746 1242 746 1242 716 1266 c 0,27,28
 685 1290 685 1290 644 1302 c 0,29,30
 603 1313 603 1313 554 1313 c 0,31,-1
 430 1072 l 0,32,33
 428 1070 428 1070 421 1068 c 0,34,35
 414 1065 414 1065 406 1062 c 0,36,37
 398 1059 398 1059 392 1058 c 0,38,39
 385 1056 385 1056 384 1057 c 0,40,41
 357 1057 357 1057 329 1060 c 0,42,43
 301 1064 301 1064 278 1075 c 0,44,45
 255 1086 255 1086 240 1107 c 0,46,47
 225 1127 225 1127 224 1160 c 0,48,49
 224 1211 224 1211 246 1252 c 0,50,51
 268 1292 268 1292 303 1324 c 0,52,53
 339 1355 339 1355 386 1377 c 0,54,55
 433 1400 433 1400 481 1414 c 0,56,57
 530 1428 530 1428 579 1434 c 0,58,59
 628 1441 628 1441 669 1441 c 0,60,61
 745 1441 745 1441 818 1423 c 0,62,63
 891 1405 891 1405 948 1366 c 0,64,65
 1005 1327 1005 1327 1041 1267 c 0,66,67
 1076 1206 1076 1206 1076 1120 c 0,0,1
545 136 m 0,68,69
 545 101 545 101 531 72 c 0,70,71
 517 42 517 42 494 20 c 0,72,73
 470 -2 470 -2 439 -13 c 0,74,75
 408 -25 408 -25 374 -26 c 0,76,77
 339 -26 339 -26 310 -12 c 0,78,79
 281 2 281 2 259 26 c 0,80,81
 237 50 237 50 226 80 c 0,82,83
 214 111 214 111 214 144 c 0,84,85
 214 179 214 179 226 209 c 0,86,87
 238 239 238 239 260 263 c 0,88,89
 282 286 282 286 311 299 c 0,90,91
 341 312 341 312 376 312 c 0,92,93
 413 312 413 312 444 298 c 0,94,95
 475 284 475 284 497 260 c 0,96,97
 519 236 519 236 532 203 c 0,98,99
 545 171 545 171 545 136 c 0,68,69
EndSplineSet
EndChar

StartChar: at
Encoding: 35 64 35
Width: 1961
VWidth: 1024
Flags: W
LayerCount: 2
Fore
SplineSet
1195 814 m 0,0,1
 1198 826 1198 826 1193 845 c 0,2,3
 1188 864 1188 864 1178 882 c 0,4,5
 1167 899 1167 899 1147 912 c 0,6,7
 1128 925 1128 925 1101 925 c 0,8,9
 1038 925 1038 925 982 891 c 0,10,11
 926 857 926 857 884 797 c 0,12,13
 842 737 842 737 817 654 c 0,14,15
 792 571 792 571 793 474 c 0,16,17
 793 415 793 415 804 373 c 0,18,19
 816 332 816 332 836 306 c 0,20,21
 855 280 855 280 879 268 c 0,22,23
 903 256 903 256 927 256 c 0,24,25
 961 256 961 256 988 269 c 0,26,27
 1015 282 1015 282 1037 301 c 0,28,29
 1059 320 1059 320 1077 343 c 0,30,31
 1095 366 1095 366 1111 384 c 0,32,-1
 1195 814 l 0,0,1
1841 772 m 0,33,34
 1841 668 1841 668 1818 578 c 0,35,36
 1795 488 1795 488 1756 414 c 0,37,38
 1717 340 1717 340 1663 282 c 0,39,40
 1610 224 1610 224 1550 185 c 0,41,42
 1490 146 1490 146 1426 125 c 0,43,44
 1362 105 1362 105 1300 104 c 0,45,46
 1252 104 1252 104 1220 117 c 0,47,48
 1188 129 1188 129 1167 149 c 0,49,50
 1146 169 1146 169 1135 196 c 0,51,52
 1124 223 1124 223 1120 252 c 0,53,54
 1087 224 1087 224 1054 198 c 0,55,56
 1020 172 1020 172 984 152 c 0,57,58
 948 132 948 132 910 119 c 0,59,60
 872 107 872 107 833 106 c 0,61,62
 761 106 761 106 707 133 c 0,63,64
 653 159 653 159 615 205 c 0,65,66
 578 252 578 252 560 315 c 0,67,68
 541 378 541 378 541 455 c 0,69,70
 541 573 541 573 584 676 c 0,71,72
 628 780 628 780 702 859 c 0,73,74
 777 937 777 937 878 983 c 0,75,76
 979 1029 979 1029 1093 1028 c 0,77,78
 1118 1028 1118 1028 1142 1022 c 0,79,80
 1167 1016 1167 1016 1192 1006 c 0,81,82
 1217 996 1217 996 1240 985 c 0,83,84
 1263 974 1263 974 1283 965 c 0,85,-1
 1311 1017 l 0,86,-1
 1487 1017 l 0,87,-1
 1477 978 l 0,88,89
 1470 947 1470 947 1459 902 c 0,90,91
 1448 857 1448 857 1435 802 c 0,92,93
 1422 747 1422 747 1409 690 c 0,94,95
 1378 558 1378 558 1340 394 c 0,96,97
 1332 359 1332 359 1328 331 c 0,98,99
 1324 302 1324 302 1328 282 c 0,100,101
 1332 262 1332 262 1346 250 c 0,102,103
 1360 239 1360 239 1389 239 c 0,104,105
 1409 239 1409 239 1439 254 c 0,106,107
 1469 270 1469 270 1502 301 c 0,108,109
 1534 332 1534 332 1566 377 c 0,110,111
 1598 423 1598 423 1623 482 c 0,112,113
 1648 541 1648 541 1663 613 c 0,114,115
 1679 685 1679 685 1679 770 c 0,116,117
 1679 869 1679 869 1656 950 c 0,118,119
 1632 1030 1632 1030 1592 1093 c 0,120,121
 1552 1155 1552 1155 1498 1201 c 0,122,123
 1443 1247 1443 1247 1381 1276 c 0,124,125
 1320 1306 1320 1306 1253 1320 c 0,126,127
 1186 1334 1186 1334 1122 1334 c 0,128,129
 1011 1334 1011 1334 911 1307 c 0,130,131
 810 1280 810 1280 722 1230 c 0,132,133
 634 1180 634 1180 563 1109 c 0,134,135
 491 1037 491 1037 440 948 c 0,136,137
 389 858 389 858 361 753 c 0,138,139
 333 648 333 648 334 530 c 0,140,141
 334 368 334 368 384 233 c 0,142,143
 434 97 434 97 526 -2 c 0,144,145
 618 -101 618 -101 749 -157 c 0,146,147
 879 -212 879 -212 1038 -212 c 0,148,149
 1121 -212 1121 -212 1196 -198 c 0,150,151
 1271 -184 1271 -184 1340 -161 c 0,152,153
 1410 -137 1410 -137 1477 -105 c 0,154,155
 1544 -73 1544 -73 1611 -36 c 0,156,-1
 1655 -140 l 0,157,158
 1584 -177 1584 -177 1508 -211 c 0,159,160
 1432 -245 1432 -245 1351 -272 c 0,161,162
 1269 -298 1269 -298 1178 -314 c 0,163,164
 1087 -330 1087 -330 988 -330 c 0,165,166
 865 -330 865 -330 754 -304 c 0,167,168
 642 -278 642 -278 546 -227 c 0,169,170
 450 -177 450 -177 371 -105 c 0,171,172
 293 -33 293 -33 238 58 c 0,173,174
 183 150 183 150 152 259 c 0,175,176
 122 368 122 368 122 493 c 0,177,178
 122 646 122 646 159 775 c 0,179,180
 196 905 196 905 262 1011 c 0,181,182
 328 1116 328 1116 419 1197 c 0,183,184
 510 1277 510 1277 618 1331 c 0,185,186
 726 1385 726 1385 847 1413 c 0,187,188
 968 1441 968 1441 1095 1441 c 0,189,190
 1265 1441 1265 1441 1403 1396 c 0,191,192
 1541 1351 1541 1351 1638 1265 c 0,193,194
 1735 1179 1735 1179 1788 1055 c 0,195,196
 1841 931 1841 931 1841 772 c 0,33,34
EndSplineSet
EndChar

StartChar: A
Encoding: 36 65 36
Width: 1499
VWidth: 1024
Flags: W
LayerCount: 2
Fore
SplineSet
820 0 m 0,0,-1
 820 104 l 0,1,2
 836 106 836 106 854 108 c 0,3,4
 871 110 871 110 885 112 c 0,5,6
 901 114 901 114 916 116 c 0,7,8
 936 118 936 118 948 123 c 0,9,10
 959 128 959 128 956 146 c 0,11,-1
 895 530 l 0,12,-1
 499 530 l 0,13,-1
 292 146 l 0,14,15
 282 131 282 131 290 124 c 0,16,17
 298 117 298 117 318 116 c 0,18,19
 334 114 334 114 353 112 c 0,20,21
 368 110 368 110 388 108 c 0,22,23
 407 106 407 106 428 104 c 0,24,-1
 428 0 l 0,25,-1
 -112 0 l 0,26,-1
 -112 104 l 0,27,-1
 10 118 l 0,28,-1
 786 1441 l 0,29,-1
 1034 1441 l 0,30,-1
 1263 148 l 0,31,32
 1266 128 1266 128 1273 122 c 0,33,34
 1281 116 1281 116 1305 114 c 0,35,36
 1319 113 1319 113 1335 111 c 0,37,38
 1349 109 1349 109 1367 108 c 0,39,40
 1384 107 1384 107 1401 104 c 0,41,-1
 1401 0 l 0,42,-1
 820 0 l 0,0,-1
803 1057 m 0,43,-1
 568 650 l 0,44,-1
 872 650 l 0,45,-1
 803 1057 l 0,43,-1
EndSplineSet
EndChar

StartChar: B
Encoding: 37 66 37
Width: 1359
VWidth: 1024
Flags: W
LayerCount: 2
Fore
SplineSet
971 1118 m 0,0,1
 971 1168 971 1168 951 1203 c 0,2,3
 931 1237 931 1237 898 1257 c 0,4,5
 865 1277 865 1277 821 1287 c 0,6,7
 777 1296 777 1296 730 1296 c 0,8,9
 713 1296 713 1296 696 1295 c 0,10,11
 679 1294 679 1294 665 1294 c 0,12,-1
 566 786 l 0,13,14
 583 784 583 784 598 784 c 0,15,-1
 618 784 l 0,16,17
 696 784 696 784 761 809 c 0,18,19
 826 834 826 834 873 879 c 0,20,21
 920 924 920 924 945 985 c 0,22,23
 971 1045 971 1045 971 1118 c 0,0,1
933 453 m 0,24,25
 933 518 933 518 910 559 c 0,26,27
 887 601 887 601 849 626 c 0,28,29
 811 651 811 651 761 661 c 0,30,31
 711 671 711 671 656 671 c 0,32,33
 600 671 600 671 541 665 c 0,34,-1
 434 118 l 0,35,36
 457 116 457 116 479 116 c 0,37,-1
 518 116 l 0,38,39
 611 116 611 116 688 137 c 0,40,41
 764 158 764 158 818 200 c 0,42,43
 872 242 872 242 903 306 c 0,44,45
 933 369 933 369 933 453 c 0,24,25
1292 1133 m 0,46,47
 1292 1056 1292 1056 1267 996 c 0,48,49
 1241 937 1241 937 1197 891 c 0,50,51
 1152 845 1152 845 1092 810 c 0,52,53
 1032 776 1032 776 961 751 c 0,54,55
 1030 739 1030 739 1083 717 c 0,56,57
 1137 695 1137 695 1174 662 c 0,58,59
 1211 629 1211 629 1231 583 c 0,60,61
 1250 537 1250 537 1250 474 c 0,62,63
 1250 349 1250 349 1203 259 c 0,64,65
 1156 169 1156 169 1070 112 c 0,66,67
 983 55 983 55 861 27 c 0,68,69
 739 0 739 0 587 0 c 0,70,-1
 -32 0 l 0,71,-1
 -32 104 l 0,72,73
 -6 106 -6 106 17 109 c 0,74,75
 41 111 41 111 59 113 c 0,76,77
 81 115 81 115 100 116 c 0,78,79
 117 116 117 116 127 121 c 0,80,81
 137 127 137 127 140 148 c 0,82,-1
 358 1261 l 0,83,84
 361 1278 361 1278 353 1284 c 0,85,86
 344 1290 344 1290 325 1292 c 0,87,88
 307 1293 307 1293 286 1295 c 0,89,90
 269 1297 269 1297 246 1299 c 0,91,92
 223 1301 223 1301 200 1303 c 0,93,-1
 200 1407 l 0,94,-1
 833 1407 l 0,95,96
 966 1407 966 1407 1054 1385 c 0,97,98
 1143 1363 1143 1363 1196 1327 c 0,99,100
 1249 1290 1249 1290 1271 1240 c 0,101,102
 1292 1190 1292 1190 1292 1133 c 0,46,47
EndSplineSet
EndChar

StartChar: C
Encoding: 38 67 38
Width: 1409
VWidth: 1024
Flags: W
LayerCount: 2
Fore
SplineSet
1375 984 m 0,0,-1
 1221 984 l 0,1,-1
 1223 1219 l 0,2,3
 1225 1231 1225 1231 1216 1246 c 0,4,5
 1207 1261 1207 1261 1191 1267 c 0,6,7
 1183 1271 1183 1271 1160 1279 c 0,8,9
 1137 1287 1137 1287 1110 1294 c 0,10,11
 1082 1301 1082 1301 1052 1307 c 0,12,13
 1022 1313 1022 1313 998 1313 c 0,14,15
 931 1313 931 1313 862 1289 c 0,16,17
 792 1265 792 1265 728 1220 c 0,18,19
 663 1174 663 1174 605 1108 c 0,20,21
 547 1041 547 1041 504 955 c 0,22,23
 461 869 461 869 436 765 c 0,24,25
 411 661 411 661 411 539 c 0,26,27
 411 419 411 419 445 335 c 0,28,29
 480 251 480 251 536 197 c 0,30,31
 592 143 592 143 660 119 c 0,32,33
 729 94 729 94 797 94 c 0,34,35
 820 94 820 94 846 97 c 0,36,37
 873 100 873 100 897 105 c 0,38,39
 922 110 922 110 942 116 c 0,40,41
 962 121 962 121 971 126 c 0,42,43
 987 128 987 128 995 138 c 0,44,45
 1003 148 1003 148 1009 160 c 0,46,-1
 1109 436 l 0,47,-1
 1267 436 l 0,48,-1
 1202 56 l 0,49,50
 1162 42 1162 42 1111 26 c 0,51,52
 1059 10 1059 10 998 -3 c 0,53,54
 938 -16 938 -16 870 -25 c 0,55,56
 802 -34 802 -34 728 -34 c 0,57,58
 610 -34 610 -34 518 -10 c 0,59,60
 425 14 425 14 355 57 c 0,61,62
 285 99 285 99 237 157 c 0,63,64
 188 214 188 214 158 281 c 0,65,66
 128 348 128 348 114 419 c 0,67,68
 100 491 100 491 100 562 c 0,69,70
 100 670 100 670 127 777 c 0,71,72
 154 885 154 885 207 982 c 0,73,74
 259 1079 259 1079 336 1163 c 0,75,76
 413 1247 413 1247 511 1309 c 0,77,78
 609 1371 609 1371 729 1406 c 0,79,80
 849 1441 849 1441 988 1441 c 0,81,82
 1048 1441 1048 1441 1103 1434 c 0,83,84
 1158 1427 1158 1427 1212 1416 c 0,85,86
 1266 1405 1266 1405 1322 1389 c 0,87,88
 1378 1373 1378 1373 1441 1353 c 0,89,-1
 1375 984 l 0,0,-1
EndSplineSet
EndChar

StartChar: D
Encoding: 39 68 39
Width: 1495
VWidth: 1024
Flags: W
LayerCount: 2
Fore
SplineSet
1457 868 m 0,0,1
 1457 681 1457 681 1392 522 c 0,2,3
 1326 363 1326 363 1203 247 c 0,4,5
 1080 131 1080 131 904 66 c 0,6,7
 727 0 727 0 506 0 c 0,8,-1
 -32 0 l 0,9,-1
 -32 104 l 0,10,11
 -8 106 -8 106 14 109 c 0,12,13
 37 111 37 111 54 112 c 0,14,15
 74 113 74 113 94 114 c 0,16,17
 120 116 120 116 127 121 c 0,18,19
 135 127 135 127 140 148 c 0,20,-1
 358 1261 l 0,21,22
 361 1279 361 1279 351 1285 c 0,23,24
 340 1291 340 1291 321 1292 c 0,25,26
 302 1293 302 1293 282 1295 c 0,27,28
 265 1297 265 1297 243 1299 c 0,29,30
 221 1301 221 1301 200 1303 c 0,31,-1
 200 1407 l 0,32,-1
 744 1407 l 0,33,34
 907 1407 907 1407 1039 1377 c 0,35,36
 1171 1347 1171 1347 1264 1283 c 0,37,38
 1357 1218 1357 1218 1407 1115 c 0,39,40
 1457 1012 1457 1012 1457 868 c 0,0,1
1143 887 m 0,41,42
 1143 973 1143 973 1124 1035 c 0,43,44
 1106 1097 1106 1097 1074 1141 c 0,45,46
 1042 1185 1042 1185 999 1211 c 0,47,48
 955 1238 955 1238 905 1253 c 0,49,50
 855 1268 855 1268 801 1273 c 0,51,52
 747 1279 747 1279 692 1281 c 0,53,-1
 663 1281 l 0,54,-1
 436 130 l 0,55,-1
 543 130 l 0,56,57
 635 131 635 131 715 160 c 0,58,59
 795 189 795 189 862 239 c 0,60,61
 929 290 929 290 981 360 c 0,62,63
 1033 430 1033 430 1069 514 c 0,64,65
 1105 597 1105 597 1124 692 c 0,66,67
 1143 787 1143 787 1143 887 c 0,41,42
EndSplineSet
EndChar

StartChar: E
Encoding: 40 69 40
Width: 1257
VWidth: 1024
Flags: W
LayerCount: 2
Fore
SplineSet
1239 1076 m 0,0,-1
 1072 1076 l 0,1,-1
 1072 1254 l 0,2,3
 1072 1269 1072 1269 1056 1275 c 0,4,5
 1040 1281 1040 1281 1023 1281 c 0,6,-1
 663 1281 l 0,7,-1
 568 795 l 0,8,-1
 805 795 l 0,9,10
 821 795 821 795 840 802 c 0,11,12
 859 810 859 810 864 826 c 0,13,-1
 908 973 l 0,14,-1
 1061 973 l 0,15,-1
 965 480 l 0,16,-1
 810 480 l 0,17,-1
 830 638 l 0,18,19
 831 644 831 644 827 649 c 0,20,21
 823 654 823 654 816 658 c 0,22,23
 809 662 809 662 800 665 c 0,24,25
 791 667 791 667 784 667 c 0,26,-1
 543 667 l 0,27,-1
 438 126 l 0,28,-1
 885 126 l 0,29,30
 901 126 901 126 920 134 c 0,31,32
 939 142 939 142 944 156 c 0,33,-1
 1011 365 l 0,34,-1
 1177 365 l 0,35,-1
 1103 0 l 0,36,-1
 -32 0 l 0,37,-1
 -32 104 l 0,38,39
 -8 106 -8 106 15 109 c 0,40,41
 38 111 38 111 55 113 c 0,42,43
 75 115 75 115 94 116 c 0,44,45
 118 118 118 118 127 123 c 0,46,47
 137 128 137 128 140 148 c 0,48,-1
 358 1261 l 0,49,50
 363 1279 363 1279 352 1285 c 0,51,52
 341 1291 341 1291 321 1292 c 0,53,54
 303 1293 303 1293 283 1295 c 0,55,56
 266 1297 266 1297 244 1299 c 0,57,58
 222 1301 222 1301 202 1303 c 0,59,-1
 202 1407 l 0,60,-1
 1307 1407 l 0,61,-1
 1239 1076 l 0,0,-1
EndSplineSet
EndChar

StartChar: F
Encoding: 41 70 41
Width: 1165
VWidth: 1024
Flags: W
LayerCount: 2
Fore
SplineSet
1214 1053 m 0,0,-1
 1044 1053 l 0,1,-1
 1044 1254 l 0,2,3
 1044 1269 1044 1269 1029 1275 c 0,4,5
 1014 1281 1014 1281 996 1281 c 0,6,-1
 663 1281 l 0,7,-1
 564 774 l 0,8,-1
 786 774 l 0,9,10
 801 774 801 774 821 781 c 0,11,12
 840 788 840 788 845 803 c 0,13,-1
 887 954 l 0,14,-1
 1042 954 l 0,15,-1
 946 460 l 0,16,-1
 788 460 l 0,17,-1
 812 616 l 0,18,19
 813 630 813 630 796 638 c 0,20,21
 779 646 779 646 763 646 c 0,22,-1
 539 646 l 0,23,-1
 440 146 l 0,24,25
 437 128 437 128 449 123 c 0,26,27
 460 118 460 118 480 116 c 0,28,29
 499 115 499 115 522 113 c 0,30,31
 541 111 541 111 566 109 c 0,32,33
 590 107 590 107 616 104 c 0,34,-1
 616 0 l 0,35,-1
 -32 0 l 0,36,-1
 -32 104 l 0,37,38
 -10 106 -10 106 11 109 c 0,39,40
 32 111 32 111 49 113 c 0,41,42
 68 115 68 115 88 116 c 0,43,44
 112 118 112 118 123 123 c 0,45,46
 135 128 135 128 140 148 c 0,47,-1
 358 1261 l 0,48,49
 361 1279 361 1279 350 1285 c 0,50,51
 339 1291 339 1291 318 1292 c 0,52,53
 300 1293 300 1293 281 1295 c 0,54,55
 264 1297 264 1297 242 1299 c 0,56,57
 220 1301 220 1301 200 1303 c 0,58,-1
 200 1407 l 0,59,-1
 1283 1407 l 0,60,-1
 1214 1053 l 0,0,-1
EndSplineSet
EndChar

StartChar: G
Encoding: 42 71 42
Width: 1529
VWidth: 1024
Flags: W
LayerCount: 2
Fore
SplineSet
1361 574 m 0,0,1
 1347 572 1347 572 1341 565 c 0,2,3
 1335 557 1335 557 1331 543 c 0,4,-1
 1235 54 l 0,5,6
 1191 42 1191 42 1134 27 c 0,7,8
 1077 12 1077 12 1011 -2 c 0,9,10
 945 -15 945 -15 876 -25 c 0,11,12
 807 -34 807 -34 740 -34 c 0,13,14
 606 -34 606 -34 507 -5 c 0,15,16
 408 24 408 24 337 72 c 0,17,18
 266 120 266 120 220 182 c 0,19,20
 174 244 174 244 147 310 c 0,21,22
 120 377 120 377 111 443 c 0,23,24
 101 509 101 509 100 564 c 0,25,26
 100 694 100 694 136 810 c 0,27,28
 171 926 171 926 234 1023 c 0,29,30
 297 1121 297 1121 385 1199 c 0,31,32
 473 1276 473 1276 578 1330 c 0,33,34
 683 1384 683 1384 803 1412 c 0,35,36
 923 1441 923 1441 1049 1441 c 0,37,38
 1108 1441 1108 1441 1160 1436 c 0,39,40
 1212 1431 1212 1431 1262 1422 c 0,41,42
 1313 1412 1313 1412 1366 1397 c 0,43,44
 1419 1382 1419 1382 1483 1363 c 0,45,-1
 1405 981 l 0,46,-1
 1227 981 l 0,47,-1
 1246 1219 l 0,48,49
 1248 1237 1248 1237 1230 1248 c 0,50,51
 1212 1259 1212 1259 1191 1267 c 0,52,53
 1181 1270 1181 1270 1163 1276 c 0,54,55
 1145 1283 1145 1283 1122 1290 c 0,56,57
 1099 1297 1099 1297 1073 1302 c 0,58,59
 1047 1307 1047 1307 1023 1307 c 0,60,61
 958 1307 958 1307 889 1283 c 0,62,63
 819 1259 819 1259 752 1214 c 0,64,65
 685 1168 685 1168 625 1101 c 0,66,67
 565 1034 565 1034 519 948 c 0,68,69
 473 862 473 862 446 758 c 0,70,71
 419 654 419 654 420 532 c 0,72,73
 420 447 420 447 440 382 c 0,74,75
 460 317 460 317 492 269 c 0,76,77
 524 220 524 220 565 188 c 0,78,79
 605 156 605 156 646 136 c 0,80,81
 686 116 686 116 722 107 c 0,82,83
 758 98 758 98 782 98 c 0,84,85
 802 98 802 98 826 101 c 0,86,87
 850 104 850 104 872 109 c 0,88,89
 895 114 895 114 915 119 c 0,90,91
 935 124 935 124 950 128 c 0,92,-1
 1032 543 l 0,93,94
 1035 562 1035 562 1026 568 c 0,95,96
 1017 574 1017 574 992 577 c 0,97,98
 974 577 974 577 954 579 c 0,99,100
 937 580 937 580 916 581 c 0,101,102
 895 583 895 583 874 585 c 0,103,-1
 874 692 l 0,104,-1
 1503 692 l 0,105,-1
 1503 585 l 0,106,-1
 1361 574 l 0,0,1
EndSplineSet
EndChar

StartChar: H
Encoding: 43 72 43
Width: 1607
VWidth: 1024
Flags: W
LayerCount: 2
Fore
SplineSet
1563 1290 m 0,0,1
 1544 1288 1544 1288 1535 1281 c 0,2,3
 1527 1273 1527 1273 1525 1258 c 0,4,-1
 1307 146 l 0,5,6
 1304 129 1304 129 1313 123 c 0,7,8
 1322 117 1322 117 1342 116 c 0,9,10
 1360 115 1360 115 1381 113 c 0,11,12
 1398 111 1398 111 1421 109 c 0,13,14
 1443 107 1443 107 1466 104 c 0,15,-1
 1466 0 l 0,16,-1
 830 0 l 0,17,-1
 830 104 l 0,18,-1
 878 109 l 0,19,20
 902 111 902 111 920 113 c 0,21,22
 942 115 942 115 961 116 c 0,23,24
 980 118 980 118 992 124 c 0,25,26
 1004 130 1004 130 1007 148 c 0,27,-1
 1109 673 l 0,28,-1
 543 673 l 0,29,-1
 440 146 l 0,30,31
 437 128 437 128 444 123 c 0,32,33
 451 118 451 118 478 116 c 0,34,35
 496 115 496 115 517 113 c 0,36,37
 534 111 534 111 557 109 c 0,38,39
 579 107 579 107 602 104 c 0,40,-1
 602 0 l 0,41,-1
 -32 0 l 0,42,-1
 -32 104 l 0,43,44
 -8 106 -8 106 15 109 c 0,45,46
 38 111 38 111 55 113 c 0,47,48
 75 115 75 115 94 116 c 0,49,50
 117 118 117 118 127 124 c 0,51,52
 137 130 137 130 140 148 c 0,53,-1
 358 1261 l 0,54,55
 361 1279 361 1279 351 1285 c 0,56,57
 341 1291 341 1291 318 1292 c 0,58,59
 300 1293 300 1293 281 1295 c 0,60,61
 264 1297 264 1297 242 1299 c 0,62,63
 221 1301 221 1301 200 1303 c 0,64,-1
 200 1407 l 0,65,-1
 833 1407 l 0,66,-1
 833 1303 l 0,67,68
 808 1301 808 1301 785 1299 c 0,69,70
 762 1297 762 1297 743 1295 c 0,71,72
 721 1293 721 1293 702 1292 c 0,73,74
 682 1290 682 1290 672 1284 c 0,75,76
 662 1277 662 1277 658 1258 c 0,77,-1
 568 799 l 0,78,-1
 1135 799 l 0,79,-1
 1225 1261 l 0,80,81
 1228 1279 1228 1279 1217 1286 c 0,82,83
 1206 1293 1206 1293 1181 1294 c 0,84,85
 1163 1295 1163 1295 1143 1296 c 0,86,87
 1126 1297 1126 1297 1104 1299 c 0,88,89
 1083 1301 1083 1301 1063 1303 c 0,90,-1
 1063 1407 l 0,91,-1
 1697 1407 l 0,92,-1
 1697 1303 l 0,93,-1
 1563 1290 l 0,0,1
EndSplineSet
EndChar

StartChar: I
Encoding: 44 73 44
Width: 745
VWidth: 1024
Flags: W
LayerCount: 2
Fore
SplineSet
690 1292 m 0,0,1
 674 1290 674 1290 668 1282 c 0,2,3
 662 1273 662 1273 658 1258 c 0,4,-1
 440 146 l 0,5,6
 437 129 437 129 444 123 c 0,7,8
 451 117 451 117 472 116 c 0,9,10
 491 115 491 115 513 113 c 0,11,12
 531 111 531 111 555 109 c 0,13,14
 579 107 579 107 604 104 c 0,15,-1
 604 0 l 0,16,-1
 -32 0 l 0,17,-1
 -32 104 l 0,18,19
 -8 106 -8 106 14 108 c 0,20,21
 36 109 36 109 53 111 c 0,22,23
 73 113 73 113 92 114 c 0,24,25
 116 116 116 116 126 121 c 0,26,27
 137 127 137 127 140 148 c 0,28,-1
 358 1261 l 0,29,30
 363 1279 363 1279 352 1285 c 0,31,32
 341 1291 341 1291 321 1292 c 0,33,34
 303 1293 303 1293 283 1295 c 0,35,36
 266 1297 266 1297 244 1299 c 0,37,38
 222 1301 222 1301 202 1303 c 0,39,-1
 202 1407 l 0,40,-1
 835 1407 l 0,41,-1
 835 1303 l 0,42,-1
 690 1292 l 0,0,1
EndSplineSet
EndChar

StartChar: J
Encoding: 45 74 45
Width: 1069
VWidth: 1024
Flags: W
LayerCount: 2
Fore
SplineSet
1009 1290 m 0,0,1
 995 1290 995 1290 989 1282 c 0,2,3
 983 1273 983 1273 979 1258 c 0,4,-1
 845 539 l 0,5,6
 822 415 822 415 789 310 c 0,7,8
 756 205 756 205 694 129 c 0,9,10
 633 53 633 53 533 9 c 0,11,12
 433 -34 433 -34 279 -34 c 0,13,14
 209 -34 209 -34 154 -25 c 0,15,16
 99 -16 99 -16 59 -3 c 0,17,18
 19 9 19 9 -6 21 c 0,19,20
 -31 33 -31 33 -42 38 c 0,21,-1
 30 402 l 0,22,-1
 202 402 l 0,23,-1
 202 138 l 0,24,25
 202 130 202 130 211 122 c 0,26,27
 221 114 221 114 236 109 c 0,28,29
 250 103 250 103 266 100 c 0,30,31
 282 96 282 96 294 96 c 0,32,33
 385 96 385 96 443 201 c 0,34,35
 501 306 501 306 541 522 c 0,36,-1
 680 1261 l 0,37,38
 683 1279 683 1279 673 1285 c 0,39,40
 663 1291 663 1291 642 1292 c 0,41,42
 623 1293 623 1293 602 1295 c 0,43,44
 585 1297 585 1297 562 1299 c 0,45,46
 539 1301 539 1301 518 1303 c 0,47,-1
 518 1407 l 0,48,-1
 1151 1407 l 0,49,-1
 1151 1303 l 0,50,-1
 1009 1290 l 0,0,1
EndSplineSet
EndChar

StartChar: K
Encoding: 46 75 46
Width: 1464
VWidth: 1024
Flags: W
LayerCount: 2
Fore
SplineSet
1355 1285 m 0,0,-1
 814 770 l 0,1,-1
 1105 216 l 0,2,3
 1123 181 1123 181 1135 160 c 0,4,5
 1147 138 1147 138 1159 125 c 0,6,7
 1171 112 1171 112 1187 108 c 0,8,9
 1202 103 1202 103 1227 102 c 0,10,11
 1235 102 1235 102 1255 104 c 0,12,13
 1275 106 1275 106 1298 107 c 0,14,15
 1321 109 1321 109 1339 110 c 0,16,17
 1357 112 1357 112 1359 112 c 0,18,-1
 1359 6 l 0,19,20
 1302 -11 1302 -11 1239 -23 c 0,21,22
 1177 -34 1177 -34 1118 -34 c 0,23,24
 1055 -34 1055 -34 1010 -25 c 0,25,26
 965 -16 965 -16 933 5 c 0,27,28
 901 25 901 25 877 56 c 0,29,30
 853 87 853 87 830 130 c 0,31,-1
 579 610 l 0,32,-1
 530 610 l 0,33,-1
 438 146 l 0,34,35
 435 126 435 126 445 121 c 0,36,37
 455 116 455 116 472 114 c 0,38,39
 489 113 489 113 508 111 c 0,40,41
 523 109 523 109 542 108 c 0,42,43
 561 107 561 107 581 104 c 0,44,-1
 581 0 l 0,45,-1
 -34 0 l 0,46,-1
 -34 104 l 0,47,48
 -14 106 -14 106 9 108 c 0,49,50
 32 109 32 109 52 111 c 0,51,52
 76 113 76 113 98 114 c 0,53,54
 114 114 114 114 125 121 c 0,55,56
 135 128 135 128 138 148 c 0,57,-1
 358 1261 l 0,58,59
 363 1279 363 1279 355 1286 c 0,60,61
 347 1293 347 1293 332 1294 c 0,62,63
 315 1295 315 1295 296 1296 c 0,64,65
 280 1297 280 1297 260 1299 c 0,66,67
 241 1301 241 1301 220 1303 c 0,68,-1
 220 1407 l 0,69,-1
 814 1407 l 0,70,-1
 814 1303 l 0,71,72
 792 1301 792 1301 772 1299 c 0,73,74
 751 1297 751 1297 734 1296 c 0,75,76
 716 1295 716 1295 698 1294 c 0,77,78
 683 1292 683 1292 673 1286 c 0,79,80
 663 1279 663 1279 658 1258 c 0,81,-1
 568 803 l 0,82,-1
 585 803 l 0,83,-1
 1057 1263 l 0,84,85
 1073 1277 1073 1277 1066 1285 c 0,86,87
 1059 1293 1059 1293 1038 1294 c 0,88,89
 1020 1294 1020 1294 1001 1296 c 0,90,91
 985 1297 985 1297 966 1299 c 0,92,93
 947 1301 947 1301 929 1303 c 0,94,-1
 929 1407 l 0,95,-1
 1539 1407 l 0,96,-1
 1539 1303 l 0,97,-1
 1355 1285 l 0,0,-1
EndSplineSet
EndChar

StartChar: L
Encoding: 47 76 47
Width: 1173
VWidth: 1024
Flags: W
LayerCount: 2
Fore
SplineSet
1023 0 m 0,0,-1
 -32 0 l 0,1,-1
 -32 104 l 0,2,3
 -10 106 -10 106 11 109 c 0,4,5
 32 111 32 111 49 112 c 0,6,-1
 88 114 l 0,7,8
 118 117 118 117 127 122 c 0,9,10
 137 128 137 128 140 148 c 0,11,-1
 358 1261 l 0,12,13
 363 1278 363 1278 353 1284 c 0,14,15
 342 1290 342 1290 325 1292 c 0,16,17
 307 1293 307 1293 286 1295 c 0,18,19
 269 1297 269 1297 246 1299 c 0,20,21
 224 1301 224 1301 202 1303 c 0,22,-1
 202 1407 l 0,23,-1
 835 1407 l 0,24,-1
 835 1303 l 0,25,26
 808 1301 808 1301 784 1299 c 0,27,28
 760 1297 760 1297 740 1295 c 0,29,30
 717 1293 717 1293 698 1292 c 0,31,32
 684 1290 684 1290 674 1284 c 0,33,34
 664 1277 664 1277 658 1258 c 0,35,-1
 436 126 l 0,36,-1
 805 126 l 0,37,38
 821 126 821 126 840 134 c 0,39,40
 859 142 859 142 864 156 c 0,41,-1
 950 424 l 0,42,-1
 1107 424 l 0,43,-1
 1023 0 l 0,0,-1
EndSplineSet
EndChar

StartChar: M
Encoding: 48 77 48
Width: 1894
VWidth: 1024
Flags: W
LayerCount: 2
Fore
SplineSet
1839 1287 m 0,0,1
 1825 1285 1825 1285 1819 1279 c 0,2,3
 1813 1273 1813 1273 1809 1258 c 0,4,-1
 1593 146 l 0,5,6
 1590 128 1590 128 1601 123 c 0,7,8
 1611 118 1611 118 1631 116 c 0,9,10
 1649 115 1649 115 1670 113 c 0,11,12
 1687 111 1687 111 1709 109 c 0,13,14
 1731 107 1731 107 1753 104 c 0,15,-1
 1753 0 l 0,16,-1
 1120 0 l 0,17,-1
 1120 104 l 0,18,19
 1144 106 1144 106 1166 109 c 0,20,21
 1189 111 1189 111 1207 113 c 0,22,23
 1229 115 1229 115 1248 116 c 0,24,25
 1265 116 1265 116 1278 123 c 0,26,27
 1291 130 1291 130 1294 148 c 0,28,-1
 1451 958 l 0,29,-1
 906 0 l 0,30,-1
 700 0 l 0,31,-1
 530 944 l 0,32,-1
 382 146 l 0,33,34
 377 129 377 129 387 123 c 0,35,36
 397 117 397 117 411 116 c 0,37,38
 430 115 430 115 451 113 c 0,39,40
 468 111 468 111 491 109 c 0,41,42
 514 107 514 107 539 104 c 0,43,-1
 539 0 l 0,44,-1
 -30 0 l 0,45,-1
 -30 104 l 0,46,47
 -8 106 -8 106 12 109 c 0,48,49
 32 111 32 111 50 113 c 0,50,51
 69 115 69 115 88 116 c 0,52,53
 111 118 111 118 124 123 c 0,54,55
 137 128 137 128 142 148 c 0,56,-1
 358 1261 l 0,57,58
 361 1279 361 1279 351 1285 c 0,59,60
 341 1291 341 1291 321 1292 c 0,61,62
 302 1293 302 1293 282 1295 c 0,63,64
 265 1297 265 1297 243 1299 c 0,65,66
 221 1301 221 1301 200 1303 c 0,67,-1
 200 1407 l 0,68,-1
 757 1407 l 0,69,-1
 757 1338 l 0,70,-1
 916 457 l 0,71,-1
 1409 1329 l 0,72,-1
 1409 1407 l 0,73,-1
 1981 1407 l 0,74,-1
 1981 1303 l 0,75,-1
 1839 1287 l 0,0,1
EndSplineSet
EndChar

StartChar: N
Encoding: 49 78 49
Width: 1579
VWidth: 1024
Flags: W
LayerCount: 2
Fore
SplineSet
1535 1290 m 0,0,1
 1505 1285 1505 1285 1499 1258 c 0,2,-1
 1250 0 l 0,3,-1
 1017 0 l 0,4,-1
 548 975 l 0,5,-1
 386 146 l 0,6,7
 383 128 383 128 392 123 c 0,8,9
 401 118 401 118 424 116 c 0,10,11
 442 115 442 115 462 113 c 0,12,13
 479 111 479 111 500 109 c 0,14,15
 521 107 521 107 545 104 c 0,16,-1
 545 0 l 0,17,-1
 -30 0 l 0,18,-1
 -30 104 l 0,19,20
 -7 106 -7 106 14 109 c 0,21,22
 35 111 35 111 52 113 c 0,23,24
 71 115 71 115 90 116 c 0,25,26
 113 118 113 118 125 123 c 0,27,28
 137 128 137 128 142 148 c 0,29,-1
 358 1261 l 0,30,31
 363 1279 363 1279 352 1285 c 0,32,33
 341 1291 341 1291 321 1292 c 0,34,35
 303 1293 303 1293 283 1295 c 0,36,37
 266 1297 266 1297 244 1299 c 0,38,39
 223 1301 223 1301 202 1303 c 0,40,-1
 202 1407 l 0,41,-1
 694 1407 l 0,42,-1
 694 1342 l 0,43,-1
 1103 488 l 0,44,-1
 1256 1261 l 0,45,46
 1261 1279 1261 1279 1248 1285 c 0,47,48
 1235 1291 1235 1291 1217 1292 c 0,49,50
 1198 1293 1198 1293 1178 1295 c 0,51,52
 1161 1297 1161 1297 1139 1299 c 0,53,54
 1117 1301 1117 1301 1097 1303 c 0,55,-1
 1097 1407 l 0,56,-1
 1671 1407 l 0,57,-1
 1671 1303 l 0,58,-1
 1535 1290 l 0,0,1
EndSplineSet
EndChar

StartChar: O
Encoding: 50 79 50
Width: 1576
VWidth: 1024
Flags: W
LayerCount: 2
Fore
SplineSet
1537 874 m 0,0,1
 1537 766 1537 766 1514 658 c 0,2,3
 1491 549 1491 549 1446 448 c 0,4,5
 1400 347 1400 347 1332 259 c 0,6,7
 1263 171 1263 171 1172 106 c 0,8,9
 1081 41 1081 41 967 4 c 0,10,11
 852 -33 852 -33 715 -34 c 0,12,13
 569 -34 569 -34 454 10 c 0,14,15
 340 54 340 54 261 132 c 0,16,17
 182 210 182 210 141 317 c 0,18,19
 100 424 100 424 100 552 c 0,20,21
 100 661 100 661 125 769 c 0,22,23
 150 878 150 878 199 976 c 0,24,25
 248 1075 248 1075 318 1160 c 0,26,27
 389 1245 389 1245 481 1308 c 0,28,29
 573 1370 573 1370 684 1405 c 0,30,31
 796 1440 796 1440 925 1441 c 0,32,33
 1077 1441 1077 1441 1191 1394 c 0,34,35
 1306 1347 1306 1347 1382 1269 c 0,36,37
 1459 1191 1459 1191 1498 1089 c 0,38,39
 1537 986 1537 986 1537 874 c 0,0,1
1210 874 m 0,40,41
 1210 979 1210 979 1183 1062 c 0,42,43
 1156 1144 1156 1144 1113 1200 c 0,44,45
 1069 1256 1069 1256 1015 1286 c 0,46,47
 961 1315 961 1315 906 1315 c 0,48,49
 844 1315 844 1315 784 1283 c 0,50,51
 724 1251 724 1251 671 1197 c 0,52,53
 618 1142 618 1142 572 1066 c 0,54,55
 527 991 527 991 495 905 c 0,56,57
 463 818 463 818 444 723 c 0,58,59
 426 628 426 628 426 535 c 0,60,61
 426 426 426 426 454 344 c 0,62,63
 482 262 482 262 526 207 c 0,64,65
 570 152 570 152 624 124 c 0,66,67
 678 96 678 96 730 96 c 0,68,69
 791 96 791 96 851 129 c 0,70,71
 911 161 911 161 965 217 c 0,72,73
 1018 273 1018 273 1063 349 c 0,74,75
 1108 424 1108 424 1141 510 c 0,76,77
 1174 597 1174 597 1192 690 c 0,78,79
 1210 783 1210 783 1210 874 c 0,40,41
EndSplineSet
EndChar

StartChar: P
Encoding: 51 80 51
Width: 1273
VWidth: 1024
Flags: W
LayerCount: 2
Fore
SplineSet
979 1032 m 0,0,1
 979 1156 979 1156 908 1222 c 0,2,3
 837 1288 837 1288 698 1287 c 0,4,-1
 663 1287 l 0,5,-1
 535 646 l 0,6,7
 596 644 596 644 665 657 c 0,8,9
 734 670 734 670 799 709 c 0,10,11
 837 732 837 732 869 762 c 0,12,13
 902 793 902 793 927 833 c 0,14,15
 952 873 952 873 965 922 c 0,16,17
 979 972 979 972 979 1032 c 0,0,1
1285 1065 m 0,18,19
 1285 942 1285 942 1238 842 c 0,20,21
 1190 742 1190 742 1101 669 c 0,22,23
 1012 597 1012 597 885 558 c 0,24,25
 759 519 759 519 602 518 c 0,26,-1
 559 518 l 0,27,28
 533 518 533 518 512 520 c 0,29,-1
 436 146 l 0,30,31
 433 128 433 128 442 123 c 0,32,33
 451 118 451 118 474 116 c 0,34,35
 492 115 492 115 513 113 c 0,36,37
 530 111 530 111 552 109 c 0,38,39
 574 107 574 107 598 104 c 0,40,-1
 598 0 l 0,41,-1
 -36 0 l 0,42,-1
 -36 104 l 0,43,44
 -13 106 -13 106 8 109 c 0,45,46
 30 111 30 111 47 113 c 0,47,48
 66 115 66 115 86 116 c 0,49,50
 106 118 106 118 119 123 c 0,51,52
 131 128 131 128 136 148 c 0,53,-1
 356 1261 l 0,54,55
 359 1279 359 1279 348 1285 c 0,56,57
 336 1291 336 1291 316 1292 c 0,58,59
 298 1293 298 1293 279 1295 c 0,60,61
 262 1297 262 1297 240 1299 c 0,62,63
 218 1301 218 1301 198 1303 c 0,64,-1
 198 1407 l 0,65,-1
 763 1407 l 0,66,67
 911 1407 911 1407 1012 1380 c 0,68,69
 1112 1353 1112 1353 1173 1306 c 0,70,71
 1234 1259 1234 1259 1260 1198 c 0,72,73
 1285 1136 1285 1136 1285 1065 c 0,18,19
EndSplineSet
EndChar

StartChar: Q
Encoding: 52 81 52
Width: 1576
VWidth: 1024
Flags: W
LayerCount: 2
Fore
SplineSet
1603 -226 m 0,0,1
 1589 -233 1589 -233 1546 -251 c 0,2,3
 1504 -269 1504 -269 1448 -288 c 0,4,5
 1392 -307 1392 -307 1327 -322 c 0,6,7
 1262 -336 1262 -336 1204 -336 c 0,8,9
 1107 -336 1107 -336 1038 -311 c 0,10,11
 969 -286 969 -286 920 -244 c 0,12,13
 871 -203 871 -203 837 -148 c 0,14,15
 804 -93 804 -93 776 -34 c 0,16,17
 762 -36 762 -36 745 -37 c 0,18,19
 728 -38 728 -38 709 -38 c 0,20,21
 573 -38 573 -38 460 3 c 0,22,23
 347 43 347 43 266 119 c 0,24,25
 185 195 185 195 141 302 c 0,26,27
 96 409 96 409 96 543 c 0,28,29
 96 647 96 647 121 755 c 0,30,31
 146 863 146 863 196 962 c 0,32,33
 245 1062 245 1062 316 1149 c 0,34,35
 387 1236 387 1236 479 1301 c 0,36,37
 571 1366 571 1366 684 1403 c 0,38,39
 796 1440 796 1440 927 1441 c 0,40,41
 1077 1441 1077 1441 1190 1396 c 0,42,43
 1304 1351 1304 1351 1380 1273 c 0,44,45
 1457 1195 1457 1195 1496 1092 c 0,46,47
 1535 989 1535 989 1535 872 c 0,48,49
 1535 817 1535 817 1528 750 c 0,50,51
 1521 682 1521 682 1503 609 c 0,52,53
 1484 536 1484 536 1452 459 c 0,54,55
 1420 383 1420 383 1369 310 c 0,56,57
 1318 237 1318 237 1246 169 c 0,58,59
 1174 101 1174 101 1076 46 c 0,60,61
 1106 -7 1106 -7 1128 -51 c 0,62,63
 1151 -95 1151 -95 1177 -126 c 0,64,65
 1203 -157 1203 -157 1235 -175 c 0,66,67
 1268 -192 1268 -192 1317 -193 c 0,68,69
 1345 -193 1345 -193 1373 -186 c 0,70,71
 1402 -179 1402 -179 1436 -167 c 0,72,73
 1470 -155 1470 -155 1510 -136 c 0,74,75
 1550 -118 1550 -118 1603 -94 c 0,76,-1
 1603 -226 l 0,0,1
1210 872 m 0,77,78
 1210 973 1210 973 1185 1055 c 0,79,80
 1159 1136 1159 1136 1118 1194 c 0,81,82
 1077 1251 1077 1251 1023 1282 c 0,83,84
 970 1313 970 1313 916 1313 c 0,85,86
 853 1313 853 1313 792 1283 c 0,87,88
 731 1253 731 1253 675 1199 c 0,89,90
 620 1145 620 1145 573 1071 c 0,91,92
 526 997 526 997 492 911 c 0,93,94
 458 824 458 824 439 728 c 0,95,96
 420 632 420 632 420 532 c 0,97,98
 420 432 420 432 445 351 c 0,99,100
 471 270 471 270 514 212 c 0,101,102
 556 155 556 155 612 123 c 0,103,104
 668 92 668 92 728 92 c 0,105,106
 788 92 788 92 848 124 c 0,107,108
 907 156 907 156 961 211 c 0,109,110
 1015 267 1015 267 1060 343 c 0,111,112
 1106 418 1106 418 1139 505 c 0,113,114
 1172 592 1172 592 1191 686 c 0,115,116
 1210 779 1210 779 1210 872 c 0,77,78
EndSplineSet
EndChar

StartChar: R
Encoding: 53 82 53
Width: 1431
VWidth: 1024
Flags: W
LayerCount: 2
Fore
SplineSet
981 1061 m 0,0,1
 981 1112 981 1112 966 1149 c 0,2,3
 951 1186 951 1186 926 1211 c 0,4,5
 902 1236 902 1236 872 1251 c 0,6,7
 842 1266 842 1266 813 1274 c 0,8,9
 783 1282 783 1282 757 1284 c 0,10,11
 731 1286 731 1286 715 1285 c 0,12,-1
 663 1281 l 0,13,-1
 560 738 l 0,14,-1
 574 738 l 0,15,16
 583 738 583 738 592 739 c 0,17,18
 602 739 602 739 612 740 c 0,19,20
 652 741 652 741 695 750 c 0,21,22
 738 758 738 758 779 773 c 0,23,24
 820 788 820 788 857 813 c 0,25,26
 893 838 893 838 921 873 c 0,27,28
 949 908 949 908 965 955 c 0,29,30
 981 1002 981 1002 981 1061 c 0,0,1
1378 6 m 0,31,32
 1330 -14 1330 -14 1284 -24 c 0,33,34
 1238 -34 1238 -34 1181 -34 c 0,35,36
 1084 -34 1084 -34 1021 -11 c 0,37,38
 959 12 959 12 919 55 c 0,39,40
 879 99 879 99 856 162 c 0,41,42
 833 225 833 225 816 308 c 0,43,44
 809 339 809 339 801 373 c 0,45,46
 793 407 793 407 783 441 c 0,47,48
 772 475 772 475 757 506 c 0,49,50
 742 537 742 537 720 561 c 0,51,52
 698 585 698 585 669 599 c 0,53,54
 640 613 640 613 600 612 c 0,55,56
 587 612 587 612 568 611 c 0,57,58
 550 610 550 610 532 610 c 0,59,-1
 444 146 l 0,60,61
 441 129 441 129 450 123 c 0,62,63
 458 117 458 117 478 116 c 0,64,65
 496 114 496 114 518 112 c 0,66,67
 535 110 535 110 559 108 c 0,68,69
 583 106 583 106 606 104 c 0,70,-1
 606 0 l 0,71,-1
 -28 0 l 0,72,-1
 -28 104 l 0,73,74
 -4 106 -4 106 18 108 c 0,75,76
 40 109 40 109 57 111 c 0,77,78
 77 113 77 113 96 114 c 0,79,80
 115 116 115 116 127 122 c 0,81,82
 139 128 139 128 144 148 c 0,83,-1
 358 1261 l 0,84,85
 363 1278 363 1278 353 1284 c 0,86,87
 343 1290 343 1290 323 1292 c 0,88,89
 304 1293 304 1293 284 1295 c 0,90,91
 267 1297 267 1297 245 1299 c 0,92,93
 223 1301 223 1301 202 1303 c 0,94,-1
 202 1407 l 0,95,-1
 807 1407 l 0,96,97
 912 1407 912 1407 1004 1391 c 0,98,99
 1095 1375 1095 1375 1162 1337 c 0,100,101
 1230 1300 1230 1300 1268 1240 c 0,102,103
 1306 1180 1306 1180 1307 1093 c 0,104,105
 1307 1010 1307 1010 1274 943 c 0,106,107
 1242 876 1242 876 1186 822 c 0,108,109
 1130 769 1130 769 1053 730 c 0,110,111
 976 691 976 691 887 665 c 0,112,113
 947 637 947 637 984 604 c 0,114,115
 1021 571 1021 571 1043 529 c 0,116,117
 1066 488 1066 488 1080 438 c 0,118,119
 1094 388 1094 388 1109 330 c 0,120,121
 1123 275 1123 275 1137 232 c 0,122,123
 1151 190 1151 190 1178 162 c 0,124,125
 1205 133 1205 133 1252 119 c 0,126,127
 1299 105 1299 105 1378 104 c 0,128,-1
 1378 6 l 0,31,32
EndSplineSet
EndChar

StartChar: S
Encoding: 54 83 54
Width: 1179
VWidth: 1024
Flags: W
LayerCount: 2
Fore
SplineSet
1095 1030 m 0,0,-1
 935 1030 l 0,1,-1
 944 1248 l 0,2,3
 944 1253 944 1253 925 1265 c 0,4,5
 906 1276 906 1276 876 1288 c 0,6,7
 846 1300 846 1300 812 1308 c 0,8,9
 778 1317 778 1317 749 1317 c 0,10,11
 708 1317 708 1317 660 1298 c 0,12,13
 613 1280 613 1280 573 1245 c 0,14,15
 533 1210 533 1210 505 1160 c 0,16,17
 478 1110 478 1110 478 1047 c 0,18,19
 478 992 478 992 508 950 c 0,20,21
 538 909 538 909 583 877 c 0,22,23
 628 846 628 846 678 822 c 0,24,25
 729 798 729 798 770 778 c 0,26,27
 826 749 826 749 880 718 c 0,28,29
 934 686 934 686 975 646 c 0,30,31
 1016 606 1016 606 1042 554 c 0,32,33
 1067 502 1067 502 1067 434 c 0,34,35
 1067 386 1067 386 1054 333 c 0,36,37
 1041 280 1041 280 1011 228 c 0,38,39
 981 176 981 176 933 129 c 0,40,41
 885 81 885 81 815 45 c 0,42,43
 745 9 745 9 651 -12 c 0,44,45
 557 -34 557 -34 436 -34 c 0,46,47
 350 -34 350 -34 275 -19 c 0,48,49
 200 -4 200 -4 141 16 c 0,50,51
 82 36 82 36 43 55 c 0,52,53
 4 74 4 74 -10 84 c 0,54,-1
 62 428 l 0,55,-1
 242 428 l 0,56,-1
 218 178 l 0,57,58
 217 172 217 172 246 158 c 0,59,60
 275 144 275 144 314 131 c 0,61,62
 354 117 354 117 397 106 c 0,63,64
 439 96 439 96 466 96 c 0,65,66
 513 96 513 96 565 114 c 0,67,68
 617 132 617 132 661 168 c 0,69,70
 705 204 705 204 733 260 c 0,71,72
 761 315 761 315 761 388 c 0,73,74
 761 439 761 439 730 479 c 0,75,76
 699 519 699 519 654 550 c 0,77,78
 609 581 609 581 559 606 c 0,79,80
 508 631 508 631 470 650 c 0,81,82
 414 679 414 679 361 710 c 0,83,84
 308 741 308 741 267 780 c 0,85,86
 226 818 226 818 201 866 c 0,87,88
 176 914 176 914 176 977 c 0,89,90
 176 1078 176 1078 217 1163 c 0,91,92
 257 1248 257 1248 333 1310 c 0,93,94
 409 1371 409 1371 519 1406 c 0,95,96
 628 1441 628 1441 766 1441 c 0,97,98
 837 1441 837 1441 896 1433 c 0,99,100
 955 1425 955 1425 1005 1413 c 0,101,102
 1055 1401 1055 1401 1095 1386 c 0,103,104
 1135 1371 1135 1371 1166 1357 c 0,105,-1
 1095 1030 l 0,0,-1
EndSplineSet
EndChar

StartChar: T
Encoding: 55 84 55
Width: 1316
VWidth: 1024
Flags: W
LayerCount: 2
Fore
SplineSet
1375 1040 m 0,0,-1
 1212 1040 l 0,1,-1
 1223 1265 l 0,2,3
 1224 1278 1224 1278 1208 1285 c 0,4,5
 1192 1292 1192 1292 1177 1292 c 0,6,-1
 948 1292 l 0,7,-1
 732 146 l 0,8,9
 729 128 729 128 741 123 c 0,10,11
 753 118 753 118 772 116 c 0,12,13
 790 115 790 115 811 113 c 0,14,15
 828 111 828 111 850 109 c 0,16,-1
 893 104 l 0,17,-1
 893 0 l 0,18,-1
 260 0 l 0,19,-1
 260 104 l 0,20,21
 280 106 280 106 301 108 c 0,22,23
 321 109 321 109 338 111 c 0,24,25
 357 113 357 113 376 114 c 0,26,27
 398 116 398 116 413 122 c 0,28,29
 429 128 429 128 432 148 c 0,30,-1
 648 1292 l 0,31,-1
 432 1292 l 0,32,33
 425 1292 425 1292 416 1290 c 0,34,35
 407 1288 407 1288 398 1284 c 0,36,37
 389 1280 389 1280 382 1275 c 0,38,39
 375 1270 375 1270 374 1263 c 0,40,-1
 294 1040 l 0,41,-1
 130 1040 l 0,42,-1
 202 1407 l 0,43,-1
 1451 1407 l 0,44,-1
 1375 1040 l 0,0,-1
EndSplineSet
EndChar

StartChar: U
Encoding: 56 85 56
Width: 1570
VWidth: 1024
Flags: W
LayerCount: 2
Fore
SplineSet
1521 1292 m 0,0,1
 1507 1290 1507 1290 1498 1282 c 0,2,3
 1490 1273 1490 1273 1487 1258 c 0,4,-1
 1325 451 l 0,5,6
 1303 341 1303 341 1257 252 c 0,7,8
 1210 163 1210 163 1134 99 c 0,9,10
 1058 36 1058 36 949 1 c 0,11,12
 840 -34 840 -34 696 -34 c 0,13,14
 579 -34 579 -34 486 -12 c 0,15,16
 393 10 393 10 328 56 c 0,17,18
 263 102 263 102 228 172 c 0,19,20
 193 243 193 243 193 340 c 0,21,22
 193 370 193 370 199 428 c 0,23,24
 206 486 206 486 220 556 c 0,25,-1
 367 1261 l 0,26,27
 370 1279 370 1279 358 1285 c 0,28,29
 347 1291 347 1291 325 1292 c 0,30,31
 308 1293 308 1293 288 1295 c 0,32,33
 271 1297 271 1297 249 1299 c 0,34,35
 228 1301 228 1301 208 1303 c 0,36,-1
 208 1407 l 0,37,-1
 841 1407 l 0,38,-1
 841 1303 l 0,39,40
 816 1301 816 1301 793 1299 c 0,41,42
 770 1297 770 1297 752 1295 c 0,43,44
 730 1293 730 1293 711 1292 c 0,45,46
 693 1290 693 1290 681 1284 c 0,47,48
 670 1277 670 1277 667 1258 c 0,49,-1
 522 556 l 0,50,51
 510 496 510 496 504 447 c 0,52,53
 498 399 498 399 499 371 c 0,54,55
 499 304 499 304 520 257 c 0,56,57
 542 210 542 210 577 180 c 0,58,59
 612 150 612 150 658 137 c 0,60,61
 704 124 704 124 751 124 c 0,62,63
 833 124 833 124 892 154 c 0,64,65
 952 184 952 184 994 238 c 0,66,67
 1036 291 1036 291 1064 365 c 0,68,69
 1092 439 1092 439 1109 524 c 0,70,-1
 1256 1261 l 0,71,72
 1259 1279 1259 1279 1251 1285 c 0,73,74
 1242 1291 1242 1291 1217 1292 c 0,75,76
 1198 1293 1198 1293 1178 1295 c 0,77,78
 1161 1297 1161 1297 1139 1299 c 0,79,80
 1117 1301 1117 1301 1097 1303 c 0,81,-1
 1097 1407 l 0,82,-1
 1659 1407 l 0,83,-1
 1659 1303 l 0,84,-1
 1521 1292 l 0,0,1
EndSplineSet
EndChar

StartChar: V
Encoding: 57 86 57
Width: 1435
VWidth: 1024
Flags: W
LayerCount: 2
Fore
SplineSet
1475 1290 m 0,0,-1
 751 -34 l 0,1,-1
 510 -34 l 0,2,-1
 304 1265 l 0,3,4
 301 1285 301 1285 287 1291 c 0,5,6
 273 1297 273 1297 256 1296 c 0,7,8
 243 1296 243 1296 228 1297 c 0,9,10
 216 1298 216 1298 202 1299 c 0,11,12
 188 1300 188 1300 174 1300 c 0,13,-1
 174 1407 l 0,14,-1
 738 1407 l 0,15,-1
 738 1300 l 0,16,17
 721 1299 721 1299 705 1299 c 0,18,19
 689 1298 689 1298 675 1298 c 0,20,-1
 644 1298 l 0,21,22
 627 1298 627 1298 615 1292 c 0,23,24
 603 1286 603 1286 606 1267 c 0,25,-1
 742 392 l 0,26,-1
 1208 1267 l 0,27,28
 1212 1277 1212 1277 1211 1283 c 0,29,30
 1209 1289 1209 1289 1204 1292 c 0,31,32
 1199 1295 1199 1295 1192 1296 c 0,33,34
 1185 1297 1185 1297 1179 1298 c 0,35,-1
 1145 1298 l 0,36,37
 1130 1298 1130 1298 1111 1299 c 0,38,39
 1092 1300 1092 1300 1074 1300 c 0,40,-1
 1074 1407 l 0,41,-1
 1589 1407 l 0,42,-1
 1589 1303 l 0,43,-1
 1475 1290 l 0,0,-1
EndSplineSet
EndChar

StartChar: W
Encoding: 58 87 58
Width: 2031
VWidth: 1024
Flags: W
LayerCount: 2
Fore
SplineSet
2057 1290 m 0,0,-1
 1426 -34 l 0,1,-1
 1212 -34 l 0,2,-1
 1105 929 l 0,3,-1
 648 -34 l 0,4,-1
 420 -34 l 0,5,-1
 312 1265 l 0,6,7
 310 1285 310 1285 300 1290 c 0,8,9
 289 1295 289 1295 262 1296 c 0,10,11
 249 1296 249 1296 233 1297 c 0,12,13
 220 1298 220 1298 204 1299 c 0,14,15
 188 1300 188 1300 174 1300 c 0,16,-1
 174 1407 l 0,17,-1
 746 1407 l 0,18,-1
 746 1300 l 0,19,20
 728 1299 728 1299 710 1299 c 0,21,22
 692 1298 692 1298 678 1297 c 0,23,24
 661 1296 661 1296 646 1296 c 0,25,26
 633 1296 633 1296 622 1291 c 0,27,28
 611 1286 611 1286 612 1267 c 0,29,-1
 673 526 l 0,30,-1
 1095 1407 l 0,31,-1
 1347 1407 l 0,32,-1
 1439 508 l 0,33,-1
 1793 1267 l 0,34,35
 1797 1277 1797 1277 1796 1283 c 0,36,37
 1795 1289 1795 1289 1789 1292 c 0,38,39
 1783 1295 1783 1295 1775 1296 c 0,40,41
 1766 1297 1766 1297 1753 1298 c 0,42,-1
 1721 1298 l 0,43,44
 1707 1298 1707 1298 1691 1299 c 0,45,46
 1675 1300 1675 1300 1659 1300 c 0,47,-1
 1659 1407 l 0,48,-1
 2185 1407 l 0,49,-1
 2185 1303 l 0,50,-1
 2057 1290 l 0,0,-1
EndSplineSet
EndChar

StartChar: X
Encoding: 59 88 59
Width: 1415
VWidth: 1024
Flags: W
LayerCount: 2
Fore
SplineSet
1380 1292 m 0,0,1
 1357 1290 1357 1290 1347 1282 c 0,2,3
 1336 1273 1336 1273 1331 1267 c 0,4,-1
 872 753 l 0,5,-1
 1147 138 l 0,6,7
 1155 123 1155 123 1164 119 c 0,8,9
 1173 115 1173 115 1185 114 c 0,10,11
 1202 113 1202 113 1221 112 c 0,12,13
 1237 111 1237 111 1258 109 c 0,14,15
 1279 107 1279 107 1303 104 c 0,16,-1
 1303 0 l 0,17,-1
 673 0 l 0,18,-1
 673 104 l 0,19,20
 693 106 693 106 715 108 c 0,21,22
 737 109 737 109 754 111 c 0,23,24
 773 113 773 113 793 114 c 0,25,26
 805 115 805 115 815 116 c 0,27,28
 825 117 825 117 831 120 c 0,29,30
 838 123 838 123 839 129 c 0,31,32
 841 135 841 135 837 144 c 0,33,-1
 675 514 l 0,34,-1
 338 144 l 0,35,36
 330 136 330 136 332 126 c 0,37,38
 335 116 335 116 352 114 c 0,39,-1
 484 104 l 0,40,-1
 484 0 l 0,41,-1
 -92 0 l 0,42,-1
 -92 104 l 0,43,44
 -78 106 -78 106 -62 108 c 0,45,46
 -46 109 -46 109 -34 111 c 0,47,48
 -20 113 -20 113 -6 114 c 0,49,50
 7 115 7 115 16 115 c 0,51,52
 25 116 25 116 33 118 c 0,53,54
 40 121 40 121 46 125 c 0,55,56
 52 130 52 130 60 138 c 0,57,-1
 581 713 l 0,58,-1
 330 1269 l 0,59,60
 322 1286 322 1286 312 1289 c 0,61,62
 302 1292 302 1292 279 1294 c 0,63,64
 263 1294 263 1294 245 1296 c 0,65,66
 231 1297 231 1297 211 1299 c 0,67,68
 192 1301 192 1301 174 1303 c 0,69,-1
 174 1407 l 0,70,-1
 807 1407 l 0,71,-1
 807 1303 l 0,72,73
 781 1301 781 1301 757 1299 c 0,74,75
 733 1297 733 1297 713 1296 c 0,76,77
 689 1295 689 1295 669 1294 c 0,78,79
 655 1294 655 1294 643 1288 c 0,80,81
 632 1281 632 1281 640 1263 c 0,82,-1
 782 942 l 0,83,-1
 1069 1263 l 0,84,85
 1077 1271 1077 1271 1079 1281 c 0,86,87
 1081 1291 1081 1291 1061 1292 c 0,88,-1
 948 1303 l 0,89,-1
 948 1407 l 0,90,-1
 1510 1407 l 0,91,-1
 1510 1303 l 0,92,-1
 1380 1292 l 0,0,1
EndSplineSet
EndChar

StartChar: Y
Encoding: 60 89 60
Width: 1427
VWidth: 1024
Flags: W
LayerCount: 2
Fore
SplineSet
1445 1292 m 0,0,1
 1434 1290 1434 1290 1423 1282 c 0,2,3
 1412 1273 1412 1273 1407 1267 c 0,4,-1
 874 589 l 0,5,-1
 786 146 l 0,6,7
 781 128 781 128 792 123 c 0,8,9
 802 118 802 118 824 116 c 0,10,11
 842 115 842 115 862 113 c 0,12,13
 879 111 879 111 901 109 c 0,14,15
 922 107 922 107 944 104 c 0,16,-1
 944 0 l 0,17,-1
 310 0 l 0,18,-1
 310 104 l 0,19,20
 330 106 330 106 352 109 c 0,21,22
 374 111 374 111 391 113 c 0,23,24
 410 115 410 115 430 116 c 0,25,26
 450 118 450 118 464 123 c 0,27,28
 477 128 477 128 482 148 c 0,29,-1
 568 572 l 0,30,-1
 334 1269 l 0,31,32
 329 1286 329 1286 314 1289 c 0,33,34
 300 1292 300 1292 281 1294 c 0,35,36
 266 1294 266 1294 247 1296 c 0,37,38
 232 1297 232 1297 212 1299 c 0,39,40
 193 1301 193 1301 176 1303 c 0,41,-1
 176 1407 l 0,42,-1
 807 1407 l 0,43,-1
 807 1303 l 0,44,45
 783 1301 783 1301 760 1299 c 0,46,47
 737 1297 737 1297 719 1296 c 0,48,49
 697 1294 697 1294 678 1294 c 0,50,51
 661 1294 661 1294 648 1288 c 0,52,53
 636 1281 636 1281 644 1261 c 0,54,-1
 788 805 l 0,55,-1
 1135 1263 l 0,56,57
 1141 1271 1141 1271 1137 1282 c 0,58,59
 1133 1293 1133 1293 1109 1294 c 0,60,-1
 986 1303 l 0,61,-1
 986 1407 l 0,62,-1
 1579 1407 l 0,63,-1
 1579 1303 l 0,64,-1
 1445 1292 l 0,0,1
EndSplineSet
EndChar

StartChar: Z
Encoding: 61 90 61
Width: 1265
VWidth: 1024
Flags: W
LayerCount: 2
Fore
SplineSet
1317 1303 m 0,0,-1
 340 130 l 0,1,-1
 856 130 l 0,2,3
 871 130 871 130 890 139 c 0,4,5
 909 148 909 148 914 162 c 0,6,-1
 990 434 l 0,7,-1
 1166 434 l 0,8,-1
 1082 0 l 0,9,-1
 -44 0 l 0,10,-1
 -24 102 l 0,11,-1
 950 1277 l 0,12,-1
 514 1277 l 0,13,14
 498 1277 498 1277 479 1270 c 0,15,16
 460 1263 460 1263 455 1248 c 0,17,-1
 388 1025 l 0,18,-1
 212 1025 l 0,19,-1
 288 1407 l 0,20,-1
 1338 1407 l 0,21,-1
 1317 1303 l 0,0,-1
EndSplineSet
EndChar

StartChar: bracketleft
Encoding: 62 91 62
Width: 940
VWidth: 1024
Flags: W
LayerCount: 2
Fore
SplineSet
1019 1359 m 0,0,-1
 698 1359 l 0,1,-1
 396 -156 l 0,2,-1
 719 -156 l 0,3,-1
 694 -276 l 0,4,-1
 114 -276 l 0,5,-1
 462 1485 l 0,6,-1
 1044 1485 l 0,7,-1
 1019 1359 l 0,0,-1
EndSplineSet
EndChar

StartChar: backslash
Encoding: 63 92 63
Width: 1036
VWidth: 1024
Flags: W
LayerCount: 2
Fore
SplineSet
872 -195 m 0,0,-1
 0 1407 l 0,1,-1
 164 1407 l 0,2,-1
 1036 -195 l 0,3,-1
 872 -195 l 0,0,-1
EndSplineSet
EndChar

StartChar: bracketright
Encoding: 64 93 64
Width: 940
VWidth: 1024
Flags: W
LayerCount: 2
Fore
SplineSet
497 -276 m 0,0,-1
 -86 -276 l 0,1,-1
 -60 -156 l 0,2,-1
 262 -156 l 0,3,-1
 562 1359 l 0,4,-1
 239 1359 l 0,5,-1
 264 1485 l 0,6,-1
 845 1485 l 0,7,-1
 497 -276 l 0,0,-1
EndSplineSet
EndChar

StartChar: asciicircum
Encoding: 65 94 65
Width: 712
VWidth: 1024
Flags: W
LayerCount: 2
Fore
SplineSet
791 578 m 0,0,-1
 720 677 l 0,1,-1
 609 578 l 0,2,-1
 522 578 l 0,3,-1
 674 757 l 0,4,-1
 798 757 l 0,5,-1
 879 578 l 0,6,-1
 791 578 l 0,0,-1
EndSplineSet
EndChar

StartChar: underscore
Encoding: 66 95 66
Width: 716
VWidth: 1024
Flags: W
LayerCount: 2
Fore
SplineSet
550 -348 m 0,0,-1
 -167 -348 l 0,1,-1
 -133 -179 l 0,2,-1
 584 -179 l 0,3,-1
 550 -348 l 0,0,-1
EndSplineSet
EndChar

StartChar: grave
Encoding: 67 96 67
Width: 888
VWidth: 1024
Flags: W
LayerCount: 2
Fore
SplineSet
753 578 m 0,0,-1
 583 670 l 0,1,2
 577 673 577 673 573 679 c 0,3,4
 568 684 568 684 565 690 c 0,5,6
 561 696 561 696 559 703 c 0,7,8
 557 709 557 709 557 714 c 0,9,10
 557 723 557 723 560 733 c 0,11,12
 563 743 563 743 570 751 c 0,13,14
 577 759 577 759 589 764 c 0,15,16
 601 769 601 769 617 770 c 0,17,18
 628 770 628 770 636 768 c 0,19,20
 644 766 644 766 652 763 c 0,21,22
 659 759 659 759 666 752 c 0,23,24
 673 746 673 746 683 736 c 0,25,-1
 826 578 l 0,26,-1
 753 578 l 0,0,-1
EndSplineSet
EndChar

StartChar: a
Encoding: 68 97 68
Width: 1189
VWidth: 1024
Flags: W
LayerCount: 2
Fore
SplineSet
1185 62 m 0,0,1
 1149 48 1149 48 1110 33 c 0,2,3
 1071 18 1071 18 1029 5 c 0,4,5
 988 -8 988 -8 947 -17 c 0,6,7
 906 -26 906 -26 866 -26 c 0,8,9
 799 -26 799 -26 755 -1 c 0,10,11
 710 24 710 24 690 70 c 0,12,13
 662 52 662 52 631 34 c 0,14,15
 599 17 599 17 564 4 c 0,16,17
 529 -9 529 -9 493 -17 c 0,18,19
 456 -25 456 -25 418 -26 c 0,20,21
 353 -26 353 -26 302 -8 c 0,22,23
 251 9 251 9 212 39 c 0,24,25
 173 69 173 69 146 108 c 0,26,27
 119 147 119 147 101 189 c 0,28,29
 84 231 84 231 76 275 c 0,30,31
 68 319 68 319 68 358 c 0,32,33
 68 436 68 436 84 518 c 0,34,35
 101 599 101 599 137 676 c 0,36,37
 172 753 172 753 225 821 c 0,38,39
 278 889 278 889 351 940 c 0,40,41
 424 991 424 991 517 1019 c 0,42,43
 610 1048 610 1048 722 1049 c 0,44,45
 768 1049 768 1049 814 1036 c 0,46,47
 860 1024 860 1024 895 1005 c 0,48,-1
 910 1023 l 0,49,-1
 1135 1023 l 0,50,51
 1130 1008 1130 1008 1121 988 c 0,52,53
 1113 969 1113 969 1105 950 c 0,54,55
 1097 932 1097 932 1090 917 c 0,56,57
 1083 902 1083 902 1082 895 c 0,58,-1
 946 204 l 0,59,60
 946 180 946 180 948 164 c 0,61,62
 950 148 950 148 955 138 c 0,63,64
 961 128 961 128 973 124 c 0,65,66
 984 120 984 120 1002 120 c 0,67,68
 1006 120 1006 120 1033 126 c 0,69,70
 1059 132 1059 132 1090 140 c 0,71,72
 1121 148 1121 148 1149 155 c 0,73,74
 1177 162 1177 162 1185 164 c 0,75,-1
 1185 62 l 0,0,1
786 826 m 0,76,77
 787 830 787 830 786 847 c 0,78,79
 784 863 784 863 780 881 c 0,80,81
 775 899 775 899 769 913 c 0,82,83
 762 927 762 927 753 927 c 0,84,85
 685 927 685 927 630 902 c 0,86,87
 575 877 575 877 532 836 c 0,88,89
 488 794 488 794 457 738 c 0,90,91
 425 683 425 683 404 621 c 0,92,93
 383 559 383 559 373 495 c 0,94,95
 363 430 363 430 362 371 c 0,96,97
 362 329 362 329 364 287 c 0,98,99
 366 245 366 245 376 210 c 0,100,101
 387 175 387 175 412 154 c 0,102,103
 437 132 437 132 484 132 c 0,104,105
 518 132 518 132 548 147 c 0,106,107
 578 162 578 162 604 183 c 0,108,109
 629 203 629 203 648 223 c 0,110,111
 667 243 667 243 678 254 c 0,112,113
 685 296 685 296 690 319 c 0,114,115
 695 342 695 342 698 363 c 0,116,117
 702 384 702 384 707 411 c 0,118,119
 712 438 712 438 721 487 c 0,120,121
 731 537 731 537 746 617 c 0,122,123
 761 697 761 697 786 826 c 0,76,77
EndSplineSet
EndChar

StartChar: b
Encoding: 69 98 69
Width: 1116
VWidth: 1024
Flags: W
LayerCount: 2
Fore
SplineSet
1051 652 m 0,0,1
 1051 590 1051 590 1037 515 c 0,2,3
 1024 440 1024 440 993 365 c 0,4,5
 962 290 962 290 914 220 c 0,6,7
 865 150 865 150 795 95 c 0,8,9
 725 40 725 40 631 7 c 0,10,11
 537 -26 537 -26 418 -26 c 0,12,13
 303 -26 303 -26 208 3 c 0,14,15
 113 31 113 31 38 80 c 0,16,-1
 283 1386 l 0,17,-1
 98 1403 l 0,18,-1
 98 1479 l 0,19,-1
 453 1545 l 0,20,-1
 596 1545 l 0,21,-1
 486 981 l 0,22,23
 543 1011 543 1011 604 1030 c 0,24,25
 664 1049 664 1049 719 1049 c 0,26,27
 803 1049 803 1049 865 1011 c 0,28,29
 927 974 927 974 969 916 c 0,30,31
 1010 859 1010 859 1031 788 c 0,32,33
 1051 718 1051 718 1051 652 c 0,0,1
759 644 m 0,34,35
 759 710 759 710 749 756 c 0,36,37
 739 803 739 803 722 833 c 0,38,39
 706 863 706 863 688 876 c 0,40,41
 669 889 669 889 650 889 c 0,42,43
 606 889 606 889 552 861 c 0,44,45
 498 833 498 833 451 793 c 0,46,-1
 334 166 l 0,47,48
 350 139 350 139 381 116 c 0,49,50
 412 92 412 92 462 92 c 0,51,52
 497 92 497 92 532 115 c 0,53,54
 567 138 567 138 600 178 c 0,55,56
 633 217 633 217 662 270 c 0,57,58
 691 323 691 323 713 385 c 0,59,60
 735 446 735 446 746 513 c 0,61,62
 759 578 759 578 759 644 c 0,34,35
EndSplineSet
EndChar

StartChar: c
Encoding: 70 99 70
Width: 1007
VWidth: 1024
Flags: W
LayerCount: 2
Fore
SplineSet
944 893 m 0,0,1
 944 875 944 875 935 847 c 0,2,3
 926 819 926 819 903 794 c 0,4,5
 880 768 880 768 841 750 c 0,6,7
 802 732 802 732 742 732 c 0,8,-1
 627 895 l 0,9,10
 568 882 568 882 524 846 c 0,11,12
 481 810 481 810 452 762 c 0,13,14
 422 714 422 714 403 658 c 0,15,16
 384 603 384 603 374 552 c 0,17,18
 364 501 364 501 360 459 c 0,19,20
 356 418 356 418 356 396 c 0,21,22
 356 348 356 348 360 301 c 0,23,24
 364 253 364 253 379 215 c 0,25,26
 394 177 394 177 423 154 c 0,27,28
 452 130 452 130 504 130 c 0,29,30
 543 130 543 130 583 141 c 0,31,32
 623 152 623 152 669 183 c 0,33,34
 716 214 716 214 772 268 c 0,35,36
 828 322 828 322 898 407 c 0,37,-1
 898 198 l 0,38,39
 855 147 855 147 806 105 c 0,40,41
 757 64 757 64 700 35 c 0,42,43
 643 6 643 6 578 -10 c 0,44,45
 513 -26 513 -26 438 -26 c 0,46,47
 342 -26 342 -26 272 3 c 0,48,49
 202 32 202 32 158 84 c 0,50,51
 113 136 113 136 91 210 c 0,52,53
 69 284 69 284 70 374 c 0,54,55
 70 510 70 510 112 632 c 0,56,57
 154 754 154 754 236 847 c 0,58,59
 317 940 317 940 435 994 c 0,60,61
 552 1048 552 1048 702 1049 c 0,62,63
 764 1049 764 1049 810 1034 c 0,64,65
 856 1019 856 1019 886 996 c 0,66,67
 916 973 916 973 930 946 c 0,68,69
 944 919 944 919 944 893 c 0,0,1
EndSplineSet
EndChar

StartChar: d
Encoding: 71 100 71
Width: 1185
VWidth: 1024
Flags: W
LayerCount: 2
Fore
SplineSet
954 188 m 0,0,1
 949 162 949 162 952 146 c 0,2,3
 955 129 955 129 960 119 c 0,4,5
 966 109 966 109 974 106 c 0,6,7
 982 102 982 102 988 102 c 0,8,9
 1010 102 1010 102 1036 109 c 0,10,11
 1063 116 1063 116 1090 125 c 0,12,13
 1117 135 1117 135 1141 146 c 0,14,15
 1165 157 1165 157 1183 166 c 0,16,-1
 1183 62 l 0,17,18
 1156 47 1156 47 1118 31 c 0,19,20
 1080 15 1080 15 1037 3 c 0,21,22
 994 -10 994 -10 950 -18 c 0,23,24
 905 -26 905 -26 864 -26 c 0,25,26
 784 -26 784 -26 738 1 c 0,27,28
 692 28 692 28 675 76 c 0,29,30
 647 54 647 54 615 36 c 0,31,32
 583 18 583 18 548 4 c 0,33,34
 514 -10 514 -10 479 -18 c 0,35,36
 444 -26 444 -26 411 -26 c 0,37,38
 320 -26 320 -26 254 8 c 0,39,40
 189 42 189 42 148 97 c 0,41,42
 107 152 107 152 87 219 c 0,43,44
 68 287 68 287 68 354 c 0,45,46
 68 434 68 434 85 517 c 0,47,48
 102 600 102 600 138 677 c 0,49,50
 173 754 173 754 226 822 c 0,51,52
 279 890 279 890 349 940 c 0,53,54
 420 990 420 990 508 1019 c 0,55,56
 597 1048 597 1048 702 1049 c 0,57,58
 741 1049 741 1049 773 1039 c 0,59,60
 804 1030 804 1030 824 1023 c 0,61,-1
 887 1386 l 0,62,-1
 698 1403 l 0,63,-1
 698 1479 l 0,64,-1
 1053 1545 l 0,65,-1
 1195 1545 l 0,66,-1
 954 188 l 0,0,1
788 826 m 0,67,68
 789 830 789 830 782 847 c 0,69,70
 775 863 775 863 763 882 c 0,71,72
 751 900 751 900 734 914 c 0,73,74
 717 928 717 928 698 929 c 0,75,76
 643 929 643 929 583 888 c 0,77,78
 523 847 523 847 473 773 c 0,79,80
 422 699 422 699 389 595 c 0,81,82
 356 492 356 492 356 367 c 0,83,84
 356 240 356 240 387 182 c 0,85,86
 418 124 418 124 476 124 c 0,87,88
 503 124 503 124 530 137 c 0,89,90
 557 150 557 150 584 173 c 0,91,92
 611 196 611 196 638 224 c 0,93,94
 665 252 665 252 692 283 c 0,95,-1
 788 826 l 0,67,68
EndSplineSet
EndChar

StartChar: e
Encoding: 72 101 72
Width: 1005
VWidth: 1024
Flags: W
LayerCount: 2
Fore
SplineSet
971 828 m 0,0,1
 971 773 971 773 946 726 c 0,2,3
 921 679 921 679 877 640 c 0,4,5
 833 601 833 601 774 570 c 0,6,7
 715 539 715 539 648 516 c 0,8,9
 581 493 581 493 508 479 c 0,10,11
 436 465 436 465 367 460 c 0,12,13
 365 441 365 441 362 416 c 0,14,15
 360 391 360 391 360 374 c 0,16,17
 360 320 360 320 369 273 c 0,18,19
 377 227 377 227 395 194 c 0,20,21
 413 160 413 160 444 141 c 0,22,23
 474 122 474 122 518 122 c 0,24,25
 552 122 552 122 587 135 c 0,26,27
 622 148 622 148 668 180 c 0,28,29
 714 211 714 211 775 262 c 0,30,31
 836 313 836 313 923 388 c 0,32,-1
 923 188 l 0,33,34
 892 158 892 158 843 121 c 0,35,36
 794 84 794 84 731 51 c 0,37,38
 669 18 669 18 597 -4 c 0,39,40
 525 -26 525 -26 449 -26 c 0,41,42
 380 -26 380 -26 312 -8 c 0,43,44
 244 9 244 9 191 53 c 0,45,46
 137 97 137 97 103 173 c 0,47,48
 69 248 69 248 70 365 c 0,49,50
 70 445 70 445 90 526 c 0,51,52
 110 608 110 608 146 684 c 0,53,54
 183 760 183 760 237 826 c 0,55,56
 290 893 290 893 357 942 c 0,57,58
 424 991 424 991 504 1020 c 0,59,60
 584 1049 584 1049 673 1049 c 0,61,62
 750 1049 750 1049 806 1023 c 0,63,64
 862 997 862 997 899 962 c 0,65,66
 936 927 936 927 953 889 c 0,67,68
 971 852 971 852 971 828 c 0,0,1
698 830 m 0,69,70
 698 848 698 848 696 867 c 0,71,72
 693 885 693 885 686 899 c 0,73,74
 678 913 678 913 663 922 c 0,75,76
 648 931 648 931 625 931 c 0,77,78
 576 931 576 931 537 896 c 0,79,80
 499 861 499 861 469 807 c 0,81,82
 439 753 439 753 418 690 c 0,83,84
 396 626 396 626 382 568 c 0,85,86
 436 580 436 580 493 605 c 0,87,88
 549 630 549 630 594 664 c 0,89,90
 640 698 640 698 669 740 c 0,91,92
 698 782 698 782 698 830 c 0,69,70
EndSplineSet
EndChar

StartChar: f
Encoding: 73 102 73
Width: 757
VWidth: 1024
Flags: W
LayerCount: 2
Fore
SplineSet
1011 1405 m 0,0,1
 1011 1381 1011 1381 1004 1358 c 0,2,3
 997 1335 997 1335 976 1316 c 0,4,5
 956 1297 956 1297 921 1281 c 0,6,7
 886 1266 886 1266 830 1258 c 0,8,-1
 700 1382 l 0,9,10
 657 1344 657 1344 631 1288 c 0,11,12
 605 1232 605 1232 590 1172 c 0,13,14
 575 1112 575 1112 567 1056 c 0,15,16
 560 1000 560 1000 554 963 c 0,17,-1
 810 963 l 0,18,-1
 810 839 l 0,19,-1
 532 839 l 0,20,21
 528 809 528 809 520 750 c 0,22,23
 512 691 512 691 501 616 c 0,24,25
 490 541 490 541 478 457 c 0,26,27
 465 373 465 373 453 295 c 0,28,29
 441 217 441 217 429 152 c 0,30,31
 418 87 418 87 409 50 c 0,32,33
 396 -5 396 -5 371 -66 c 0,34,35
 346 -127 346 -127 311 -186 c 0,36,37
 276 -245 276 -245 233 -298 c 0,38,39
 189 -351 189 -351 138 -392 c 0,40,41
 86 -432 86 -432 27 -456 c 0,42,43
 -32 -480 -32 -480 -98 -480 c 0,44,45
 -143 -480 -143 -480 -176 -464 c 0,46,47
 -209 -448 -209 -448 -230 -426 c 0,48,49
 -252 -403 -252 -403 -262 -378 c 0,50,51
 -272 -352 -272 -352 -272 -334 c 0,52,53
 -272 -292 -272 -292 -246 -250 c 0,54,55
 -219 -208 -219 -208 -176 -178 c 0,56,-1
 12 -298 l 0,57,58
 37 -263 37 -263 57 -217 c 0,59,60
 77 -170 77 -170 95 -114 c 0,61,62
 112 -58 112 -58 126 5 c 0,63,64
 141 68 141 68 154 134 c 0,65,66
 181 279 181 279 201 456 c 0,67,68
 222 632 222 632 252 833 c 0,69,-1
 92 816 l 0,70,-1
 96 914 l 0,71,-1
 276 977 l 0,72,73
 286 1029 286 1029 304 1091 c 0,74,75
 321 1153 321 1153 349 1217 c 0,76,77
 377 1280 377 1280 415 1339 c 0,78,79
 453 1398 453 1398 505 1444 c 0,80,81
 557 1490 557 1490 624 1518 c 0,82,83
 691 1546 691 1546 776 1545 c 0,84,85
 834 1545 834 1545 878 1531 c 0,86,87
 922 1517 922 1517 951 1496 c 0,88,89
 981 1475 981 1475 996 1450 c 0,90,91
 1011 1425 1011 1425 1011 1405 c 0,0,1
EndSplineSet
EndChar

StartChar: g
Encoding: 74 103 74
Width: 1017
VWidth: 1024
Flags: W
LayerCount: 2
Fore
SplineSet
925 874 m 0,0,1
 934 850 934 850 941 817 c 0,2,3
 948 783 948 783 948 744 c 0,4,5
 948 666 948 666 918 593 c 0,6,7
 888 519 888 519 829 462 c 0,8,9
 770 405 770 405 683 370 c 0,10,11
 596 335 596 335 482 334 c 0,12,13
 471 304 471 304 466 274 c 0,14,15
 461 244 461 244 464 226 c 0,16,-1
 742 100 l 0,17,18
 792 78 792 78 834 57 c 0,19,20
 875 35 875 35 904 8 c 0,21,22
 933 -19 933 -19 949 -52 c 0,23,24
 965 -86 965 -86 965 -132 c 0,25,26
 965 -199 965 -199 919 -261 c 0,27,28
 873 -323 873 -323 794 -372 c 0,29,30
 715 -421 715 -421 610 -451 c 0,31,32
 505 -481 505 -481 386 -480 c 0,33,34
 261 -480 261 -480 176 -452 c 0,35,36
 90 -424 90 -424 36 -379 c 0,37,38
 -18 -334 -18 -334 -41 -279 c 0,39,40
 -65 -223 -65 -223 -65 -166 c 0,41,42
 -65 -113 -65 -113 -43 -68 c 0,43,44
 -21 -23 -21 -23 16 14 c 0,45,46
 54 51 54 51 105 79 c 0,47,48
 156 107 156 107 216 128 c 0,49,50
 212 153 212 153 217 184 c 0,51,52
 222 215 222 215 232 247 c 0,53,54
 243 279 243 279 259 309 c 0,55,56
 275 339 275 339 296 360 c 0,57,58
 254 379 254 379 219 405 c 0,59,60
 184 430 184 430 157 462 c 0,61,62
 131 494 131 494 117 534 c 0,63,64
 103 574 103 574 102 623 c 0,65,66
 102 672 102 672 115 722 c 0,67,68
 127 773 127 773 153 820 c 0,69,70
 179 867 179 867 217 909 c 0,71,72
 255 950 255 950 308 982 c 0,73,74
 361 1013 361 1013 427 1031 c 0,75,76
 494 1049 494 1049 574 1049 c 0,77,78
 614 1049 614 1049 651 1043 c 0,79,80
 687 1037 687 1037 718 1029 c 0,81,82
 749 1020 749 1020 773 1011 c 0,83,84
 797 1002 797 1002 812 996 c 0,85,-1
 1118 996 l 0,86,-1
 1118 874 l 0,87,-1
 925 874 l 0,0,1
658 755 m 0,88,89
 658 792 658 792 657 825 c 0,90,91
 656 859 656 859 649 885 c 0,92,93
 641 911 641 911 625 925 c 0,94,95
 609 940 609 940 579 940 c 0,96,97
 562 940 562 940 530 915 c 0,98,99
 499 890 499 890 468 846 c 0,100,101
 437 801 437 801 415 738 c 0,102,103
 392 675 392 675 392 598 c 0,104,105
 392 561 392 561 395 531 c 0,106,107
 398 501 398 501 405 479 c 0,108,109
 413 457 413 457 428 444 c 0,110,111
 443 432 443 432 470 432 c 0,112,113
 522 432 522 432 558 464 c 0,114,115
 594 496 594 496 616 545 c 0,116,117
 638 594 638 594 648 650 c 0,118,119
 658 707 658 707 658 755 c 0,88,89
682 -174 m 0,120,121
 682 -138 682 -138 659 -106 c 0,122,123
 636 -74 636 -74 579 -48 c 0,124,-1
 344 54 l 0,125,126
 309 41 309 41 286 22 c 0,127,128
 262 3 262 3 247 -22 c 0,129,130
 232 -46 232 -46 226 -74 c 0,131,132
 220 -102 220 -102 220 -130 c 0,133,134
 220 -164 220 -164 230 -204 c 0,135,136
 240 -244 240 -244 266 -280 c 0,137,138
 291 -315 291 -315 333 -339 c 0,139,140
 375 -363 375 -363 440 -362 c 0,141,142
 512 -362 512 -362 559 -342 c 0,143,144
 606 -322 606 -322 633 -292 c 0,145,146
 661 -263 661 -263 671 -231 c 0,147,148
 682 -199 682 -199 682 -174 c 0,120,121
EndSplineSet
EndChar

StartChar: h
Encoding: 75 104 75
Width: 1183
VWidth: 1024
Flags: W
LayerCount: 2
Fore
SplineSet
1181 58 m 0,0,1
 1102 20 1102 20 1021 -3 c 0,2,3
 941 -26 941 -26 858 -26 c 0,4,5
 821 -26 821 -26 783 -18 c 0,6,7
 745 -10 745 -10 715 7 c 0,8,9
 685 24 685 24 670 53 c 0,10,11
 655 81 655 81 663 122 c 0,12,-1
 788 732 l 0,13,14
 796 770 796 770 792 799 c 0,15,16
 787 828 787 828 776 848 c 0,17,18
 765 868 765 868 749 879 c 0,19,20
 733 889 733 889 717 889 c 0,21,22
 693 889 693 889 664 877 c 0,23,24
 634 865 634 865 601 844 c 0,25,26
 568 823 568 823 534 795 c 0,27,28
 500 767 500 767 468 734 c 0,29,-1
 314 0 l 0,30,-1
 36 0 l 0,31,-1
 325 1386 l 0,32,-1
 140 1403 l 0,33,-1
 140 1479 l 0,34,-1
 495 1545 l 0,35,-1
 640 1545 l 0,36,-1
 514 952 l 0,37,38
 577 991 577 991 658 1020 c 0,39,40
 739 1049 739 1049 833 1049 c 0,41,42
 912 1049 912 1049 964 1027 c 0,43,44
 1016 1005 1016 1005 1045 967 c 0,45,46
 1074 928 1074 928 1081 873 c 0,47,48
 1088 818 1088 818 1074 753 c 0,49,-1
 956 198 l 0,50,51
 951 171 951 171 955 154 c 0,52,53
 959 137 959 137 967 125 c 0,54,55
 975 114 975 114 985 109 c 0,56,57
 995 104 995 104 1005 104 c 0,58,59
 1051 104 1051 104 1091 121 c 0,60,61
 1131 137 1131 137 1179 164 c 0,62,-1
 1181 58 l 0,0,1
EndSplineSet
EndChar

StartChar: i
Encoding: 76 105 76
Width: 649
VWidth: 1024
Flags: W
LayerCount: 2
Fore
SplineSet
618 1391 m 0,0,1
 618 1357 618 1357 606 1327 c 0,2,3
 593 1297 593 1297 570 1275 c 0,4,5
 547 1252 547 1252 518 1240 c 0,6,7
 488 1227 488 1227 455 1227 c 0,8,9
 421 1227 421 1227 392 1240 c 0,10,11
 363 1253 363 1253 340 1275 c 0,12,13
 318 1298 318 1298 306 1327 c 0,14,15
 294 1357 294 1357 294 1391 c 0,16,17
 294 1425 294 1425 306 1454 c 0,18,19
 318 1484 318 1484 340 1505 c 0,20,21
 362 1527 362 1527 392 1540 c 0,22,23
 421 1553 421 1553 455 1552 c 0,24,25
 489 1552 489 1552 518 1540 c 0,26,27
 548 1527 548 1527 570 1505 c 0,28,29
 593 1483 593 1483 606 1454 c 0,30,31
 618 1425 618 1425 618 1391 c 0,0,1
646 68 m 0,32,33
 552 17 552 17 467 -5 c 0,34,35
 382 -26 382 -26 292 -26 c 0,36,37
 235 -26 235 -26 195 -6 c 0,38,39
 156 13 156 13 133 44 c 0,40,41
 110 75 110 75 103 113 c 0,42,43
 96 151 96 151 104 190 c 0,44,-1
 237 887 l 0,45,-1
 56 906 l 0,46,-1
 56 979 l 0,47,-1
 402 1049 l 0,48,-1
 550 1049 l 0,49,-1
 388 208 l 0,50,51
 384 190 384 190 383 172 c 0,52,53
 382 155 382 155 386 141 c 0,54,55
 390 128 390 128 399 120 c 0,56,57
 409 112 409 112 428 112 c 0,58,59
 436 112 436 112 460 117 c 0,60,61
 484 122 484 122 516 131 c 0,62,63
 548 140 548 140 582 154 c 0,64,65
 616 167 616 167 646 182 c 0,66,-1
 646 68 l 0,32,33
EndSplineSet
EndChar

StartChar: j
Encoding: 77 106 77
Width: 665
VWidth: 1024
Flags: W
LayerCount: 2
Fore
SplineSet
652 1391 m 0,0,1
 652 1357 652 1357 639 1327 c 0,2,3
 626 1297 626 1297 603 1275 c 0,4,5
 580 1252 580 1252 550 1240 c 0,6,7
 520 1227 520 1227 486 1227 c 0,8,9
 452 1227 452 1227 423 1240 c 0,10,11
 393 1253 393 1253 372 1275 c 0,12,13
 350 1298 350 1298 337 1327 c 0,14,15
 324 1357 324 1357 325 1391 c 0,16,17
 325 1425 325 1425 337 1454 c 0,18,19
 350 1484 350 1484 372 1505 c 0,20,21
 394 1527 394 1527 423 1540 c 0,22,23
 453 1553 453 1553 486 1552 c 0,24,25
 520 1552 520 1552 550 1540 c 0,26,27
 580 1527 580 1527 603 1505 c 0,28,29
 626 1483 626 1483 639 1454 c 0,30,31
 652 1425 652 1425 652 1391 c 0,0,1
428 176 m 0,32,33
 419 123 419 123 397 54 c 0,34,35
 375 -15 375 -15 342 -88 c 0,36,37
 309 -161 309 -161 264 -231 c 0,38,39
 220 -302 220 -302 166 -357 c 0,40,41
 112 -412 112 -412 48 -446 c 0,42,43
 -15 -480 -15 -480 -88 -480 c 0,44,45
 -125 -480 -125 -480 -158 -471 c 0,46,47
 -191 -462 -191 -462 -216 -445 c 0,48,49
 -241 -429 -241 -429 -255 -407 c 0,50,51
 -270 -385 -270 -385 -270 -358 c 0,52,53
 -270 -339 -270 -339 -264 -323 c 0,54,55
 -257 -307 -257 -307 -245 -294 c 0,56,57
 -233 -281 -233 -281 -218 -269 c 0,58,59
 -203 -257 -203 -257 -184 -246 c 0,60,-1
 14 -298 l 0,61,62
 28 -275 28 -275 44 -243 c 0,63,64
 59 -210 59 -210 72 -172 c 0,65,66
 86 -134 86 -134 97 -92 c 0,67,68
 108 -51 108 -51 116 -12 c 0,69,-1
 270 885 l 0,70,-1
 90 904 l 0,71,-1
 90 979 l 0,72,-1
 438 1049 l 0,73,-1
 577 1049 l 0,74,-1
 428 176 l 0,32,33
EndSplineSet
EndChar

StartChar: k
Encoding: 78 107 78
Width: 1153
VWidth: 1024
Flags: W
LayerCount: 2
Fore
SplineSet
1128 54 m 0,0,1
 1101 41 1101 41 1065 27 c 0,2,3
 1028 13 1028 13 987 1 c 0,4,5
 946 -10 946 -10 904 -18 c 0,6,7
 862 -26 862 -26 826 -26 c 0,8,9
 797 -26 797 -26 768 -15 c 0,10,11
 738 -5 738 -5 711 11 c 0,12,13
 683 27 683 27 660 48 c 0,14,15
 637 68 637 68 623 90 c 0,16,17
 606 117 606 117 581 164 c 0,18,19
 557 211 557 211 531 265 c 0,20,21
 505 319 505 319 481 373 c 0,22,23
 456 427 456 427 436 470 c 0,24,-1
 392 430 l 0,25,-1
 304 0 l 0,26,-1
 26 0 l 0,27,-1
 306 1386 l 0,28,-1
 122 1403 l 0,29,-1
 122 1479 l 0,30,-1
 476 1545 l 0,31,-1
 618 1545 l 0,32,-1
 442 684 l 0,33,-1
 678 925 l 0,34,35
 743 993 743 993 800 1020 c 0,36,37
 857 1048 857 1048 919 1049 c 0,38,39
 957 1049 957 1049 989 1038 c 0,40,41
 1022 1027 1022 1027 1046 1009 c 0,42,43
 1070 991 1070 991 1083 970 c 0,44,45
 1096 948 1096 948 1097 927 c 0,46,47
 1097 909 1097 909 1092 882 c 0,48,49
 1087 855 1087 855 1070 827 c 0,50,51
 1053 799 1053 799 1018 772 c 0,52,53
 983 745 983 745 923 724 c 0,54,-1
 839 860 l 0,55,56
 814 838 814 838 785 812 c 0,57,58
 756 785 756 785 729 757 c 0,59,60
 701 730 701 730 674 705 c 0,61,62
 648 680 648 680 629 663 c 0,63,64
 643 636 643 636 660 595 c 0,65,66
 677 554 677 554 696 507 c 0,67,68
 715 460 715 460 736 411 c 0,69,70
 757 362 757 362 780 318 c 0,71,72
 803 277 803 277 823 240 c 0,73,74
 843 202 843 202 864 172 c 0,75,76
 884 142 884 142 907 124 c 0,77,78
 930 106 930 106 956 106 c 0,79,80
 958 106 958 106 999 118 c 0,81,82
 1039 130 1039 130 1128 166 c 0,83,-1
 1128 54 l 0,0,1
EndSplineSet
EndChar

StartChar: l
Encoding: 79 108 79
Width: 641
VWidth: 1024
Flags: W
LayerCount: 2
Fore
SplineSet
638 60 m 0,0,1
 561 21 561 21 473 -2 c 0,2,3
 384 -26 384 -26 302 -26 c 0,4,5
 198 -26 198 -26 140 18 c 0,6,7
 82 62 82 62 82 134 c 0,8,9
 82 151 82 151 83 170 c 0,10,11
 85 189 85 189 90 210 c 0,12,-1
 318 1386 l 0,13,-1
 134 1403 l 0,14,-1
 134 1479 l 0,15,-1
 488 1545 l 0,16,-1
 627 1545 l 0,17,-1
 369 214 l 0,18,19
 366 196 366 196 366 178 c 0,20,21
 367 160 367 160 373 145 c 0,22,23
 379 130 379 130 391 121 c 0,24,25
 403 112 403 112 424 112 c 0,26,27
 449 112 449 112 506 126 c 0,28,29
 563 141 563 141 638 174 c 0,30,-1
 638 60 l 0,0,1
EndSplineSet
EndChar

StartChar: m
Encoding: 80 109 80
Width: 1732
VWidth: 1024
Flags: W
LayerCount: 2
Fore
SplineSet
1726 60 m 0,0,1
 1646 19 1646 19 1572 -3 c 0,2,3
 1498 -26 1498 -26 1417 -26 c 0,4,5
 1369 -26 1369 -26 1328 -16 c 0,6,7
 1287 -6 1287 -6 1256 14 c 0,8,9
 1226 34 1226 34 1212 62 c 0,10,11
 1198 91 1198 91 1206 130 c 0,12,-1
 1321 688 l 0,13,14
 1363 885 1363 885 1281 885 c 0,15,16
 1235 885 1235 885 1194 865 c 0,17,18
 1154 845 1154 845 1123 817 c 0,19,20
 1092 789 1092 789 1069 761 c 0,21,22
 1046 732 1046 732 1036 715 c 0,23,-1
 885 0 l 0,24,-1
 608 0 l 0,25,-1
 753 690 l 0,26,27
 759 721 759 721 764 755 c 0,28,29
 770 789 770 789 767 818 c 0,30,31
 764 847 764 847 751 866 c 0,32,33
 737 885 737 885 702 885 c 0,34,35
 669 885 669 885 636 867 c 0,36,37
 602 849 602 849 571 822 c 0,38,39
 540 795 540 795 514 765 c 0,40,41
 487 735 487 735 466 711 c 0,42,-1
 316 0 l 0,43,-1
 38 0 l 0,44,-1
 222 891 l 0,45,-1
 46 908 l 0,46,-1
 46 979 l 0,47,-1
 392 1049 l 0,48,-1
 537 1049 l 0,49,-1
 512 929 l 0,50,51
 588 981 588 981 668 1015 c 0,52,53
 748 1049 748 1049 820 1049 c 0,54,55
 863 1049 863 1049 898 1036 c 0,56,57
 932 1024 932 1024 958 1004 c 0,58,59
 985 984 985 984 1004 958 c 0,60,61
 1022 932 1022 932 1034 906 c 0,62,63
 1075 937 1075 937 1121 963 c 0,64,65
 1167 989 1167 989 1214 1008 c 0,66,67
 1261 1027 1261 1027 1308 1038 c 0,68,69
 1354 1049 1354 1049 1395 1049 c 0,70,71
 1450 1049 1450 1049 1497 1029 c 0,72,73
 1544 1010 1544 1010 1576 974 c 0,74,75
 1608 938 1608 938 1620 887 c 0,76,77
 1632 836 1632 836 1619 774 c 0,78,-1
 1499 210 l 0,79,80
 1490 165 1490 165 1501 135 c 0,81,82
 1512 105 1512 105 1552 104 c 0,83,84
 1562 104 1562 104 1583 109 c 0,85,86
 1603 113 1603 113 1628 120 c 0,87,88
 1653 127 1653 127 1678 137 c 0,89,90
 1704 147 1704 147 1726 158 c 0,91,-1
 1726 60 l 0,0,1
EndSplineSet
EndChar

StartChar: n
Encoding: 81 110 81
Width: 1212
VWidth: 1024
Flags: W
LayerCount: 2
Fore
SplineSet
1204 48 m 0,0,1
 1176 35 1176 35 1136 22 c 0,2,3
 1095 9 1095 9 1049 -2 c 0,4,5
 1003 -12 1003 -12 958 -19 c 0,6,7
 912 -26 912 -26 877 -26 c 0,8,9
 842 -26 842 -26 801 -20 c 0,10,11
 761 -15 761 -15 728 -1 c 0,12,13
 695 13 695 13 675 39 c 0,14,15
 656 65 656 65 665 106 c 0,16,-1
 793 746 l 0,17,18
 801 784 801 784 800 810 c 0,19,20
 799 836 799 836 792 853 c 0,21,22
 784 869 784 869 772 876 c 0,23,24
 759 883 759 883 742 883 c 0,25,26
 717 883 717 883 686 868 c 0,27,28
 654 854 654 854 619 830 c 0,29,30
 584 806 584 806 547 776 c 0,31,32
 511 745 511 745 478 711 c 0,33,-1
 330 0 l 0,34,-1
 50 0 l 0,35,-1
 234 891 l 0,36,-1
 58 908 l 0,37,-1
 58 979 l 0,38,-1
 402 1049 l 0,39,-1
 548 1049 l 0,40,-1
 522 927 l 0,41,42
 560 953 560 953 603 975 c 0,43,44
 645 998 645 998 689 1014 c 0,45,46
 733 1030 733 1030 776 1039 c 0,47,48
 820 1048 820 1048 860 1049 c 0,49,50
 938 1049 938 1049 989 1031 c 0,51,52
 1040 1013 1040 1013 1065 978 c 0,53,54
 1091 943 1091 943 1096 892 c 0,55,56
 1101 841 1101 841 1089 774 c 0,57,-1
 975 184 l 0,58,59
 970 158 970 158 974 143 c 0,60,61
 979 127 979 127 988 118 c 0,62,63
 997 109 997 109 1007 105 c 0,64,65
 1017 102 1017 102 1025 102 c 0,66,67
 1058 102 1058 102 1105 115 c 0,68,69
 1152 128 1152 128 1199 148 c 0,70,-1
 1204 48 l 0,0,1
EndSplineSet
EndChar

StartChar: o
Encoding: 82 111 82
Width: 1159
VWidth: 1024
Flags: W
LayerCount: 2
Fore
SplineSet
1095 636 m 0,0,1
 1095 553 1095 553 1076 472 c 0,2,3
 1058 391 1058 391 1022 318 c 0,4,5
 986 245 986 245 934 182 c 0,6,7
 882 119 882 119 814 73 c 0,8,9
 746 27 746 27 664 1 c 0,10,11
 582 -25 582 -25 486 -26 c 0,12,13
 378 -26 378 -26 300 5 c 0,14,15
 221 36 221 36 169 90 c 0,16,17
 117 144 117 144 93 218 c 0,18,19
 68 292 68 292 68 380 c 0,20,21
 68 462 68 462 86 543 c 0,22,23
 104 624 104 624 138 699 c 0,24,25
 172 774 172 774 223 838 c 0,26,27
 274 901 274 901 342 948 c 0,28,29
 409 995 409 995 491 1022 c 0,30,31
 573 1049 573 1049 671 1049 c 0,32,33
 767 1049 767 1049 845 1022 c 0,34,35
 923 996 923 996 979 945 c 0,36,37
 1034 893 1034 893 1064 816 c 0,38,39
 1095 738 1095 738 1095 636 c 0,0,1
793 644 m 0,40,41
 793 721 793 721 777 776 c 0,42,43
 762 831 762 831 740 867 c 0,44,45
 718 903 718 903 693 920 c 0,46,47
 668 937 668 937 648 937 c 0,48,49
 616 937 616 937 583 916 c 0,50,51
 550 895 550 895 519 858 c 0,52,53
 488 821 488 821 460 769 c 0,54,55
 432 717 432 717 411 656 c 0,56,57
 390 595 390 595 378 527 c 0,58,59
 366 459 366 459 367 388 c 0,60,61
 367 307 367 307 382 250 c 0,62,63
 398 193 398 193 421 158 c 0,64,65
 444 123 444 123 469 106 c 0,66,67
 494 90 494 90 512 90 c 0,68,69
 567 90 567 90 618 140 c 0,70,71
 669 190 669 190 708 270 c 0,72,73
 747 350 747 350 770 449 c 0,74,75
 793 547 793 547 793 644 c 0,40,41
EndSplineSet
EndChar

StartChar: p
Encoding: 83 112 83
Width: 1134
VWidth: 1024
Flags: W
LayerCount: 2
Fore
SplineSet
1067 652 m 0,0,1
 1067 568 1067 568 1047 485 c 0,2,3
 1027 402 1027 402 988 327 c 0,4,5
 950 252 950 252 893 187 c 0,6,7
 837 122 837 122 765 76 c 0,8,9
 693 29 693 29 606 2 c 0,10,11
 519 -25 519 -25 420 -26 c 0,12,13
 381 -26 381 -26 352 -20 c 0,14,15
 323 -14 323 -14 302 -8 c 0,16,-1
 239 -318 l 0,17,18
 236 -332 236 -332 244 -343 c 0,19,20
 253 -353 253 -353 270 -352 c 0,21,22
 284 -353 284 -353 306 -355 c 0,23,24
 324 -357 324 -357 352 -359 c 0,25,26
 379 -361 379 -361 416 -365 c 0,27,-1
 416 -460 l 0,28,-1
 -202 -460 l 0,29,-1
 -202 -365 l 0,30,31
 -186 -363 -186 -363 -163 -361 c 0,32,33
 -141 -360 -141 -360 -122 -358 c 0,34,35
 -99 -356 -99 -356 -76 -354 c 0,36,37
 -60 -352 -60 -352 -51 -343 c 0,38,39
 -43 -333 -43 -333 -40 -318 c 0,40,-1
 198 889 l 0,41,-1
 24 908 l 0,42,-1
 24 979 l 0,43,-1
 369 1049 l 0,44,-1
 510 1049 l 0,45,-1
 495 971 l 0,46,47
 511 980 511 980 537 993 c 0,48,49
 563 1006 563 1006 596 1019 c 0,50,51
 629 1031 629 1031 667 1040 c 0,52,53
 705 1049 705 1049 746 1049 c 0,54,55
 829 1049 829 1049 890 1013 c 0,56,57
 950 978 950 978 990 922 c 0,58,59
 1029 866 1029 866 1048 795 c 0,60,61
 1067 724 1067 724 1067 652 c 0,0,1
774 644 m 0,62,63
 774 688 774 688 770 734 c 0,64,65
 766 780 766 780 753 817 c 0,66,67
 740 854 740 854 714 878 c 0,68,69
 689 902 689 902 648 902 c 0,70,71
 625 902 625 902 600 890 c 0,72,73
 574 878 574 878 547 860 c 0,74,75
 521 842 521 842 498 822 c 0,76,77
 475 803 475 803 460 788 c 0,78,-1
 332 142 l 0,79,80
 344 134 344 134 360 124 c 0,81,82
 376 114 376 114 394 106 c 0,83,84
 411 98 411 98 429 92 c 0,85,86
 446 86 446 86 460 86 c 0,87,88
 504 86 504 86 544 110 c 0,89,90
 584 134 584 134 620 176 c 0,91,92
 655 218 655 218 683 273 c 0,93,94
 712 328 712 328 732 390 c 0,95,96
 752 452 752 452 763 518 c 0,97,98
 774 583 774 583 774 644 c 0,62,63
EndSplineSet
EndChar

StartChar: q
Encoding: 84 113 84
Width: 1193
VWidth: 1024
Flags: W
LayerCount: 2
Fore
SplineSet
856 -318 m 0,0,1
 852 -332 852 -332 857 -343 c 0,2,3
 862 -353 862 -353 879 -352 c 0,4,5
 896 -353 896 -353 919 -355 c 0,6,7
 938 -357 938 -357 966 -359 c 0,8,9
 994 -361 994 -361 1030 -365 c 0,10,-1
 1030 -460 l 0,11,-1
 413 -460 l 0,12,-1
 413 -365 l 0,13,14
 427 -364 427 -364 449 -361 c 0,15,16
 471 -359 471 -359 490 -357 c 0,17,18
 515 -354 515 -354 541 -352 c 0,19,20
 571 -349 571 -349 577 -318 c 0,21,-1
 650 46 l 0,22,23
 587 10 587 10 524 -10 c 0,24,25
 462 -30 462 -30 404 -30 c 0,26,27
 320 -30 320 -30 258 -3 c 0,28,29
 196 24 196 24 154 74 c 0,30,31
 113 124 113 124 92 196 c 0,32,33
 72 268 72 268 72 358 c 0,34,35
 72 437 72 437 90 519 c 0,36,37
 108 600 108 600 145 677 c 0,38,39
 182 754 182 754 236 821 c 0,40,41
 290 889 290 889 361 940 c 0,42,43
 432 991 432 991 519 1019 c 0,44,45
 606 1048 606 1048 709 1049 c 0,46,47
 761 1049 761 1049 808 1038 c 0,48,49
 855 1027 855 1027 891 1011 c 0,50,-1
 925 1049 l 0,51,-1
 1128 1049 l 0,52,-1
 856 -318 l 0,0,1
803 818 m 0,53,54
 806 828 806 828 800 848 c 0,55,56
 794 867 794 867 783 886 c 0,57,58
 773 905 773 905 760 919 c 0,59,60
 747 933 747 933 736 933 c 0,61,62
 669 933 669 933 602 891 c 0,63,64
 534 850 534 850 480 776 c 0,65,66
 426 702 426 702 392 597 c 0,67,68
 358 493 358 493 358 367 c 0,69,70
 358 311 358 311 365 264 c 0,71,72
 371 218 371 218 385 186 c 0,73,74
 399 154 399 154 424 136 c 0,75,76
 449 118 449 118 488 118 c 0,77,78
 520 118 520 118 547 130 c 0,79,80
 574 142 574 142 599 161 c 0,81,82
 623 179 623 179 645 201 c 0,83,84
 667 223 667 223 688 242 c 0,85,-1
 803 818 l 0,53,54
EndSplineSet
EndChar

StartChar: r
Encoding: 85 114 85
Width: 878
VWidth: 1024
Flags: W
LayerCount: 2
Fore
SplineSet
956 900 m 0,0,1
 956 827 956 827 910 791 c 0,2,3
 864 755 864 755 757 755 c 0,4,-1
 700 868 l 0,5,6
 651 843 651 843 607 809 c 0,7,8
 562 775 562 775 527 734 c 0,9,10
 492 693 492 693 468 647 c 0,11,12
 443 601 443 601 434 554 c 0,13,-1
 316 0 l 0,14,-1
 38 0 l 0,15,-1
 222 887 l 0,16,-1
 46 906 l 0,17,-1
 46 979 l 0,18,-1
 394 1049 l 0,19,-1
 539 1049 l 0,20,-1
 512 908 l 0,21,22
 540 937 540 937 573 963 c 0,23,24
 606 989 606 989 643 1008 c 0,25,26
 680 1027 680 1027 719 1038 c 0,27,28
 758 1049 758 1049 797 1049 c 0,29,30
 838 1049 838 1049 868 1034 c 0,31,32
 898 1019 898 1019 918 997 c 0,33,34
 937 975 937 975 947 949 c 0,35,36
 956 923 956 923 956 900 c 0,0,1
EndSplineSet
EndChar

StartChar: s
Encoding: 86 115 86
Width: 870
VWidth: 1024
Flags: W
LayerCount: 2
Fore
SplineSet
826 887 m 0,0,1
 826 816 826 816 786 782 c 0,2,3
 746 748 746 748 650 742 c 0,4,-1
 543 925 l 0,5,6
 536 927 536 927 527 929 c 0,7,8
 520 931 520 931 510 932 c 0,9,10
 500 933 500 933 488 933 c 0,11,12
 456 933 456 933 439 920 c 0,13,14
 422 907 422 907 413 888 c 0,15,16
 404 869 404 869 402 845 c 0,17,18
 400 822 400 822 400 803 c 0,19,20
 400 770 400 770 417 739 c 0,21,22
 433 708 433 708 460 679 c 0,23,24
 487 650 487 650 520 622 c 0,25,26
 553 594 553 594 587 568 c 0,27,28
 623 540 623 540 656 511 c 0,29,30
 689 482 689 482 715 450 c 0,31,32
 741 418 741 418 757 383 c 0,33,34
 772 348 772 348 772 310 c 0,35,36
 772 250 772 250 743 189 c 0,37,38
 714 129 714 129 656 81 c 0,39,40
 598 33 598 33 510 4 c 0,41,42
 422 -26 422 -26 304 -26 c 0,43,44
 221 -26 221 -26 161 -9 c 0,45,46
 101 8 101 8 62 36 c 0,47,48
 23 64 23 64 5 100 c 0,49,50
 -14 136 -14 136 -14 174 c 0,51,52
 -14 202 -14 202 -4 227 c 0,53,54
 6 253 6 253 23 273 c 0,55,56
 40 293 40 293 60 305 c 0,57,58
 80 317 80 317 102 316 c 0,59,60
 148 316 148 316 180 303 c 0,61,62
 212 289 212 289 232 266 c 0,63,-1
 195 142 l 0,64,65
 206 127 206 127 226 115 c 0,66,67
 246 103 246 103 271 94 c 0,68,69
 295 86 295 86 320 82 c 0,70,71
 345 78 345 78 367 78 c 0,72,73
 430 78 430 78 461 121 c 0,74,75
 492 165 492 165 493 239 c 0,76,77
 493 271 493 271 480 298 c 0,78,79
 468 326 468 326 445 353 c 0,80,81
 422 380 422 380 391 406 c 0,82,83
 359 432 359 432 321 462 c 0,84,85
 288 487 288 487 257 516 c 0,86,87
 226 546 226 546 201 579 c 0,88,89
 176 612 176 612 161 649 c 0,90,91
 146 686 146 686 146 726 c 0,92,93
 146 800 146 800 181 859 c 0,94,95
 216 918 216 918 274 961 c 0,96,97
 332 1003 332 1003 410 1026 c 0,98,99
 487 1049 487 1049 570 1049 c 0,100,101
 636 1049 636 1049 684 1031 c 0,102,103
 732 1013 732 1013 764 988 c 0,104,105
 796 963 796 963 811 934 c 0,106,107
 826 906 826 906 826 887 c 0,0,1
EndSplineSet
EndChar

StartChar: t
Encoding: 87 116 87
Width: 720
VWidth: 1024
Flags: W
LayerCount: 2
Fore
SplineSet
512 877 m 0,0,-1
 380 228 l 0,1,2
 369 179 369 179 391 150 c 0,3,4
 413 120 413 120 462 120 c 0,5,6
 487 120 487 120 521 128 c 0,7,8
 555 136 555 136 592 147 c 0,9,10
 629 158 629 158 664 172 c 0,11,12
 699 185 699 185 724 193 c 0,13,-1
 724 78 l 0,14,15
 707 70 707 70 663 53 c 0,16,17
 619 36 619 36 562 18 c 0,18,19
 506 1 506 1 445 -12 c 0,20,21
 385 -25 385 -25 336 -26 c 0,22,23
 276 -26 276 -26 230 -11 c 0,24,25
 185 3 185 3 156 28 c 0,26,27
 126 53 126 53 111 88 c 0,28,29
 96 123 96 123 96 164 c 0,30,31
 96 184 96 184 98 205 c 0,32,33
 100 225 100 225 104 248 c 0,34,-1
 232 872 l 0,35,-1
 82 856 l 0,36,-1
 82 942 l 0,37,-1
 260 1013 l 0,38,-1
 367 1229 l 0,39,-1
 577 1229 l 0,40,-1
 532 992 l 0,41,-1
 824 992 l 0,42,-1
 824 877 l 0,43,-1
 512 877 l 0,0,-1
EndSplineSet
EndChar

StartChar: u
Encoding: 88 117 88
Width: 1204
VWidth: 1024
Flags: W
LayerCount: 2
Fore
SplineSet
1199 58 m 0,0,1
 1177 47 1177 47 1140 32 c 0,2,3
 1103 17 1103 17 1057 5 c 0,4,5
 1011 -8 1011 -8 963 -17 c 0,6,7
 914 -26 914 -26 868 -26 c 0,8,9
 814 -26 814 -26 780 -14 c 0,10,11
 746 -3 746 -3 728 13 c 0,12,13
 709 29 709 29 700 46 c 0,14,15
 692 63 692 63 690 74 c 0,16,17
 620 26 620 26 540 0 c 0,18,19
 459 -26 459 -26 356 -26 c 0,20,21
 278 -26 278 -26 225 1 c 0,22,23
 171 28 171 28 140 68 c 0,24,25
 109 108 109 108 99 155 c 0,26,27
 89 203 89 203 98 246 c 0,28,-1
 234 889 l 0,29,-1
 58 908 l 0,30,-1
 58 979 l 0,31,-1
 404 1049 l 0,32,-1
 550 1049 l 0,33,-1
 378 246 l 0,34,35
 373 221 373 221 375 199 c 0,36,37
 378 176 378 176 387 159 c 0,38,39
 396 142 396 142 412 132 c 0,40,41
 427 122 427 122 446 122 c 0,42,43
 481 122 481 122 515 132 c 0,44,45
 548 142 548 142 579 159 c 0,46,47
 610 176 610 176 640 199 c 0,48,49
 670 222 670 222 698 248 c 0,50,-1
 862 1023 l 0,51,-1
 1141 1023 l 0,52,-1
 969 210 l 0,53,54
 957 152 957 152 973 126 c 0,55,56
 990 100 990 100 1023 100 c 0,57,58
 1031 100 1031 100 1042 103 c 0,59,60
 1053 106 1053 106 1072 113 c 0,61,62
 1091 121 1091 121 1121 136 c 0,63,64
 1151 151 1151 151 1199 176 c 0,65,-1
 1199 58 l 0,0,1
EndSplineSet
EndChar

StartChar: v
Encoding: 89 118 89
Width: 1067
VWidth: 1024
Flags: W
LayerCount: 2
Fore
SplineSet
1078 914 m 0,0,1
 1078 887 1078 887 1073 863 c 0,2,3
 1068 838 1068 838 1061 818 c 0,4,5
 1054 798 1054 798 1046 782 c 0,6,7
 1038 766 1038 766 1032 757 c 0,8,9
 961 628 961 628 881 510 c 0,10,11
 800 393 800 393 720 293 c 0,12,13
 641 193 641 193 570 112 c 0,14,15
 499 31 499 31 449 -26 c 0,16,-1
 244 -26 l 0,17,18
 271 28 271 28 282 69 c 0,19,20
 294 109 294 109 292 144 c 0,21,22
 292 147 292 147 290 176 c 0,23,24
 288 204 288 204 284 248 c 0,25,26
 280 292 280 292 275 349 c 0,27,28
 270 406 270 406 264 466 c 0,29,30
 258 526 258 526 251 588 c 0,31,32
 244 649 244 649 236 702 c 0,33,34
 228 755 228 755 220 796 c 0,35,36
 212 837 212 837 204 858 c 0,37,38
 199 869 199 869 195 877 c 0,39,40
 191 884 191 884 186 887 c 0,41,42
 181 891 181 891 173 892 c 0,43,44
 165 893 165 893 151 893 c 0,45,46
 129 894 129 894 105 896 c 0,47,48
 85 897 85 897 59 898 c 0,49,50
 33 899 33 899 6 900 c 0,51,-1
 6 975 l 0,52,-1
 256 1049 l 0,53,54
 365 1047 365 1047 423 1009 c 0,55,56
 482 971 482 971 490 891 c 0,57,-1
 548 350 l 0,58,59
 586 402 586 402 622 449 c 0,60,61
 658 496 658 496 690 541 c 0,62,63
 722 587 722 587 749 633 c 0,64,65
 776 679 776 679 797 728 c 0,66,-1
 738 994 l 0,67,68
 765 1020 765 1020 810 1034 c 0,69,70
 855 1048 855 1048 904 1049 c 0,71,72
 941 1049 941 1049 973 1039 c 0,73,74
 1005 1030 1005 1030 1028 1012 c 0,75,76
 1052 994 1052 994 1065 970 c 0,77,78
 1078 945 1078 945 1078 914 c 0,0,1
EndSplineSet
EndChar

StartChar: w
Encoding: 90 119 90
Width: 1574
VWidth: 1024
Flags: W
LayerCount: 2
Fore
SplineSet
1583 916 m 0,0,1
 1583 872 1583 872 1561 812 c 0,2,3
 1538 751 1538 751 1501 680 c 0,4,5
 1464 609 1464 609 1415 533 c 0,6,7
 1367 457 1367 457 1315 382 c 0,8,9
 1263 307 1263 307 1213 239 c 0,10,11
 1162 171 1162 171 1120 116 c 0,12,13
 1078 61 1078 61 1049 24 c 0,14,15
 1019 -13 1019 -13 1009 -26 c 0,16,-1
 801 -26 l 0,17,-1
 759 574 l 0,18,19
 718 493 718 493 674 411 c 0,20,21
 630 329 630 329 585 251 c 0,22,23
 540 173 540 173 498 102 c 0,24,25
 456 31 456 31 418 -26 c 0,26,-1
 202 -26 l 0,27,-1
 224 32 l 0,28,-1
 168 889 l 0,29,-1
 8 906 l 0,30,-1
 8 973 l 0,31,-1
 290 1049 l 0,32,-1
 440 1023 l 0,33,-1
 480 390 l 0,34,35
 516 460 516 460 553 536 c 0,36,37
 590 612 590 612 626 689 c 0,38,39
 662 766 662 766 698 844 c 0,40,41
 733 922 733 922 766 998 c 0,42,-1
 1005 1023 l 0,43,-1
 1055 286 l 0,44,45
 1091 338 1091 338 1132 398 c 0,46,47
 1173 458 1173 458 1214 520 c 0,48,49
 1254 582 1254 582 1290 644 c 0,50,51
 1326 706 1326 706 1353 763 c 0,52,-1
 1273 986 l 0,53,54
 1277 992 1277 992 1288 1003 c 0,55,56
 1299 1014 1299 1014 1315 1023 c 0,57,58
 1332 1033 1332 1033 1356 1041 c 0,59,60
 1380 1049 1380 1049 1413 1049 c 0,61,62
 1456 1049 1456 1049 1488 1033 c 0,63,64
 1520 1018 1520 1018 1541 996 c 0,65,66
 1562 974 1562 974 1572 952 c 0,67,68
 1583 929 1583 929 1583 916 c 0,0,1
EndSplineSet
EndChar

StartChar: x
Encoding: 91 120 91
Width: 1208
VWidth: 1024
Flags: W
LayerCount: 2
Fore
SplineSet
1229 916 m 0,0,1
 1229 896 1229 896 1226 868 c 0,2,3
 1223 840 1223 840 1209 816 c 0,4,5
 1195 791 1195 791 1165 774 c 0,6,7
 1135 757 1135 757 1082 757 c 0,8,-1
 990 866 l 0,9,10
 964 848 964 848 931 816 c 0,11,12
 897 784 897 784 862 742 c 0,13,14
 827 700 827 700 794 648 c 0,15,16
 761 596 761 596 736 537 c 0,17,18
 741 519 741 519 753 485 c 0,19,20
 764 452 764 452 778 413 c 0,21,22
 792 374 792 374 807 334 c 0,23,24
 822 294 822 294 837 262 c 0,25,26
 851 230 851 230 862 202 c 0,27,28
 873 174 873 174 884 153 c 0,29,30
 895 131 895 131 908 119 c 0,31,32
 921 107 921 107 940 106 c 0,33,34
 948 106 948 106 962 108 c 0,35,36
 976 109 976 109 995 115 c 0,37,38
 1014 121 1014 121 1041 134 c 0,39,40
 1068 147 1068 147 1103 170 c 0,41,-1
 1103 48 l 0,42,43
 1067 26 1067 26 1032 13 c 0,44,45
 997 -1 997 -1 962 -10 c 0,46,47
 926 -19 926 -19 886 -22 c 0,48,49
 847 -26 847 -26 801 -26 c 0,50,51
 750 -26 750 -26 707 9 c 0,52,53
 664 43 664 43 629 95 c 0,54,55
 594 147 594 147 568 209 c 0,56,57
 542 270 542 270 526 325 c 0,58,59
 518 312 518 312 501 281 c 0,60,61
 484 250 484 250 457 211 c 0,62,63
 431 172 431 172 398 130 c 0,64,65
 365 88 365 88 327 54 c 0,66,67
 288 20 288 20 245 -3 c 0,68,69
 202 -26 202 -26 156 -26 c 0,70,71
 119 -26 119 -26 84 -17 c 0,72,73
 49 -9 49 -9 22 7 c 0,74,75
 -5 23 -5 23 -22 46 c 0,76,77
 -38 70 -38 70 -38 100 c 0,78,79
 -38 125 -38 125 -32 154 c 0,80,81
 -26 183 -26 183 -7 207 c 0,82,83
 12 232 12 232 48 248 c 0,84,85
 84 264 84 264 142 264 c 0,86,-1
 222 140 l 0,87,88
 250 164 250 164 283 199 c 0,89,90
 316 234 316 234 349 278 c 0,91,92
 383 323 383 323 414 376 c 0,93,94
 445 429 445 429 470 490 c 0,95,96
 465 510 465 510 454 547 c 0,97,98
 443 583 443 583 429 626 c 0,99,100
 415 668 415 668 399 712 c 0,101,102
 383 756 383 756 368 792 c 0,103,104
 353 828 353 828 339 850 c 0,105,106
 326 873 326 873 318 874 c 0,107,-1
 112 900 l 0,108,-1
 112 965 l 0,109,110
 124 970 124 970 149 978 c 0,111,112
 174 986 174 986 205 995 c 0,113,114
 236 1004 236 1004 268 1014 c 0,115,116
 301 1023 301 1023 330 1031 c 0,117,118
 359 1039 359 1039 380 1043 c 0,119,120
 402 1048 402 1048 409 1049 c 0,121,122
 458 1049 458 1049 496 1025 c 0,123,124
 534 1001 534 1001 566 958 c 0,125,126
 597 914 597 914 623 853 c 0,127,128
 649 792 649 792 671 715 c 0,129,130
 708 770 708 770 752 829 c 0,131,132
 796 888 796 888 845 937 c 0,133,134
 895 986 895 986 948 1017 c 0,135,136
 1001 1048 1001 1048 1057 1049 c 0,137,138
 1089 1049 1089 1049 1120 1039 c 0,139,140
 1151 1029 1151 1029 1175 1012 c 0,141,142
 1199 995 1199 995 1214 970 c 0,143,144
 1229 945 1229 945 1229 916 c 0,0,1
EndSplineSet
EndChar

StartChar: y
Encoding: 92 121 92
Width: 1138
VWidth: 1024
Flags: W
LayerCount: 2
Fore
SplineSet
1091 864 m 0,0,1
 1079 852 1079 852 1055 820 c 0,2,3
 1031 788 1031 788 1006 747 c 0,4,5
 981 707 981 707 957 664 c 0,6,7
 933 621 933 621 919 589 c 0,8,9
 896 539 896 539 865 467 c 0,10,11
 834 396 834 396 795 314 c 0,12,13
 757 232 757 232 712 144 c 0,14,15
 667 55 667 55 618 -30 c 0,16,17
 566 -121 566 -121 506 -203 c 0,18,19
 446 -285 446 -285 377 -346 c 0,20,21
 307 -407 307 -407 226 -444 c 0,22,23
 145 -480 145 -480 50 -480 c 0,24,25
 -13 -480 -13 -480 -56 -464 c 0,26,27
 -98 -448 -98 -448 -124 -423 c 0,28,29
 -150 -398 -150 -398 -160 -371 c 0,30,31
 -170 -343 -170 -343 -170 -321 c 0,32,33
 -170 -295 -170 -295 -162 -265 c 0,34,35
 -154 -235 -154 -235 -134 -209 c 0,36,37
 -114 -183 -114 -183 -81 -166 c 0,38,39
 -49 -149 -49 -149 0 -146 c 0,40,-1
 90 -306 l 0,41,42
 232 -275 232 -275 407 44 c 0,43,44
 405 56 405 56 396 98 c 0,45,46
 388 140 388 140 376 201 c 0,47,48
 364 261 364 261 350 334 c 0,49,50
 335 407 335 407 318 482 c 0,51,52
 303 554 303 554 290 627 c 0,53,54
 277 700 277 700 265 758 c 0,55,56
 254 816 254 816 245 852 c 0,57,58
 236 888 236 888 228 889 c 0,59,-1
 6 906 l 0,60,-1
 6 971 l 0,61,62
 18 975 18 975 42 983 c 0,63,64
 66 991 66 991 95 999 c 0,65,66
 125 1008 125 1008 157 1016 c 0,67,68
 189 1025 189 1025 218 1032 c 0,69,70
 247 1039 247 1039 270 1044 c 0,71,72
 293 1049 293 1049 304 1049 c 0,73,74
 339 1049 339 1049 368 1044 c 0,75,76
 397 1039 397 1039 422 1019 c 0,77,78
 447 999 447 999 470 958 c 0,79,80
 492 917 492 917 514 843 c 0,81,82
 524 807 524 807 537 758 c 0,83,84
 549 709 549 709 561 654 c 0,85,86
 573 598 573 598 587 538 c 0,87,88
 600 478 600 478 612 416 c 0,89,-1
 900 1049 l 0,90,-1
 1000 1049 l 0,91,-1
 1199 986 l 0,92,-1
 1199 931 l 0,93,-1
 1091 864 l 0,0,1
EndSplineSet
EndChar

StartChar: z
Encoding: 93 122 93
Width: 1030
VWidth: 1024
Flags: W
LayerCount: 2
Fore
SplineSet
352 193 m 0,0,-1
 484 220 l 0,1,2
 540 190 540 190 578 172 c 0,3,4
 615 154 615 154 650 154 c 0,5,6
 661 154 661 154 681 159 c 0,7,8
 700 164 700 164 721 172 c 0,9,10
 742 180 742 180 760 191 c 0,11,12
 777 202 777 202 784 214 c 0,13,-1
 658 348 l 0,14,15
 663 355 663 355 680 369 c 0,16,17
 696 383 696 383 719 396 c 0,18,19
 742 409 742 409 767 418 c 0,20,21
 793 428 793 428 820 428 c 0,22,23
 854 428 854 428 879 412 c 0,24,25
 904 396 904 396 919 372 c 0,26,27
 935 348 935 348 943 321 c 0,28,29
 951 294 951 294 950 272 c 0,30,31
 950 222 950 222 921 169 c 0,32,33
 892 116 892 116 842 74 c 0,34,35
 792 31 792 31 726 4 c 0,36,37
 660 -23 660 -23 587 -24 c 0,38,39
 534 -24 534 -24 486 -10 c 0,40,41
 438 4 438 4 400 20 c 0,42,43
 362 36 362 36 336 51 c 0,44,45
 310 65 310 65 300 65 c 0,46,47
 286 65 286 65 274 63 c 0,48,49
 262 61 262 61 256 52 c 0,50,-1
 178 -82 l 0,51,-1
 -34 34 l 0,52,-1
 658 830 l 0,53,-1
 526 803 l 0,54,55
 471 833 471 833 435 851 c 0,56,57
 399 870 399 870 362 870 c 0,58,59
 351 870 351 870 332 865 c 0,60,61
 313 860 313 860 292 851 c 0,62,63
 272 842 272 842 253 832 c 0,64,65
 235 821 235 821 228 810 c 0,66,-1
 352 678 l 0,67,68
 347 669 347 669 332 655 c 0,69,70
 317 641 317 641 294 628 c 0,71,72
 271 615 271 615 245 606 c 0,73,74
 218 596 218 596 193 596 c 0,75,76
 159 596 159 596 134 612 c 0,77,78
 109 628 109 628 94 652 c 0,79,80
 78 676 78 676 70 702 c 0,81,82
 62 729 62 729 62 751 c 0,83,84
 62 801 62 801 92 854 c 0,85,86
 121 907 121 907 171 950 c 0,87,88
 221 994 221 994 287 1021 c 0,89,90
 353 1049 353 1049 426 1049 c 0,91,92
 479 1049 479 1049 527 1034 c 0,93,94
 575 1020 575 1020 612 1003 c 0,95,96
 650 986 650 986 676 972 c 0,97,98
 702 958 702 958 713 958 c 0,99,100
 727 958 727 958 738 961 c 0,101,102
 749 963 749 963 757 971 c 0,103,-1
 814 1103 l 0,104,-1
 1044 986 l 0,105,-1
 352 193 l 0,0,-1
EndSplineSet
EndChar

StartChar: braceleft
Encoding: 94 123 94
Width: 1038
VWidth: 1024
Flags: W
LayerCount: 2
Fore
SplineSet
1047 1365 m 0,0,1
 1008 1365 1008 1365 970 1360 c 0,2,3
 937 1355 937 1355 901 1343 c 0,4,5
 865 1332 865 1332 835 1309 c 0,6,7
 798 1278 798 1278 777 1232 c 0,8,9
 757 1186 757 1186 744 1133 c 0,10,11
 731 1079 731 1079 721 1021 c 0,12,13
 711 963 711 963 693 906 c 0,14,15
 676 849 676 849 647 797 c 0,16,17
 618 745 618 745 566 705 c 0,18,19
 526 673 526 673 487 654 c 0,20,21
 448 636 448 636 415 627 c 0,22,23
 382 618 382 618 357 614 c 0,24,25
 340 612 340 612 331 612 c 0,26,27
 340 611 340 611 356 609 c 0,28,29
 379 606 379 606 408 596 c 0,30,31
 437 586 437 586 470 568 c 0,32,33
 502 550 502 550 528 518 c 0,34,35
 563 477 563 477 572 425 c 0,36,37
 581 373 581 373 576 317 c 0,38,39
 571 260 571 260 558 202 c 0,40,41
 545 144 545 144 537 91 c 0,42,43
 529 38 529 38 532 -8 c 0,44,45
 535 -54 535 -54 560 -84 c 0,46,47
 579 -108 579 -108 611 -119 c 0,48,49
 643 -130 643 -130 673 -135 c 0,50,51
 708 -140 708 -140 746 -140 c 0,52,-1
 724 -256 l 0,53,-1
 683 -256 l 0,54,55
 655 -256 655 -256 618 -254 c 0,56,57
 581 -252 581 -252 539 -248 c 0,58,59
 497 -243 497 -243 457 -234 c 0,60,61
 417 -224 417 -224 382 -209 c 0,62,63
 348 -194 348 -194 327 -170 c 0,64,65
 288 -128 288 -128 278 -71 c 0,66,67
 268 -14 268 -14 273 50 c 0,68,69
 279 113 279 113 293 178 c 0,70,71
 308 243 308 243 319 302 c 0,72,73
 330 361 330 361 329 411 c 0,74,75
 328 460 328 460 304 490 c 0,76,77
 279 521 279 521 242 534 c 0,78,79
 205 547 205 547 170 551 c 0,80,81
 129 555 129 555 86 550 c 0,82,-1
 109 675 l 0,83,84
 152 669 152 669 194 673 c 0,85,86
 230 676 230 676 272 689 c 0,87,88
 314 702 314 702 350 732 c 0,89,90
 387 763 387 763 407 813 c 0,91,92
 427 863 427 863 440 922 c 0,93,94
 453 981 453 981 464 1047 c 0,95,96
 476 1113 476 1113 496 1175 c 0,97,98
 515 1238 515 1238 548 1295 c 0,99,100
 581 1352 581 1352 638 1395 c 0,101,102
 669 1419 669 1419 709 1434 c 0,103,104
 749 1449 749 1449 793 1459 c 0,105,106
 837 1469 837 1469 881 1473 c 0,107,108
 925 1478 925 1478 962 1479 c 0,109,110
 999 1481 999 1481 1027 1481 c 0,111,-1
 1067 1481 l 0,112,-1
 1047 1365 l 0,0,1
EndSplineSet
EndChar

StartChar: bar
Encoding: 95 124 95
Width: 833
VWidth: 1024
Flags: W
LayerCount: 2
Fore
SplineSet
328 -541 m 0,0,-1
 328 1669 l 0,1,-1
 507 1669 l 0,2,-1
 507 -541 l 0,3,-1
 328 -541 l 0,0,-1
EndSplineSet
EndChar

StartChar: braceright
Encoding: 96 125 96
Width: 1038
VWidth: 1024
Flags: W
LayerCount: 2
Fore
SplineSet
952 550 m 0,0,1
 909 555 909 555 867 551 c 0,2,3
 830 547 830 547 788 534 c 0,4,5
 746 521 746 521 709 490 c 0,6,7
 672 458 672 458 652 410 c 0,8,9
 633 361 633 361 620 301 c 0,10,11
 607 242 607 242 596 177 c 0,12,13
 585 112 585 112 565 49 c 0,14,15
 546 -14 546 -14 514 -71 c 0,16,17
 482 -128 482 -128 426 -170 c 0,18,19
 395 -194 395 -194 354 -209 c 0,20,21
 313 -224 313 -224 269 -234 c 0,22,23
 225 -244 225 -244 181 -248 c 0,24,25
 137 -253 137 -253 100 -254 c 0,26,27
 63 -256 63 -256 34 -256 c 0,28,-1
 -6 -256 l 0,29,-1
 16 -140 l 0,30,31
 54 -140 54 -140 92 -135 c 0,32,33
 125 -130 125 -130 161 -119 c 0,34,35
 197 -108 197 -108 226 -84 c 0,36,37
 263 -53 263 -53 284 -8 c 0,38,39
 304 37 304 37 317 90 c 0,40,41
 330 143 330 143 339 201 c 0,42,43
 349 259 349 259 367 316 c 0,44,45
 384 373 384 373 413 425 c 0,46,47
 442 477 442 477 493 518 c 0,48,49
 531 549 531 549 569 567 c 0,50,51
 608 585 608 585 642 595 c 0,52,53
 675 605 675 605 699 608 c 0,54,55
 724 611 724 611 734 612 c 0,56,57
 727 612 727 612 705 614 c 0,58,59
 682 616 682 616 652 626 c 0,60,61
 622 635 622 635 590 653 c 0,62,63
 558 671 558 671 530 705 c 0,64,65
 495 746 495 746 487 798 c 0,66,67
 478 850 478 850 483 907 c 0,68,69
 488 964 488 964 501 1022 c 0,70,71
 514 1080 514 1080 522 1134 c 0,72,73
 530 1188 530 1188 528 1233 c 0,74,75
 526 1278 526 1278 501 1309 c 0,76,77
 482 1333 482 1333 450 1343 c 0,78,79
 419 1354 419 1354 389 1360 c 0,80,81
 354 1365 354 1365 314 1365 c 0,82,-1
 338 1481 l 0,83,-1
 378 1481 l 0,84,85
 407 1481 407 1481 443 1479 c 0,86,87
 480 1477 480 1477 522 1473 c 0,88,89
 564 1468 564 1468 605 1459 c 0,90,91
 645 1449 645 1449 679 1434 c 0,92,93
 713 1419 713 1419 736 1395 c 0,94,95
 775 1352 775 1352 785 1295 c 0,96,97
 795 1238 795 1238 788 1175 c 0,98,99
 782 1112 782 1112 767 1047 c 0,100,101
 752 981 752 981 742 922 c 0,102,103
 731 863 731 863 732 813 c 0,104,105
 733 763 733 763 757 732 c 0,106,107
 782 701 782 701 818 689 c 0,108,109
 855 676 855 676 890 673 c 0,110,111
 931 669 931 669 975 675 c 0,112,-1
 952 550 l 0,0,1
EndSplineSet
EndChar

StartChar: asciitilde
Encoding: 97 126 97
Width: 1746
VWidth: 1024
Flags: W
LayerCount: 2
Fore
SplineSet
783 314 m 0,0,1
 751 291 751 291 724 276 c 0,2,3
 697 261 697 261 673 252 c 0,4,5
 649 243 649 243 626 239 c 0,6,7
 603 235 603 235 581 235 c 0,8,9
 543 235 543 235 507 246 c 0,10,11
 471 257 471 257 435 270 c 0,12,13
 399 283 399 283 363 294 c 0,14,15
 327 305 327 305 288 305 c 0,16,17
 252 305 252 305 204 283 c 0,18,19
 156 261 156 261 90 211 c 0,20,-1
 90 310 l 0,21,22
 149 355 149 355 201 373 c 0,23,24
 252 391 252 391 294 391 c 0,25,26
 324 391 324 391 352 385 c 0,27,28
 380 379 380 379 408 369 c 0,29,30
 435 360 435 360 462 349 c 0,31,32
 489 339 489 339 517 331 c 0,33,34
 533 326 533 326 550 324 c 0,35,36
 566 321 566 321 582 321 c 0,37,38
 599 321 599 321 618 325 c 0,39,40
 637 329 637 329 662 340 c 0,41,42
 686 350 686 350 716 368 c 0,43,44
 746 386 746 386 783 414 c 0,45,-1
 783 314 l 0,0,1
EndSplineSet
EndChar

StartChar: inherent
Encoding: 103 -1 98
Width: 352
Flags: W
LayerCount: 2
Fore
SplineSet
696 1505 m 2,0,1
 671 1386 671 1386 543.5 1296 c 128,-1,2
 416 1206 416 1206 240 1206 c 1,3,-1
 285 1423 l 1,4,5
 342 1423 342 1423 375 1452 c 1,6,7
 412 1475 412 1475 420 1505 c 1,8,-1
 449 1651 l 1,9,-1
 725 1651 l 1,10,-1
 696 1505 l 2,0,1
EndSplineSet
EndChar

StartChar: makewide
Encoding: 104 -1 99
Width: 710
Flags: W
LayerCount: 2
Fore
SplineSet
999 283 m 2,0,1
 974 168 974 168 882.5 84 c 128,-1,2
 791 0 791 0 686 0 c 2,3,-1
 381 2 l 2,4,5
 328 2 328 2 284 14.5 c 128,-1,6
 240 27 240 27 192.5 55.5 c 128,-1,7
 145 84 145 84 112.5 121 c 128,-1,8
 80 158 80 158 43 219 c 1,9,-1
 109 535 l 1,10,-1
 152 543 l 1,11,12
 189 404 189 404 285 315 c 1,13,14
 371 231 371 231 473 231 c 2,15,-1
 664 231 l 2,16,17
 687 231 687 231 700 254 c 0,18,19
 729 293 729 293 733 317 c 2,20,-1
 879 1010 l 2,21,22
 883 1033 883 1033 883 1042 c 0,23,24
 883 1079 883 1079 858 1118 c 1,25,26
 821 1157 821 1157 756 1157 c 2,27,-1
 532 1157 l 1,28,-1
 580 1389 l 1,29,-1
 1085 1389 l 1,30,-1
 1098 1194 l 1,31,32
 1159 1126 1159 1126 1159 1055 c 0,33,34
 1159 1041 1159 1041 1155 1018 c 2,35,-1
 999 283 l 2,0,1
EndSplineSet
EndChar

StartChar: shortrr
Encoding: 105 -1 100
Width: 1681
Flags: W
LayerCount: 2
Fore
SplineSet
1974 1165 m 1,0,-1
 973 1165 l 2,1,2
 930 1165 930 1165 907.5 1151 c 128,-1,3
 885 1137 885 1137 877 1108 c 2,4,-1
 840 948 l 1,5,6
 840 909 840 909 866.5 883.5 c 128,-1,7
 893 858 893 858 938 858 c 2,8,-1
 1325 858 l 1,9,-1
 1274 627 l 1,10,-1
 889 627 l 2,11,12
 842 627 842 627 805 604 c 0,13,14
 787 594 787 594 777.5 578.5 c 128,-1,15
 768 563 768 563 764 545 c 2,16,-1
 719 344 l 1,17,18
 715 299 715 299 731 276 c 1,19,20
 745 243 745 243 768 242 c 1,21,-1
 965 242 l 1,22,-1
 918 10 l 1,23,-1
 629 10 l 2,24,25
 529 10 529 10 467 82 c 0,26,27
 422 135 422 135 422 197 c 0,28,29
 422 211 422 211 426 244 c 1,30,-1
 492 559 l 2,31,32
 508 639 508 639 575 698 c 1,33,34
 583 702 583 702 620 723.5 c 128,-1,35
 657 745 657 745 672 750 c 1,36,-1
 598 801 l 1,37,38
 567 846 567 846 567 897 c 0,39,40
 567 922 567 922 569 932 c 2,41,-1
 621 1176 l 2,42,43
 644 1280 644 1280 737 1333 c 1,44,45
 819 1392 819 1392 942 1393 c 2,46,-1
 2032 1393 l 1,47,-1
 1974 1165 l 1,0,-1
EndSplineSet
EndChar

StartChar: anusvara
Encoding: 107 3202 101
Width: 1609
Flags: W
LayerCount: 2
Fore
SplineSet
1702 319 m 2,0,1
 1673 188 1673 188 1569 98 c 1,2,3
 1467 2 1467 2 1348 2 c 2,4,-1
 705 2 l 2,5,6
 568 2 568 2 487 106 c 1,7,8
 428 174 428 174 428 272 c 0,9,10
 428 303 428 303 436 342 c 2,11,-1
 594 1092 l 1,12,13
 625 1223 625 1223 741 1305 c 1,14,15
 798 1350 798 1350 863 1369.5 c 128,-1,16
 928 1389 928 1389 1001 1389 c 2,17,-1
 1587 1389 l 2,18,19
 1726 1389 1726 1389 1808 1294 c 0,20,21
 1867 1226 1867 1226 1868 1133 c 0,22,23
 1868 1100 1868 1100 1860 1067 c 2,24,-1
 1702 319 l 2,0,1
1434 360 m 1,25,-1
 1579 1051 l 2,26,27
 1581 1061 1581 1061 1581 1079 c 0,28,29
 1581 1106 1581 1106 1559.5 1131.5 c 128,-1,30
 1538 1157 1538 1157 1495 1157 c 2,31,-1
 1026 1157 l 2,32,33
 967 1157 967 1157 913 1128 c 1,34,35
 870 1099 870 1099 862 1063 c 2,36,-1
 715 356 l 2,37,38
 705 305 705 305 742.5 265 c 128,-1,39
 780 225 780 225 840 225 c 2,40,-1
 1298 225 l 2,41,42
 1341 225 1341 225 1382.5 263 c 128,-1,43
 1424 301 1424 301 1434 360 c 1,25,-1
EndSplineSet
EndChar

StartChar: u0C83
Encoding: 108 3203 102
Width: 1040
Flags: W
LayerCount: 2
Fore
SplineSet
1321 944 m 2,0,1
 1305 860 1305 860 1223 799 c 1,2,3
 1151 738 1151 738 1051 737 c 2,4,-1
 725 737 l 2,5,6
 616 737 616 737 565 805 c 1,7,8
 520 852 520 852 520 918 c 0,9,10
 520 945 520 945 522 961 c 2,11,-1
 567 1176 l 2,12,13
 585 1272 585 1272 673.5 1333.5 c 128,-1,14
 762 1395 762 1395 864 1395 c 2,15,-1
 1159 1395 l 2,16,17
 1233 1395 1233 1395 1276 1364 c 1,18,19
 1301 1354 1301 1354 1319 1332.5 c 128,-1,20
 1337 1311 1337 1311 1352.5 1277 c 128,-1,21
 1368 1243 1368 1243 1368 1210 c 0,22,23
 1368 1194 1368 1194 1364 1165 c 2,24,-1
 1321 944 l 2,0,1
1169 240 m 2,25,26
 1151 144 1151 144 1074 74 c 128,-1,27
 997 4 997 4 911 4 c 2,28,-1
 567 6 l 2,29,30
 471 6 471 6 406 72 c 1,31,32
 361 125 361 125 360 184 c 0,33,34
 360 194 360 194 365 227 c 1,35,-1
 410 442 l 2,36,37
 428 538 428 538 518 601 c 128,-1,38
 608 664 608 664 709 664 c 2,39,-1
 1004 664 l 2,40,41
 1115 664 1115 664 1165 592 c 1,42,43
 1210 545 1210 545 1210 471 c 0,44,45
 1210 459 1210 459 1206 420 c 1,46,-1
 1169 240 l 2,25,26
1053 1001 m 2,47,-1
 1077 1124 l 2,48,49
 1079 1134 1079 1134 1075 1143.5 c 128,-1,50
 1071 1153 1071 1153 1069 1158 c 128,-1,51
 1067 1163 1067 1163 1042 1163 c 2,52,-1
 909 1163 l 2,53,54
 876 1163 876 1163 857 1152 c 128,-1,55
 838 1141 838 1141 834 1122 c 2,56,-1
 809 1018 l 1,57,58
 811 995 811 995 823.5 981 c 128,-1,59
 836 967 836 967 858 967 c 2,60,-1
 1004 967 l 1,61,62
 1020 971 1020 971 1032 976 c 128,-1,63
 1044 981 1044 981 1048.5 986 c 128,-1,64
 1053 991 1053 991 1053 1001 c 2,47,-1
901 264 m 1,65,-1
 926 389 l 2,66,67
 930 412 930 412 922 420 c 2,68,-1
 913 428 l 1,69,-1
 739 428 l 1,70,-1
 696 420 l 1,71,72
 680 410 680 410 678 401 c 2,73,-1
 649 285 l 1,74,-1
 657 246 l 1,75,76
 661 238 661 238 666.5 235.5 c 128,-1,77
 672 233 672 233 674 233 c 2,78,-1
 850 233 l 2,79,80
 864 233 864 233 881 242 c 1,81,-1
 901 264 l 1,65,-1
EndSplineSet
EndChar

StartChar: avowel
Encoding: 109 3205 103
Width: 2091
Flags: W
LayerCount: 2
Fore
SplineSet
2245 295 m 2,0,1
 2220 172 2220 172 2105 90 c 1,2,3
 2001 2 2001 2 1868 2 c 2,4,-1
 733 4 l 2,5,6
 588 4 588 4 506 90 c 1,7,8
 473 121 473 121 458.5 157 c 128,-1,9
 444 193 444 193 444 238 c 0,10,11
 444 254 444 254 449 293 c 1,12,-1
 618 1106 l 2,13,14
 643 1231 643 1231 751.5 1312 c 128,-1,15
 860 1393 860 1393 989 1393 c 2,16,-1
 1393 1393 l 1,17,-1
 1290 918 l 1,18,-1
 1016 918 l 1,19,-1
 1069 1161 l 1,20,-1
 997 1161 l 2,21,22
 958 1161 958 1161 928 1128 c 0,23,24
 885 1081 885 1081 874 1026 c 2,25,-1
 735 365 l 2,26,27
 727 326 727 326 758 274 c 1,28,29
 805 235 805 235 858 236 c 2,30,-1
 1808 236 l 2,31,32
 1833 236 1833 236 1847.5 240 c 128,-1,33
 1862 244 1862 244 1880 253 c 128,-1,34
 1898 262 1898 262 1916.5 281.5 c 128,-1,35
 1935 301 1935 301 1952 319 c 0,36,37
 1981 356 1981 356 1989 401 c 2,38,-1
 2132 1077 l 2,39,40
 2140 1110 2140 1110 2118 1141 c 1,41,42
 2100 1159 2100 1159 2056 1159 c 2,43,-1
 1991 1159 l 1,44,-1
 1962 1036 l 2,45,46
 1960 1026 1960 1026 1960 1008 c 0,47,48
 1960 926 1960 926 2068 844 c 1,49,-1
 2021 625 l 1,50,-1
 1096 625 l 1,51,-1
 1147 856 l 1,52,-1
 1737 856 l 1,53,54
 1680 930 1680 930 1679 991 c 0,55,56
 1679 1014 1679 1014 1681 1022 c 2,57,-1
 1761 1393 l 1,58,-1
 2130 1393 l 2,59,60
 2220 1393 2220 1393 2293.5 1356 c 128,-1,61
 2367 1319 2367 1319 2398 1260 c 1,62,63
 2421 1223 2421 1223 2421 1171 c 0,64,65
 2421 1155 2421 1155 2417 1122 c 1,66,-1
 2245 295 l 2,0,1
EndSplineSet
EndChar

StartChar: aavowel
Encoding: 110 3206 104
Width: 2238
Flags: W
LayerCount: 2
Fore
SplineSet
2546 993 m 1,0,1
 2521 868 2521 868 2421 793 c 1,2,3
 2364 746 2364 746 2312.5 724 c 128,-1,4
 2261 702 2261 702 2200 702 c 2,5,-1
 2161 702 l 1,6,7
 2206 634 2206 634 2202 592 c 1,8,-1
 2126 231 l 2,9,10
 2108 135 2108 135 2005 68 c 0,11,12
 1958 37 1958 37 1902.5 20.5 c 128,-1,13
 1847 4 1847 4 1776 4 c 2,14,-1
 690 12 l 2,15,16
 567 12 567 12 502 98 c 1,17,18
 451 153 451 153 451 233 c 0,19,20
 451 266 451 266 459 299 c 2,21,-1
 631 1112 l 2,22,23
 645 1171 645 1171 681 1222.5 c 128,-1,24
 717 1274 717 1274 782 1319 c 1,25,26
 913 1399 913 1399 1065 1399 c 2,27,-1
 1380 1399 l 1,28,-1
 1278 924 l 1,29,-1
 1004 924 l 1,30,-1
 1057 1167 l 1,31,-1
 1028 1167 l 2,32,33
 981 1167 981 1167 945 1138.5 c 128,-1,34
 909 1110 909 1110 901 1073 c 2,35,-1
 754 367 l 2,36,37
 750 338 750 338 750 330 c 0,38,39
 750 305 750 305 766 274 c 1,40,41
 799 235 799 235 846 236 c 2,42,-1
 1729 236 l 2,43,44
 1774 236 1774 236 1819 274 c 0,45,46
 1844 297 1844 297 1859 318.5 c 128,-1,47
 1874 340 1874 340 1878 369 c 2,48,-1
 1925 596 l 2,49,50
 1933 641 1933 641 1886 707 c 1,51,-1
 1274 707 l 1,52,-1
 1325 938 l 1,53,-1
 1831 938 l 1,54,55
 1802 995 1802 995 1810 1020 c 1,56,-1
 1843 1182 l 2,57,58
 1859 1272 1859 1272 1954.5 1330.5 c 128,-1,59
 2050 1389 2050 1389 2167 1389 c 2,60,-1
 2355 1389 l 2,61,62
 2474 1389 2474 1389 2528.5 1324.5 c 128,-1,63
 2583 1260 2583 1260 2583 1192 c 0,64,65
 2583 1178 2583 1178 2578 1145 c 1,66,-1
 2546 993 l 1,0,1
2269 1008 m 2,67,-1
 2288 1102 l 2,68,69
 2290 1110 2290 1110 2290 1119 c 128,-1,70
 2290 1128 2290 1128 2290 1130 c 0,71,72
 2290 1159 2290 1159 2265 1159 c 2,73,-1
 2177 1159 l 2,74,75
 2144 1159 2144 1159 2124.5 1140.5 c 128,-1,76
 2105 1122 2105 1122 2103 1100 c 1,77,-1
 2089 1034 l 2,78,79
 2079 987 2079 987 2111 934 c 1,80,-1
 2200 934 l 2,81,82
 2223 934 2223 934 2244 956.5 c 128,-1,83
 2265 979 2265 979 2269 1008 c 2,67,-1
EndSplineSet
EndChar

StartChar: ivowel
Encoding: 111 3207 105
Width: 1687
Flags: W
LayerCount: 2
Fore
SplineSet
1767 0 m 1,0,-1
 1599 0 l 2,1,2
 1488 0 1488 0 1413 68 c 1,3,4
 1362 125 1362 125 1362 193 c 0,5,6
 1362 207 1362 207 1366 236 c 2,7,-1
 1389 350 l 1,8,-1
 1174 350 l 2,9,10
 1070 350 1070 350 1012 410 c 1,11,12
 983 428 983 428 972 454.5 c 128,-1,13
 961 481 961 481 961 512 c 0,14,15
 961 535 961 535 963 545 c 2,16,-1
 993 690 l 1,17,18
 1003 758 1003 758 1085 805 c 1,19,20
 1165 844 1165 844 1262 844 c 2,21,-1
 1513 844 l 2,22,23
 1579 844 1579 844 1624 807 c 1,24,-1
 1655 778 l 1,25,-1
 1716 1083 l 1,26,27
 1724 1112 1724 1112 1700.5 1131.5 c 128,-1,28
 1677 1151 1677 1151 1620 1151 c 2,29,-1
 1460 1151 l 2,30,31
 1423 1151 1423 1151 1407 1147 c 128,-1,32
 1391 1143 1391 1143 1360 1123.5 c 128,-1,33
 1329 1104 1329 1104 1321 1067 c 2,34,-1
 1288 909 l 1,35,-1
 1014 909 l 1,36,-1
 1044 1057 l 2,37,38
 1052 1094 1052 1094 1023.5 1122.5 c 128,-1,39
 995 1151 995 1151 938 1151 c 2,40,-1
 743 1151 l 2,41,42
 696 1151 696 1151 662.5 1127.5 c 128,-1,43
 629 1104 629 1104 621 1067 c 2,44,-1
 590 936 l 1,45,46
 590 885 590 885 606 874 c 1,47,48
 622 845 622 845 651 846 c 2,49,-1
 723 846 l 1,50,-1
 672 614 l 1,51,-1
 547 616 l 2,52,53
 422 616 422 616 356 698 c 1,54,55
 303 755 303 755 303 838 c 0,56,57
 303 852 303 852 307 891 c 1,58,-1
 350 1094 l 2,59,60
 368 1180 368 1180 425.5 1245.5 c 128,-1,61
 483 1311 483 1311 567 1343 c 1,62,63
 643 1380 643 1380 733 1380 c 2,64,-1
 1014 1380 l 2,65,66
 1112 1380 1112 1380 1163 1341 c 1,67,68
 1200 1323 1200 1323 1225 1276 c 1,69,70
 1233 1286 1233 1286 1254.5 1307.5 c 128,-1,71
 1276 1329 1276 1329 1305 1339 c 1,72,73
 1371 1382 1371 1382 1450 1382 c 2,74,-1
 1716 1382 l 2,75,76
 1868 1382 1868 1382 1939 1300 c 1,77,78
 2000 1239 2000 1239 2001 1149 c 0,79,80
 2001 1120 2001 1120 1993 1087 c 2,81,-1
 1921 748 l 2,82,83
 1882 568 1882 568 1673 406 c 1,84,-1
 1645 276 l 2,85,86
 1641 253 1641 253 1649 244 c 1,87,88
 1674 228 1674 228 1681 227 c 2,89,-1
 1810 227 l 1,90,-1
 1767 0 l 1,0,-1
1430 580 m 1,91,-1
 1432 588 l 2,92,93
 1440 619 1440 619 1401 618 c 2,94,-1
 1268 618 l 2,95,96
 1258 618 1258 618 1253 616 c 1,97,-1
 1249 602 l 1,98,-1
 1249 592 l 1,99,100
 1251 588 1251 588 1255.5 586 c 128,-1,101
 1260 584 1260 584 1262 584 c 2,102,-1
 1430 580 l 1,91,-1
EndSplineSet
EndChar

StartChar: iivowel
Encoding: 112 3208 106
Width: 2623
Flags: W
LayerCount: 2
Fore
SplineSet
2886 827 m 1,0,1
 2870 741 2870 741 2783 655 c 1,2,3
 2707 587 2707 587 2607 549 c 1,4,5
 2730 375 2730 375 2720 315 c 1,6,-1
 2691 178 l 2,7,8
 2683 141 2683 141 2667.5 115.5 c 128,-1,9
 2652 90 2652 90 2621 59 c 1,10,11
 2560 6 2560 6 2499 6 c 2,12,-1
 1997 6 l 1,13,-1
 2044 238 l 1,14,-1
 2372 238 l 2,15,16
 2388 238 2388 238 2410.5 257 c 128,-1,17
 2433 276 2433 276 2435 287 c 2,18,-1
 2437 297 l 2,19,20
 2445 340 2445 340 2400 379 c 1,21,-1
 2292 518 l 1,22,-1
 1851 518 l 1,23,-1
 1804 285 l 2,24,25
 1779 170 1779 170 1671 88 c 1,26,27
 1569 2 1569 2 1444 2 c 2,28,-1
 709 4 l 2,29,30
 600 4 600 4 541 78 c 1,31,32
 494 129 494 129 494 205 c 0,33,34
 494 221 494 221 498 254 c 1,35,-1
 551 514 l 1,36,-1
 319 514 l 1,37,-1
 371 745 l 1,38,-1
 602 745 l 1,39,-1
 633 903 l 1,40,41
 662 1034 662 1034 823 1165 c 1,42,-1
 662 1165 l 1,43,-1
 709 1397 l 1,44,-1
 1786 1397 l 2,45,46
 1819 1397 1819 1397 1840.5 1419.5 c 128,-1,47
 1862 1442 1862 1442 1864 1458 c 2,48,-1
 1888 1587 l 1,49,-1
 2169 1587 l 1,50,-1
 2144 1458 l 1,51,52
 2119 1343 2119 1343 2019 1264 c 1,53,54
 1951 1196 1951 1196 1847 1167 c 1,55,56
 1898 1124 1898 1124 1929 1070 c 128,-1,57
 1960 1016 1960 1016 1952 958 c 1,58,-1
 1907 743 l 1,59,-1
 2140 743 l 1,60,61
 2122 780 2122 780 2122 834 c 0,62,63
 2122 867 2122 867 2126 885 c 2,64,-1
 2157 1032 l 2,65,66
 2180 1136 2180 1136 2269 1208 c 1,67,68
 2351 1280 2351 1280 2462 1280 c 2,69,-1
 2707 1280 l 2,70,71
 2824 1280 2824 1280 2882 1204 c 1,72,73
 2933 1147 2933 1147 2933 1073 c 0,74,75
 2933 1036 2933 1036 2929 1018 c 2,76,-1
 2886 827 l 1,0,1
2613 846 m 1,77,-1
 2644 993 l 2,78,79
 2646 1003 2646 1003 2641 1015.5 c 128,-1,80
 2636 1028 2636 1028 2631 1037.5 c 128,-1,81
 2626 1047 2626 1047 2601 1047 c 2,82,-1
 2486 1047 l 2,83,84
 2457 1047 2457 1047 2449 1036 c 2,85,-1
 2427 1004 l 1,86,-1
 2394 848 l 1,87,88
 2392 819 2392 819 2406 795 c 1,89,-1
 2488 737 l 1,90,91
 2525 745 2525 745 2558 770 c 0,92,93
 2603 807 2603 807 2613 846 c 1,77,-1
1624 745 m 1,94,-1
 1671 971 l 2,95,96
 1673 981 1673 981 1673 992.5 c 128,-1,97
 1673 1004 1673 1004 1673 1008 c 0,98,99
 1673 1104 1673 1104 1579 1163 c 1,100,-1
 1133 1163 l 1,101,102
 938 1048 938 1048 909 909 c 2,103,-1
 872 741 l 1,104,-1
 1624 745 l 1,94,-1
1542 358 m 1,105,-1
 1573 510 l 1,106,-1
 823 510 l 1,107,-1
 786 330 l 2,108,109
 778 293 778 293 801 256 c 1,110,111
 826 225 826 225 856 225 c 2,112,-1
 1382 225 l 2,113,114
 1405 225 1405 225 1426.5 234.5 c 128,-1,115
 1448 244 1448 244 1473 260 c 1,116,117
 1526 305 1526 305 1542 358 c 1,105,-1
EndSplineSet
EndChar

StartChar: uvowel
Encoding: 113 3209 107
Width: 3143
Flags: W
LayerCount: 2
Fore
SplineSet
3301 311 m 2,0,1
 3285 231 3285 231 3226.5 155.5 c 128,-1,2
 3168 80 3168 80 3084 40 c 128,-1,3
 3000 0 3000 0 2927 0 c 2,4,-1
 2525 0 l 2,5,6
 2480 0 2480 0 2437 11.5 c 128,-1,7
 2394 23 2394 23 2357 41 c 128,-1,8
 2320 59 2320 59 2297.5 86 c 128,-1,9
 2275 113 2275 113 2253 152 c 1,10,11
 2235 199 2235 199 2234 256 c 0,12,13
 2234 272 2234 272 2238 305 c 1,14,-1
 2404 1090 l 2,15,16
 2408 1106 2408 1106 2394 1139 c 1,17,18
 2371 1155 2371 1155 2335 1155 c 2,19,-1
 1952 1155 l 2,20,21
 1913 1155 1913 1155 1894 1141 c 1,22,23
 1871 1118 1871 1118 1864 1087 c 2,24,-1
 1696 287 l 2,25,26
 1688 244 1688 244 1671.5 214 c 128,-1,27
 1655 184 1655 184 1618 139 c 0,28,29
 1565 78 1565 78 1470.5 37 c 128,-1,30
 1376 -4 1376 -4 1290 -4 c 2,31,-1
 760 -2 l 2,32,33
 613 -2 613 -2 522 92 c 0,34,35
 461 153 461 153 461 250 c 0,36,37
 461 287 461 287 469 326 c 2,38,-1
 625 1071 l 1,39,40
 648 1161 648 1161 692 1233 c 1,41,42
 758 1313 758 1313 844 1349.5 c 128,-1,43
 930 1386 930 1386 1001 1386 c 2,44,-1
 1464 1386 l 1,45,-1
 1376 977 l 1,46,47
 1368 926 1368 926 1335.5 874.5 c 128,-1,48
 1303 823 1303 823 1257 780 c 1,49,50
 1155 694 1155 694 1044 694 c 2,51,-1
 864 694 l 1,52,-1
 915 926 l 1,53,-1
 1034 926 l 2,54,55
 1042 926 1042 926 1053.5 931 c 128,-1,56
 1065 936 1065 936 1073 940 c 0,57,58
 1091 954 1091 954 1096 973 c 2,59,-1
 1135 1149 l 1,60,-1
 1006 1149 l 2,61,62
 959 1149 959 1149 929 1122.5 c 128,-1,63
 899 1096 899 1096 895 1065 c 1,64,-1
 737 319 l 2,65,66
 729 286 729 286 754.5 252.5 c 128,-1,67
 780 219 780 219 823 219 c 2,68,-1
 1321 219 l 2,69,70
 1360 219 1360 219 1382 244 c 1,71,72
 1419 275 1419 275 1423 305 c 1,73,-1
 1585 1081 l 2,74,75
 1601 1155 1601 1155 1628 1202 c 128,-1,76
 1655 1249 1655 1249 1712 1292 c 1,77,78
 1816 1380 1816 1380 1942 1380 c 2,79,-1
 2410 1380 l 2,80,81
 2500 1380 2500 1380 2567 1344.5 c 128,-1,82
 2634 1309 2634 1309 2664 1241 c 0,83,84
 2682 1198 2682 1198 2683 1145 c 0,85,86
 2683 1129 2683 1129 2679 1096 c 1,87,-1
 2517 322 l 2,88,89
 2507 279 2507 279 2530.5 249 c 128,-1,90
 2554 219 2554 219 2587 219 c 2,91,-1
 2920 219 l 2,92,93
 2959 219 2959 219 2982 244 c 1,94,95
 2998 258 2998 258 3007.5 272.5 c 128,-1,96
 3017 287 3017 287 3021 305 c 2,97,-1
 3181 1065 l 1,98,99
 3183 1088 3183 1088 3164.5 1106 c 128,-1,100
 3146 1124 3146 1124 3109 1124 c 2,101,-1
 3047 1124 l 1,102,-1
 3101 1382 l 1,103,-1
 3248 1382 l 2,104,105
 3367 1382 3367 1382 3424 1307 c 1,106,107
 3469 1254 3469 1254 3469 1178 c 0,108,109
 3469 1164 3469 1164 3465 1124 c 1,110,-1
 3301 311 l 2,0,1
EndSplineSet
EndChar

StartChar: uuvowel
Encoding: 114 3210 108
Width: 3768
Flags: W
LayerCount: 2
Fore
SplineSet
3918 295 m 1,0,1
 3889 170 3889 170 3789 94 c 1,2,3
 3680 4 3680 4 3570 4 c 2,4,-1
 3451 4 l 2,5,6
 3342 4 3342 4 3269 84 c 1,7,8
 3222 139 3222 139 3222 207 c 0,9,10
 3222 236 3222 236 3230 266 c 2,11,-1
 3273 475 l 1,12,-1
 3549 475 l 1,13,-1
 3506 266 l 2,14,15
 3502 248 3502 248 3506 244 c 0,16,17
 3508 240 3508 240 3531 238 c 1,18,-1
 3602 238 l 1,19,20
 3618 246 3618 246 3621 250 c 2,21,-1
 3637 287 l 1,22,-1
 3799 1057 l 2,23,24
 3801 1067 3801 1067 3801 1085 c 0,25,26
 3801 1112 3801 1112 3784.5 1137.5 c 128,-1,27
 3768 1163 3768 1163 3729 1163 c 2,28,-1
 3439 1163 l 2,29,30
 3382 1163 3382 1163 3340.5 1130.5 c 128,-1,31
 3299 1098 3299 1098 3291 1053 c 2,32,-1
 3140 334 l 2,33,34
 3130 291 3130 291 3113.5 254 c 128,-1,35
 3097 217 3097 217 3064 170 c 1,36,37
 3039 141 3039 141 3021 119 c 0,38,39
 2982 76 2982 76 2931 51 c 0,40,41
 2841 4 2841 4 2761 4 c 2,42,-1
 2335 4 l 2,43,44
 2212 4 2212 4 2140 100 c 1,45,46
 2099 159 2099 159 2099 242 c 0,47,48
 2099 279 2099 279 2107 322 c 2,49,-1
 2267 1081 l 2,50,51
 2275 1120 2275 1120 2252.5 1142.5 c 128,-1,52
 2230 1165 2230 1165 2191 1165 c 2,53,-1
 1896 1165 l 2,54,55
 1851 1165 1851 1165 1820.5 1136.5 c 128,-1,56
 1790 1108 1790 1108 1782 1071 c 2,57,-1
 1630 346 l 2,58,59
 1599 205 1599 205 1470 103.5 c 128,-1,60
 1341 2 1341 2 1194 2 c 2,61,-1
 803 4 l 2,62,63
 645 4 645 4 537 98 c 1,64,65
 469 166 469 166 469 262 c 0,66,67
 469 293 469 293 477 332 c 2,68,-1
 637 1094 l 1,69,70
 653 1160 653 1160 686 1212 c 128,-1,71
 719 1264 719 1264 780 1307 c 0,72,73
 897 1393 897 1393 1049 1393 c 2,74,-1
 1473 1393 l 1,75,-1
 1393 1022 l 2,76,77
 1368 905 1368 905 1257 819 c 1,78,79
 1157 731 1157 731 1026 731 c 2,80,-1
 907 731 l 1,81,-1
 958 963 l 1,82,-1
 1049 963 l 2,83,84
 1059 963 1059 963 1070 968 c 128,-1,85
 1081 973 1081 973 1085 975 c 0,86,87
 1103 989 1103 989 1108 1008 c 2,88,-1
 1141 1159 l 1,89,-1
 1026 1159 l 2,90,91
 979 1159 979 1159 944 1133.5 c 128,-1,92
 909 1108 909 1108 901 1075 c 2,93,-1
 748 342 l 2,94,95
 740 295 740 295 770.5 262 c 128,-1,96
 801 229 801 229 858 229 c 2,97,-1
 1227 229 l 2,98,99
 1258 229 1258 229 1303 260 c 1,100,101
 1340 297 1340 297 1348 342 c 2,102,-1
 1501 1075 l 1,103,104
 1524 1169 1524 1169 1585 1237 c 0,105,106
 1618 1276 1618 1276 1654 1302.5 c 128,-1,107
 1690 1329 1690 1329 1737 1348 c 0,108,109
 1831 1387 1831 1387 1919 1386 c 2,110,-1
 2243 1386 l 2,111,112
 2339 1386 2339 1386 2414.5 1346.5 c 128,-1,113
 2490 1307 2490 1307 2517 1241.5 c 128,-1,114
 2544 1176 2544 1176 2544 1122 c 0,115,116
 2544 1106 2544 1106 2540 1073 c 1,117,-1
 2380 313 l 2,118,119
 2372 280 2372 280 2386 256 c 1,120,121
 2411 227 2411 227 2449 227 c 2,122,-1
 2724 227 l 2,123,124
 2747 227 2747 227 2769 235.5 c 128,-1,125
 2791 244 2791 244 2810 256 c 1,126,127
 2839 285 2839 285 2848 300 c 128,-1,128
 2857 315 2857 315 2861 338 c 2,129,-1
 3009 1044 l 1,130,131
 3032 1140 3032 1140 3088 1217 c 1,132,133
 3121 1256 3121 1256 3159 1286.5 c 128,-1,134
 3197 1317 3197 1317 3242 1339 c 0,135,136
 3332 1382 3332 1382 3428 1382 c 2,137,-1
 3768 1382 l 2,138,139
 3868 1382 3868 1382 3944 1339 c 128,-1,140
 4020 1296 4020 1296 4051 1214 c 0,141,142
 4061 1191 4061 1191 4066 1160.5 c 128,-1,143
 4071 1130 4071 1130 4071 1100 c 0,144,145
 4071 1063 4071 1063 4067 1044 c 2,146,-1
 3918 295 l 1,0,1
EndSplineSet
EndChar

StartChar: rvocalicvowel.part
Encoding: 116 -1 110
Width: 2152
Flags: W
LayerCount: 2
Fore
SplineSet
2298 311 m 2,0,1
 2284 243 2284 243 2258 196.5 c 128,-1,2
 2232 150 2232 150 2187 98 c 1,3,4
 2091 2 2091 2 1995 2 c 2,5,-1
 1556 2 l 2,6,7
 1468 2 1468 2 1386 47 c 0,8,9
 1327 78 1327 78 1296 137 c 1,10,11
 1251 84 1251 84 1204 51 c 1,12,13
 1130 4 1130 4 1077 4 c 2,14,-1
 575 6 l 2,15,16
 466 6 466 6 414 65.5 c 128,-1,17
 362 125 362 125 362 190 c 0,18,19
 362 200 362 200 367 229 c 2,20,-1
 446 612 l 1,21,-1
 821 612 l 2,22,23
 946 612 946 612 1004 553 c 1,24,25
 1065 500 1065 500 1065 434 c 0,26,27
 1065 424 1065 424 1061 395 c 2,28,-1
 1036 279 l 1,29,-1
 760 279 l 1,30,-1
 778 369 l 2,31,32
 780 385 780 385 748 385 c 2,33,-1
 680 385 l 1,34,-1
 662 299 l 1,35,36
 662 274 662 274 672 256 c 1,37,38
 690 238 690 238 715 238 c 2,39,-1
 1032 238 l 2,40,41
 1061 238 1061 238 1084.5 246 c 128,-1,42
 1108 254 1108 254 1130 266 c 0,43,44
 1169 289 1169 289 1178 322 c 2,45,-1
 1346 1114 l 1,46,47
 1348 1139 1348 1139 1324 1154 c 128,-1,48
 1300 1169 1300 1169 1249 1169 c 2,49,-1
 938 1169 l 2,50,51
 897 1169 897 1169 864 1153 c 1,52,53
 846 1151 846 1151 842 1128 c 2,54,-1
 813 997 l 1,55,-1
 881 997 l 2,56,57
 904 997 904 997 926 1015.5 c 128,-1,58
 948 1034 948 1034 952 1057 c 2,59,-1
 969 1133 l 1,60,-1
 1245 1133 l 1,61,-1
 1229 1044 l 1,62,63
 1204 933 1204 933 1107 847.5 c 128,-1,64
 1010 762 1010 762 901 762 c 2,65,-1
 481 762 l 1,66,-1
 565 1165 l 2,67,68
 573 1210 573 1210 604 1255 c 128,-1,69
 635 1300 635 1300 682 1337 c 1,70,71
 782 1398 782 1398 897 1399 c 2,72,-1
 1370 1399 l 2,73,74
 1499 1399 1499 1399 1573 1323 c 1,75,76
 1632 1255 1632 1255 1632 1176 c 0,77,78
 1632 1162 1632 1162 1628 1128 c 1,79,-1
 1468 381 l 1,80,81
 1486 315 1486 315 1534.5 274 c 128,-1,82
 1583 233 1583 233 1630 233 c 2,83,-1
 1907 233 l 2,84,85
 1925 233 1925 233 1941.5 241.5 c 128,-1,86
 1958 250 1958 250 1976 266 c 0,87,88
 2015 299 2015 299 2023 346 c 2,89,-1
 2169 1028 l 2,90,91
 2171 1038 2171 1038 2171 1057 c 0,92,93
 2171 1096 2171 1096 2144.5 1129.5 c 128,-1,94
 2118 1163 2118 1163 2062 1163 c 2,95,-1
 1731 1163 l 1,96,-1
 1778 1395 l 1,97,-1
 2138 1395 l 2,98,99
 2156 1395 2156 1395 2174.5 1403 c 128,-1,100
 2193 1411 2193 1411 2218 1427 c 1,101,102
 2261 1466 2261 1466 2269 1509 c 2,103,-1
 2294 1638 l 1,104,-1
 2570 1638 l 1,105,-1
 2540 1481 l 2,106,107
 2524 1401 2524 1401 2466 1343 c 1,108,109
 2423 1290 2423 1290 2372 1266 c 1,110,111
 2411 1237 2411 1237 2430 1192 c 128,-1,112
 2449 1147 2449 1147 2449 1104 c 0,113,114
 2449 1067 2449 1067 2445 1051 c 2,115,-1
 2298 311 l 2,0,1
EndSplineSet
EndChar

StartChar: lvocalicvowel.part
Encoding: 118 -1 112
Width: 1687
Flags: W
LayerCount: 2
Fore
SplineSet
2167 444 m 1,0,-1
 1829 119 l 1,1,2
 1792 76 1792 76 1755 52.5 c 128,-1,3
 1718 29 1718 29 1691.5 23.5 c 128,-1,4
 1665 18 1665 18 1640 18 c 0,5,6
 1581 18 1581 18 1509.5 42 c 128,-1,7
 1438 66 1438 66 1393 111 c 0,8,9
 1370 136 1370 136 1348 166 c 0,10,11
 1311 217 1311 217 1311 270 c 0,12,13
 1311 280 1311 280 1315 306 c 128,-1,14
 1319 332 1319 332 1477 518 c 0,15,16
 1528 577 1528 577 1632 700 c 1,17,18
 1685 794 1685 794 1710 952 c 0,19,20
 1718 1003 1718 1003 1722 1092 c 1,21,22
 1730 1121 1730 1121 1706.5 1140 c 128,-1,23
 1683 1159 1683 1159 1626 1159 c 2,24,-1
 1466 1159 l 2,25,26
 1429 1159 1429 1159 1413 1155 c 128,-1,27
 1397 1151 1397 1151 1366 1131.5 c 128,-1,28
 1335 1112 1335 1112 1327 1075 c 2,29,-1
 1294 918 l 1,30,-1
 1020 918 l 1,31,-1
 1051 1065 l 2,32,33
 1059 1102 1059 1102 1030 1130.5 c 128,-1,34
 1001 1159 1001 1159 944 1159 c 2,35,-1
 750 1159 l 2,36,37
 703 1159 703 1159 669 1135.5 c 128,-1,38
 635 1112 635 1112 627 1075 c 2,39,-1
 596 944 l 1,40,41
 596 893 596 893 612 883 c 1,42,43
 628 854 628 854 657 854 c 2,44,-1
 729 854 l 1,45,-1
 678 623 l 1,46,-1
 553 625 l 2,47,48
 428 625 428 625 362 707 c 1,49,50
 309 764 309 764 309 846 c 0,51,52
 309 860 309 860 313 899 c 1,53,-1
 356 1102 l 2,54,55
 374 1188 374 1188 431.5 1253.5 c 128,-1,56
 489 1319 489 1319 573 1352 c 1,57,58
 649 1389 649 1389 739 1389 c 2,59,-1
 1020 1389 l 2,60,61
 1118 1389 1118 1389 1169 1350 c 1,62,63
 1206 1332 1206 1332 1231 1284 c 1,64,65
 1239 1294 1239 1294 1260.5 1315.5 c 128,-1,66
 1282 1337 1282 1337 1311 1348 c 1,67,68
 1377 1391 1377 1391 1456 1391 c 2,69,-1
 1722 1391 l 2,70,71
 1874 1391 1874 1391 1946 1309 c 1,72,73
 2007 1248 2007 1248 2007 1157 c 0,74,75
 2007 1128 2007 1128 1999 1096 c 2,76,-1
 1927 756 l 2,77,78
 1913 690 1913 690 1868 629 c 0,79,80
 1852 606 1852 606 1671 412 c 0,81,82
 1642 383 1642 383 1632 373 c 0,83,84
 1589 330 1589 330 1587 319 c 0,85,86
 1583 282 1583 282 1608 272 c 1,87,88
 1622 262 1622 262 1651.5 270.5 c 128,-1,89
 1681 279 1681 279 1692 293 c 1,90,-1
 1980 584 l 1,91,-1
 2167 444 l 1,0,-1
EndSplineSet
EndChar

StartChar: evowel
Encoding: 119 3214 113
Width: 2039
Flags: W
LayerCount: 2
Fore
SplineSet
2193 311 m 2,0,1
 2168 182 2168 182 2063 91 c 128,-1,2
 1958 0 1958 0 1843 0 c 2,3,-1
 1397 2 l 2,4,5
 1315 2 1315 2 1257 45 c 1,6,7
 1226 63 1226 63 1212 96 c 1,8,9
 1183 63 1183 63 1147 41 c 0,10,11
 1079 -2 1079 -2 1014 -2 c 2,12,-1
 674 0 l 2,13,14
 533 0 533 0 451 82 c 1,15,16
 392 148 392 148 391 233 c 0,17,18
 391 249 391 249 395 289 c 1,19,-1
 514 850 l 1,20,-1
 887 850 l 2,21,22
 953 850 953 850 1004 803 c 128,-1,23
 1055 756 1055 756 1071 698.5 c 128,-1,24
 1087 641 1087 641 1089.5 583.5 c 128,-1,25
 1092 526 1092 526 1092 494 c 1,26,-1
 823 426 l 1,27,28
 823 520 823 520 793 578 c 0,29,30
 779 609 779 609 739 616 c 1,31,-1
 680 346 l 1,32,33
 678 301 678 301 700 264 c 1,34,35
 731 231 731 231 778 231 c 2,36,-1
 1001 231 l 2,37,38
 1044 231 1044 231 1081 262 c 0,39,40
 1091 272 1091 272 1109.5 294.5 c 128,-1,41
 1128 317 1128 317 1133 342 c 2,42,-1
 1163 500 l 1,43,-1
 1444 500 l 1,44,-1
 1415 360 l 2,45,46
 1413 352 1413 352 1413 343 c 128,-1,47
 1413 334 1413 334 1413 332 c 0,48,49
 1413 303 1413 303 1436 274 c 1,50,51
 1473 233 1473 233 1526 233 c 2,52,-1
 1772 233 l 2,53,54
 1823 233 1823 233 1868 273 c 128,-1,55
 1913 313 1913 313 1923 365 c 2,56,-1
 2060 1014 l 2,57,58
 2064 1037 2064 1037 2064 1051 c 0,59,60
 2064 1090 2064 1090 2031.5 1126.5 c 128,-1,61
 1999 1163 1999 1163 1927 1163 c 2,62,-1
 1712 1163 l 1,63,-1
 1759 1395 l 1,64,-1
 2003 1395 l 2,65,66
 2116 1395 2116 1395 2195 1350 c 1,67,68
 2283 1305 2283 1305 2320 1223 c 0,69,70
 2345 1166 2345 1166 2345 1108 c 0,71,72
 2345 1077 2345 1077 2337 1044 c 2,73,-1
 2193 311 l 2,0,1
EndSplineSet
EndChar

StartChar: eevowel
Encoding: 120 3215 114
Width: 2033
Flags: W
LayerCount: 2
Fore
SplineSet
2193 340 m 1,0,1
 2177 252 2177 252 2101 166 c 1,2,3
 2068 125 2068 125 2009 82 c 0,4,5
 1984 64 1984 64 1939 45.5 c 128,-1,6
 1894 27 1894 27 1836 12.5 c 128,-1,7
 1778 -2 1778 -2 1718 -2 c 2,8,-1
 1403 6 l 2,9,10
 1329 6 1329 6 1272 49 c 1,11,12
 1235 86 1235 86 1227 131 c 1,13,14
 1110 4 1110 4 965 4 c 2,15,-1
 702 4 l 2,16,17
 548 4 548 4 461 98 c 1,18,19
 393 166 393 166 393 260 c 0,20,21
 393 289 393 289 401 322 c 2,22,-1
 516 856 l 1,23,-1
 887 856 l 2,24,25
 953 856 953 856 997.5 813 c 128,-1,26
 1042 770 1042 770 1073 690 c 1,27,28
 1096 618 1096 618 1096 500 c 1,29,-1
 819 434 l 1,30,31
 819 491 819 491 814 524 c 128,-1,32
 809 557 809 557 791 582 c 1,33,34
 775 613 775 613 741 621 c 1,35,-1
 682 350 l 1,36,37
 682 303 682 303 705 270 c 1,38,39
 736 233 736 233 782 233 c 2,40,-1
 1001 233 l 2,41,42
 1030 233 1030 233 1059 246 c 0,43,44
 1063 248 1063 248 1078.5 261 c 128,-1,45
 1094 274 1094 274 1112 296.5 c 128,-1,46
 1130 319 1130 319 1135 344 c 2,47,-1
 1165 502 l 1,48,-1
 1446 502 l 1,49,-1
 1417 362 l 2,50,51
 1415 352 1415 352 1415 330 c 0,52,53
 1415 301 1415 301 1432 270 c 1,54,55
 1465 231 1465 231 1518 231 c 2,56,-1
 1772 231 l 2,57,58
 1817 231 1817 231 1862 270 c 0,59,60
 1887 293 1887 293 1902 314.5 c 128,-1,61
 1917 336 1917 336 1921 365 c 2,62,-1
 2058 1014 l 2,63,64
 2062 1037 2062 1037 2062 1047 c 0,65,66
 2062 1090 2062 1090 2032 1120 c 1,67,68
 1999 1163 1999 1163 1923 1163 c 2,69,-1
 1726 1163 l 1,70,-1
 1716 1120 l 1,71,72
 1698 1032 1698 1032 1602.5 977 c 128,-1,73
 1507 922 1507 922 1403 922 c 2,74,-1
 1128 922 l 2,75,76
 1009 922 1009 922 928 997 c 1,77,78
 869 1063 869 1063 868 1139 c 0,79,80
 868 1149 868 1149 872 1182 c 1,81,-1
 918 1391 l 1,82,-1
 1194 1391 l 1,83,-1
 1155 1210 l 2,84,85
 1153 1192 1153 1192 1167 1167 c 1,86,87
 1190 1151 1190 1151 1208 1151 c 2,88,-1
 1397 1151 l 2,89,90
 1413 1151 1413 1151 1435.5 1173.5 c 128,-1,91
 1458 1196 1458 1196 1466 1229 c 2,92,-1
 1499 1391 l 1,93,-1
 2001 1391 l 2,94,95
 2120 1391 2120 1391 2200 1346 c 1,96,97
 2290 1301 2290 1301 2322 1219 c 1,98,99
 2351 1162 2351 1162 2351 1104 c 0,100,101
 2351 1073 2351 1073 2343 1040 c 2,102,-1
 2193 340 l 1,0,1
EndSplineSet
EndChar

StartChar: aivowel
Encoding: 121 3216 115
Width: 2158
Flags: W
LayerCount: 2
Fore
SplineSet
2304 315 m 1,0,1
 2279 184 2279 184 2156.5 90 c 128,-1,2
 2034 -4 2034 -4 1874 -4 c 1,3,-1
 1563 4 l 1,4,5
 1467 4 1467 4 1405 47 c 128,-1,6
 1343 90 1343 90 1319 143 c 1,7,8
 1280 104 1280 104 1260.5 89 c 128,-1,9
 1241 74 1241 74 1202 51 c 0,10,11
 1120 4 1120 4 1047 4 c 2,12,-1
 678 6 l 2,13,14
 537 6 537 6 455 88 c 1,15,16
 396 154 396 154 395 240 c 0,17,18
 395 256 395 256 399 295 c 1,19,-1
 461 592 l 2,20,21
 492 731 492 731 608 817 c 1,22,23
 661 860 661 860 731 883.5 c 128,-1,24
 801 907 801 907 868 907 c 2,25,-1
 1300 907 l 1,26,-1
 1235 604 l 2,27,28
 1210 481 1210 481 1092 393 c 1,29,30
 1026 340 1026 340 963.5 316.5 c 128,-1,31
 901 293 901 293 815 293 c 1,32,-1
 791 518 l 1,33,34
 838 518 838 518 860.5 525 c 128,-1,35
 883 532 883 532 911 551 c 0,36,37
 956 580 956 580 958 610 c 1,38,-1
 973 670 l 1,39,-1
 893 670 l 2,40,41
 825 670 825 670 784 640 c 128,-1,42
 743 610 743 610 735 573 c 2,43,-1
 688 369 l 1,44,45
 680 312 680 312 706.5 268.5 c 128,-1,46
 733 225 733 225 784 225 c 2,47,-1
 1036 225 l 2,48,49
 1102 225 1102 225 1161.5 269 c 128,-1,50
 1221 313 1221 313 1231 367 c 2,51,-1
 1253 467 l 1,52,-1
 1534 467 l 1,53,-1
 1511 367 l 2,54,55
 1509 357 1509 357 1509 340 c 0,56,57
 1509 303 1509 303 1534 270 c 1,58,59
 1573 227 1573 227 1630 227 c 2,60,-1
 1913 227 l 2,61,62
 1931 227 1931 227 1950.5 238.5 c 128,-1,63
 1970 250 1970 250 1989 266 c 0,64,65
 2034 311 2034 311 2044 369 c 2,66,-1
 2189 1047 l 2,67,68
 2193 1072 2193 1072 2189 1088 c 128,-1,69
 2185 1104 2185 1104 2171 1129.5 c 128,-1,70
 2157 1155 2157 1155 2103 1155 c 2,71,-1
 1851 1155 l 2,72,73
 1812 1155 1812 1155 1776 1130 c 1,74,75
 1751 1105 1751 1105 1741 1063 c 2,76,-1
 1722 969 l 1,77,-1
 1446 969 l 1,78,-1
 1468 1071 l 2,79,80
 1476 1102 1476 1102 1439.5 1128.5 c 128,-1,81
 1403 1155 1403 1155 1329 1155 c 2,82,-1
 967 1155 l 2,83,84
 920 1155 920 1155 883 1124 c 1,85,86
 838 1095 838 1095 791 1016 c 1,87,-1
 602 1147 l 1,88,89
 690 1270 690 1270 784.5 1328 c 128,-1,90
 879 1386 879 1386 973 1386 c 2,91,-1
 1432 1386 l 2,92,93
 1534 1386 1534 1386 1585 1343 c 1,94,95
 1632 1314 1632 1314 1649 1264 c 1,96,97
 1667 1287 1667 1287 1692.5 1306 c 128,-1,98
 1718 1325 1718 1325 1747 1341 c 0,99,100
 1819 1384 1819 1384 1901 1384 c 2,101,-1
 2191 1384 l 2,102,103
 2281 1384 2281 1384 2355 1348.5 c 128,-1,104
 2429 1313 2429 1313 2458 1245 c 0,105,106
 2472 1208 2472 1208 2476 1189.5 c 128,-1,107
 2480 1171 2480 1171 2480 1143 c 0,108,109
 2480 1133 2480 1133 2476 1100 c 1,110,-1
 2304 315 l 1,0,1
EndSplineSet
EndChar

StartChar: ovowel
Encoding: 122 3218 116
Width: 1974
Flags: W
LayerCount: 2
Fore
SplineSet
2107 254 m 2,0,1
 2097 203 2097 203 2073.5 161 c 128,-1,2
 2050 119 2050 119 2007 80 c 0,3,4
 1921 4 1921 4 1825 4 c 2,5,-1
 1376 4 l 2,6,7
 1302 4 1302 4 1255 47 c 1,8,9
 1230 63 1230 63 1212 100 c 1,10,11
 1194 69 1194 69 1157 47 c 0,12,13
 1089 4 1089 4 1032 4 c 2,14,-1
 621 4 l 2,15,16
 506 4 506 4 424 72 c 0,17,18
 365 123 365 123 365 195 c 0,19,20
 365 211 365 211 369 240 c 2,21,-1
 434 551 l 1,22,-1
 735 713 l 1,23,24
 809 756 809 756 875.5 793.5 c 128,-1,25
 942 831 942 831 979 856 c 0,26,27
 1032 889 1032 889 1040 928 c 2,28,-1
 1077 1102 l 2,29,30
 1081 1125 1081 1125 1067 1141 c 128,-1,31
 1053 1157 1053 1157 1024 1157 c 2,32,-1
 842 1157 l 1,33,-1
 823 1071 l 2,34,35
 821 1053 821 1053 833.5 1033.5 c 128,-1,36
 846 1014 846 1014 877 1014 c 2,37,-1
 928 1014 l 1,38,-1
 877 782 l 1,39,-1
 754 782 l 2,40,41
 643 782 643 782 584 870 c 1,42,43
 537 927 537 927 537 1008 c 0,44,45
 537 1039 537 1039 545 1071 c 2,46,-1
 612 1389 l 1,47,-1
 1133 1389 l 2,48,49
 1207 1389 1207 1389 1264 1363 c 128,-1,50
 1321 1337 1321 1337 1352 1284 c 0,51,52
 1375 1245 1375 1245 1374 1206 c 0,53,54
 1374 1196 1374 1196 1370 1174 c 2,55,-1
 1305 862 l 1,56,57
 1291 805 1291 805 1222 752.5 c 128,-1,58
 1153 700 1153 700 920 571 c 2,59,-1
 690 446 l 1,60,-1
 666 322 l 2,61,62
 658 289 658 289 676 260 c 1,63,64
 701 235 701 235 737 236 c 2,65,-1
 1004 236 l 2,66,67
 1035 236 1035 236 1074.5 268.5 c 128,-1,68
 1114 301 1114 301 1122 338 c 2,69,-1
 1145 449 l 1,70,-1
 1421 449 l 1,71,-1
 1403 348 l 2,72,73
 1401 340 1401 340 1401 322 c 0,74,75
 1401 293 1401 293 1417 270 c 1,76,77
 1448 237 1448 237 1499 238 c 2,78,-1
 1733 238 l 2,79,80
 1764 238 1764 238 1801.5 268.5 c 128,-1,81
 1839 299 1839 299 1849 338 c 1,82,-1
 1888 528 l 2,83,84
 1896 561 1896 561 1878 579.5 c 128,-1,85
 1860 598 1860 598 1823 598 c 2,86,-1
 1726 598 l 1,87,-1
 1774 827 l 1,88,-1
 1997 827 l 2,89,90
 2101 827 2101 827 2145 775 c 128,-1,91
 2189 723 2189 723 2189 666 c 0,92,93
 2189 650 2189 650 2185 621 c 2,94,-1
 2107 254 l 2,0,1
EndSplineSet
EndChar

StartChar: oovowel
Encoding: 123 3219 117
Width: 1974
Flags: W
LayerCount: 2
Fore
SplineSet
2111 287 m 2,0,1
 2095 211 2095 211 2043 144.5 c 128,-1,2
 1991 78 1991 78 1933 47 c 1,3,4
 1865 4 1865 4 1798 4 c 2,5,-1
 1374 4 l 2,6,7
 1300 4 1300 4 1253 47 c 1,8,9
 1220 70 1220 70 1206 109 c 1,10,11
 1198 101 1198 101 1167 76 c 0,12,13
 1159 72 1159 72 1128 47 c 1,14,15
 1062 8 1062 8 997 8 c 2,16,-1
 616 8 l 2,17,18
 501 8 501 8 420 76 c 0,19,20
 361 127 361 127 360 201 c 0,21,22
 360 217 360 217 365 246 c 2,23,-1
 430 559 l 1,24,-1
 731 721 l 2,25,26
 745 729 745 729 883 809 c 0,27,28
 963 854 963 854 977 864 c 0,29,30
 1034 901 1034 901 1042 940 c 2,31,-1
 1073 1087 l 2,32,33
 1081 1118 1081 1118 1057 1147 c 1,34,35
 1041 1172 1041 1172 995 1171 c 2,36,-1
 844 1171 l 1,37,-1
 827 1085 l 2,38,39
 823 1067 823 1067 837.5 1045.5 c 128,-1,40
 852 1024 852 1024 881 1024 c 2,41,-1
 932 1024 l 1,42,-1
 885 791 l 1,43,-1
 762 791 l 2,44,45
 651 791 651 791 590 879 c 0,46,47
 545 940 545 940 545 1016 c 0,48,49
 545 1045 545 1045 553 1083 c 2,50,-1
 621 1401 l 1,51,-1
 795 1401 l 1,52,53
 643 1516 643 1516 659 1591 c 2,54,-1
 696 1763 l 2,55,56
 712 1845 712 1845 803 1896 c 1,57,58
 877 1947 877 1947 987 1948 c 2,59,-1
 1274 1948 l 1,60,-1
 1227 1714 l 1,61,-1
 1018 1714 l 1,62,-1
 973 1706 l 1,63,64
 959 1698 959 1698 958 1683 c 1,65,-1
 940 1602 l 2,66,67
 926 1534 926 1534 1116 1403 c 1,68,-1
 1139 1403 l 2,69,70
 1213 1403 1213 1403 1270 1377.5 c 128,-1,71
 1327 1352 1327 1352 1358 1298 c 1,72,73
 1376 1261 1376 1261 1376 1219 c 0,74,75
 1376 1196 1376 1196 1374 1186 c 2,76,-1
 1309 868 l 1,77,78
 1295 811 1295 811 1221 754 c 0,79,80
 1168 711 1168 711 922 578 c 0,81,82
 863 545 863 545 772 494 c 0,83,84
 715 463 715 463 698 455 c 1,85,-1
 670 326 l 1,86,87
 666 297 666 297 682 264 c 1,88,89
 711 235 711 235 743 236 c 2,90,-1
 1010 236 l 2,91,92
 1033 236 1033 236 1079 266 c 1,93,94
 1118 305 1118 305 1126 338 c 2,95,-1
 1151 453 l 1,96,-1
 1427 453 l 1,97,-1
 1399 324 l 2,98,99
 1391 287 1391 287 1421.5 260 c 128,-1,100
 1452 233 1452 233 1499 233 c 2,101,-1
 1733 233 l 2,102,103
 1756 233 1756 233 1802 264 c 1,104,105
 1841 297 1841 297 1849 336 c 2,106,-1
 1892 530 l 1,107,108
 1896 567 1896 567 1880 584 c 1,109,110
 1857 598 1857 598 1827 598 c 2,111,-1
 1731 598 l 1,112,-1
 1778 831 l 1,113,-1
 1974 831 l 2,114,115
 2083 831 2083 831 2136 752 c 1,116,117
 2179 695 2179 695 2179 621 c 0,118,119
 2179 584 2179 584 2175 567 c 2,120,-1
 2111 287 l 2,0,1
EndSplineSet
EndChar

StartChar: auvowel
Encoding: 124 3220 118
Width: 1966
Flags: W
LayerCount: 2
Fore
SplineSet
2324 1040 m 1,0,-1
 1667 1040 l 2,1,2
 1558 1040 1558 1040 1499 1124 c 1,3,4
 1456 1175 1456 1175 1456 1251 c 0,5,6
 1456 1284 1456 1284 1464 1323 c 2,7,-1
 1516 1569 l 1,8,-1
 2089 1569 l 1,9,-1
 2042 1337 l 1,10,-1
 1718 1337 l 1,11,-1
 1716 1323 l 2,12,13
 1714 1313 1714 1313 1724 1288 c 1,14,15
 1740 1270 1740 1270 1765 1270 c 2,16,-1
 2097 1270 l 1,17,-1
 2173 1624 l 2,18,19
 2181 1663 2181 1663 2152.5 1691.5 c 128,-1,20
 2124 1720 2124 1720 2079 1720 c 2,21,-1
 1522 1720 l 1,22,23
 1530 1702 1530 1702 1526 1679 c 2,24,-1
 1516 1626 l 1,25,26
 1500 1552 1500 1552 1446 1505 c 1,27,28
 1380 1454 1380 1454 1323 1454 c 2,29,-1
 645 1454 l 1,30,-1
 692 1686 l 1,31,-1
 1270 1686 l 1,32,-1
 1298 1694 l 1,33,-1
 1317 1718 l 1,34,35
 1292 1720 1292 1720 1276 1724 c 1,36,-1
 700 1722 l 1,37,-1
 748 1956 l 1,38,-1
 2161 1956 l 2,39,40
 2261 1956 2261 1956 2335 1923 c 1,41,42
 2415 1880 2415 1880 2443.5 1824.5 c 128,-1,43
 2472 1769 2472 1769 2472 1722 c 0,44,45
 2472 1712 2472 1712 2468 1683 c 1,46,-1
 2324 1040 l 1,0,-1
2107 260 m 2,47,48
 2097 209 2097 209 2073.5 166 c 128,-1,49
 2050 123 2050 123 2011 80 c 1,50,51
 1925 4 1925 4 1829 4 c 2,52,-1
 1370 4 l 2,53,54
 1302 4 1302 4 1255 47 c 1,55,56
 1224 65 1224 65 1208 104 c 1,57,58
 1192 81 1192 81 1170.5 66 c 128,-1,59
 1149 51 1149 51 1139 43 c 0,60,61
 1078 4 1078 4 1026 4 c 2,62,-1
 643 6 l 2,63,64
 512 6 512 6 436 92 c 0,65,66
 377 160 377 160 377 242 c 0,67,68
 377 258 377 258 381 297 c 1,69,-1
 434 553 l 1,70,-1
 737 715 l 1,71,72
 811 758 811 758 884.5 802 c 128,-1,73
 958 846 958 846 977 860 c 1,74,75
 1034 897 1034 897 1042 936 c 2,76,-1
 1083 1135 l 1,77,78
 1087 1168 1087 1168 1022 1167 c 2,79,-1
 840 1167 l 1,80,-1
 823 1081 l 2,81,82
 819 1063 819 1063 833.5 1041.5 c 128,-1,83
 848 1020 848 1020 877 1020 c 2,84,-1
 956 1020 l 1,85,-1
 909 786 l 1,86,-1
 752 786 l 2,87,88
 643 786 643 786 582 874 c 1,89,90
 539 940 539 940 539 1014 c 0,91,92
 539 1047 539 1047 547 1079 c 2,93,-1
 614 1397 l 1,94,-1
 1135 1397 l 2,95,96
 1209 1397 1209 1397 1270 1368 c 128,-1,97
 1331 1339 1331 1339 1352.5 1296 c 128,-1,98
 1374 1253 1374 1253 1374 1210 c 0,99,100
 1374 1187 1374 1187 1372 1178 c 2,101,-1
 1307 860 l 1,102,103
 1293 813 1293 813 1241 774 c 1,104,105
 1227 760 1227 760 1191 733.5 c 128,-1,106
 1155 707 1155 707 1126 692 c 0,107,108
 1118 688 1118 688 1065 657 c 0,109,110
 975 606 975 606 899 563 c 2,111,-1
 696 449 l 1,112,-1
 668 319 l 2,113,114
 660 282 660 282 682 260 c 1,115,116
 698 229 698 229 741 229 c 2,117,-1
 1036 229 l 2,118,119
 1061 229 1061 229 1083 258 c 0,120,121
 1097 274 1097 274 1109.5 295.5 c 128,-1,122
 1122 317 1122 317 1124 334 c 2,123,-1
 1149 449 l 1,124,-1
 1423 449 l 1,125,-1
 1395 319 l 2,126,127
 1391 294 1391 294 1409 258 c 1,128,129
 1427 229 1427 229 1466 229 c 2,130,-1
 1700 229 l 2,131,132
 1747 229 1747 229 1794 262 c 1,133,134
 1839 305 1839 305 1847 334 c 2,135,-1
 1890 528 l 1,136,137
 1894 561 1894 561 1871.5 577.5 c 128,-1,138
 1849 594 1849 594 1819 594 c 2,139,-1
 1729 594 l 1,140,-1
 1776 827 l 1,141,-1
 2001 827 l 2,142,143
 2058 827 2058 827 2091 816 c 128,-1,144
 2124 805 2124 805 2152 768 c 1,145,146
 2189 729 2189 729 2189 668 c 0,147,148
 2189 654 2189 654 2185 621 c 1,149,-1
 2107 260 l 2,47,48
EndSplineSet
EndChar

StartChar: ka.base
Encoding: 126 -1 120
Width: 1134
Flags: W
AnchorPoint: "s" 569 -127 basechar 0
LayerCount: 2
Fore
SplineSet
1731 788 m 1,0,-1
 1356 788 l 1,1,2
 1393 759 1393 759 1423.5 723.5 c 128,-1,3
 1454 688 1454 688 1473 655 c 1,4,5
 1516 589 1516 589 1516 522 c 0,6,7
 1516 493 1516 493 1513 483 c 2,8,-1
 1470 279 l 1,9,10
 1452 170 1452 170 1352 94 c 1,11,12
 1307 57 1307 57 1263 36.5 c 128,-1,13
 1219 16 1219 16 1171 16 c 2,14,-1
 618 14 l 2,15,16
 516 14 516 14 465 74 c 1,17,18
 422 117 422 117 422 176 c 0,19,20
 422 186 422 186 426 219 c 1,21,-1
 477 463 l 1,22,23
 502 594 502 594 778 795 c 1,24,-1
 367 795 l 1,25,-1
 418 1026 l 1,26,-1
 973 1026 l 1,27,-1
 1004 1171 l 1,28,-1
 449 1171 l 1,29,-1
 496 1403 l 1,30,-1
 1509 1403 l 1,31,-1
 1462 1171 l 1,32,-1
 1282 1171 l 1,33,-1
 1251 1026 l 1,34,-1
 1782 1026 l 1,35,-1
 1731 788 l 1,0,-1
1206 334 m 2,36,-1
 1231 457 l 2,37,38
 1235 480 1235 480 1235 489 c 0,39,40
 1235 536 1235 536 1199 586.5 c 128,-1,41
 1163 637 1163 637 1130.5 667.5 c 128,-1,42
 1098 698 1098 698 1051 727 c 1,43,44
 777 598 777 598 752 469 c 1,45,-1
 721 324 l 2,46,47
 717 299 717 299 731 266 c 1,48,49
 754 250 754 250 793 250 c 1,50,-1
 791 242 l 1,51,-1
 1137 242 l 2,52,53
 1151 242 1151 242 1176 260 c 1,54,55
 1198 291 1198 291 1206 334 c 2,36,-1
EndSplineSet
EndChar

StartChar: ka.imathra
Encoding: 127 -1 121
Width: 1333
Flags: W
AnchorPoint: "s" 553 -164 basechar 0
LayerCount: 2
Fore
SplineSet
1593 791 m 1,0,-1
 1317 791 l 1,1,2
 1354 760 1354 760 1391 721 c 0,3,4
 1420 690 1420 690 1450 645 c 1,5,6
 1493 569 1493 569 1493 500 c 0,7,8
 1493 484 1493 484 1489 455 c 2,9,-1
 1442 221 l 2,10,11
 1434 184 1434 184 1407 144 c 128,-1,12
 1380 104 1380 104 1348 74 c 1,13,14
 1268 13 1268 13 1171 12 c 2,15,-1
 612 14 l 2,16,17
 555 14 555 14 518 27.5 c 128,-1,18
 481 41 481 41 449 72 c 1,19,20
 404 119 404 119 403 184 c 0,21,22
 403 207 403 207 406 217 c 2,23,-1
 459 483 l 1,24,25
 473 536 473 536 547 604 c 0,26,27
 570 622 570 622 637 676 c 0,28,29
 748 762 748 762 784 791 c 1,30,-1
 467 791 l 1,31,-1
 514 1024 l 1,32,-1
 1049 1024 l 1,33,-1
 1260 1223 l 1,34,-1
 1319 1509 l 2,35,36
 1321 1517 1321 1517 1319 1519.5 c 128,-1,37
 1317 1522 1317 1522 1315 1524 c 1,38,-1
 1192 1524 l 1,39,-1
 1169 1427 l 1,40,-1
 1174 1413 l 1,41,-1
 1198 1403 l 1,42,-1
 1249 1403 l 1,43,-1
 1202 1171 l 1,44,-1
 1065 1171 l 2,45,46
 979 1171 979 1171 913 1229 c 1,47,48
 874 1268 874 1268 874 1321 c 0,49,50
 874 1344 874 1344 877 1354 c 2,51,-1
 961 1755 l 1,52,-1
 1421 1755 l 2,53,54
 1517 1755 1517 1755 1569 1698 c 1,55,56
 1608 1661 1608 1661 1608 1599 c 0,57,58
 1608 1566 1608 1566 1604 1550 c 2,59,-1
 1524 1178 l 1,60,-1
 1358 1024 l 1,61,-1
 1640 1024 l 1,62,-1
 1593 791 l 1,0,-1
1178 293 m 2,63,-1
 1210 455 l 2,64,65
 1224 527 1224 527 1022 717 c 1,66,67
 739 522 739 522 723 442 c 2,68,-1
 686 266 l 2,69,70
 684 252 684 252 699.5 240.5 c 128,-1,71
 715 229 715 229 731 229 c 2,72,-1
 1122 229 l 2,73,74
 1136 229 1136 229 1155 249.5 c 128,-1,75
 1174 270 1174 270 1178 293 c 2,63,-1
EndSplineSet
LCarets2: 1 0
EndChar

StartChar: ka.sub
Encoding: 128 -1 122
Width: 352
Flags: W
AnchorPoint: "Sub" -373 594 mark 0
AnchorPoint: "Sub" 492 -848 basemark 0
LayerCount: 2
Fore
SplineSet
668 -315 m 1,0,-1
 449 -315 l 1,1,2
 543 -403 543 -403 526 -479 c 2,3,-1
 494 -639 l 2,4,5
 478 -721 478 -721 389 -782 c 1,6,7
 289 -839 289 -839 195 -840 c 2,8,-1
 -158 -840 l 1,9,10
 -205 -836 -205 -836 -242 -820.5 c 128,-1,11
 -279 -805 -279 -805 -309 -772 c 1,12,13
 -366 -721 -366 -721 -367 -649 c 0,14,15
 -367 -641 -367 -641 -362 -612 c 2,16,-1
 -346 -522 l 1,17,18
 -317 -420 -317 -420 -174 -311 c 1,19,-1
 -426 -311 l 1,20,-1
 -383 -109 l 1,21,-1
 78 -109 l 1,22,-1
 240 29 l 2,23,24
 295 74 295 74 313 90 c 0,25,26
 344 115 344 115 358 131 c 0,27,28
 387 160 387 160 389 176 c 2,29,-1
 442 436 l 2,30,31
 452 489 452 489 324 543 c 1,32,-1
 526 682 l 1,33,34
 712 543 712 543 696 457 c 2,35,-1
 629 141 l 2,36,37
 627 123 627 123 607.5 97.5 c 128,-1,38
 588 72 588 72 557 41 c 1,39,-1
 358 -119 l 1,40,-1
 713 -119 l 1,41,-1
 668 -315 l 1,0,-1
260 -586 m 2,42,-1
 279 -489 l 2,43,44
 287 -452 287 -452 244 -399 c 1,45,46
 203 -356 203 -356 121 -326 c 1,47,48
 33 -351 33 -351 -24.5 -403 c 128,-1,49
 -82 -455 -82 -455 -92 -516 c 1,50,-1
 -109 -596 l 1,51,52
 -111 -619 -111 -619 -100 -635 c 1,53,54
 -75 -653 -75 -653 -39 -653 c 2,55,-1
 193 -653 l 2,56,57
 216 -653 216 -653 229 -635 c 1,58,59
 258 -606 258 -606 260 -586 c 2,42,-1
EndSplineSet
LCarets2: 1 0
EndChar

StartChar: ka_rvocalicmatra.sub
Encoding: 129 -1 123
Width: 698
Flags: W
LayerCount: 2
Fore
SplineSet
1309 -549 m 2,0,1
 1284 -672 1284 -672 1184 -754 c 1,2,3
 1084 -842 1084 -842 952 -842 c 2,4,-1
 139 -838 l 2,5,6
 35 -838 35 -838 -17.5 -776.5 c 128,-1,7
 -70 -715 -70 -715 -70 -655 c 0,8,9
 -70 -645 -70 -645 -66 -612 c 1,10,-1
 14 -229 l 1,11,-1
 262 -229 l 1,12,-1
 203 -184 l 1,13,14
 156 -137 156 -137 164 -90 c 2,15,-1
 203 100 l 2,16,17
 219 182 219 182 338 264 c 1,18,-1
 150 264 l 1,19,-1
 195 469 l 1,20,-1
 610 469 l 1,21,-1
 655 686 l 1,22,-1
 930 686 l 1,23,-1
 885 469 l 1,24,-1
 1294 469 l 1,25,-1
 1249 264 l 1,26,-1
 1018 264 l 1,27,28
 1041 254 1041 254 1063 223.5 c 128,-1,29
 1085 193 1085 193 1094.5 162 c 128,-1,30
 1104 131 1104 131 1100 104 c 2,31,-1
 1075 -14 l 2,32,33
 1052 -118 1052 -118 956 -188 c 1,34,35
 860 -268 860 -268 745 -268 c 2,36,-1
 580 -268 l 1,37,-1
 547 -428 l 1,38,-1
 227 -428 l 1,39,-1
 197 -582 l 2,40,41
 193 -600 193 -600 209 -604 c 1,42,43
 238 -627 238 -627 260 -627 c 2,44,-1
 965 -627 l 2,45,46
 981 -627 981 -627 1009.5 -589 c 128,-1,47
 1038 -551 1038 -551 1049 -498 c 2,48,-1
 1161 47 l 2,49,50
 1165 70 1165 70 1150 86 c 128,-1,51
 1135 102 1135 102 1083 127 c 1,52,-1
 1307 293 l 1,53,54
 1346 270 1346 270 1372.5 247.5 c 128,-1,55
 1399 225 1399 225 1417 195 c 1,56,57
 1442 144 1442 144 1442 96 c 0,58,59
 1442 82 1442 82 1438 53 c 2,60,-1
 1309 -549 l 2,0,1
827 16 m 1,61,-1
 846 106 l 2,62,63
 848 114 848 114 848 137 c 0,64,65
 848 174 848 174 829 203 c 1,66,67
 811 244 811 244 758 266 c 1,68,-1
 600 266 l 1,69,70
 543 237 543 237 502 194.5 c 128,-1,71
 461 152 461 152 459 115 c 1,72,-1
 428 -23 l 2,73,74
 424 -48 424 -48 438 -51 c 1,75,-1
 463 -68 l 1,76,-1
 778 -66 l 2,77,78
 792 -66 792 -66 807.5 -43.5 c 128,-1,79
 823 -21 823 -21 827 16 c 1,61,-1
EndSplineSet
EndChar

StartChar: kha
Encoding: 130 3222 124
Width: 2009
Flags: W
LayerCount: 2
Fore
SplineSet
2136 231 m 2,0,1
 2118 141 2118 141 2056 70 c 1,2,3
 1976 -4 1976 -4 1911 -4 c 2,4,-1
 1597 -4 l 2,5,6
 1515 -4 1515 -4 1427 70 c 1,7,-1
 1296 166 l 1,8,9
 1253 96 1253 96 1178 55 c 1,10,11
 1133 26 1133 26 1085.5 12 c 128,-1,12
 1038 -2 1038 -2 987 -2 c 2,13,-1
 487 -2 l 1,14,15
 450 2 450 2 414.5 14.5 c 128,-1,16
 379 27 379 27 352.5 47.5 c 128,-1,17
 326 68 326 68 314.5 90.5 c 128,-1,18
 303 113 303 113 303 137 c 0,19,20
 303 160 303 160 305 170 c 2,21,-1
 362 438 l 2,22,23
 378 524 378 524 453 582 c 1,24,25
 529 633 529 633 610 633 c 2,26,-1
 1034 633 l 2,27,28
 1116 633 1116 633 1153 604 c 1,29,-1
 1253 1073 l 2,30,31
 1255 1083 1255 1083 1255 1094.5 c 128,-1,32
 1255 1106 1255 1106 1255 1108 c 0,33,34
 1255 1126 1255 1126 1247 1140.5 c 128,-1,35
 1239 1155 1239 1155 1225 1155 c 2,36,-1
 958 1155 l 1,37,-1
 944 1147 l 1,38,39
 930 1129 930 1129 922 1090 c 2,40,-1
 877 864 l 1,41,-1
 596 864 l 1,42,-1
 657 1169 l 2,43,44
 675 1265 675 1265 764 1327 c 0,45,46
 803 1356 803 1356 854 1371 c 128,-1,47
 905 1386 905 1386 958 1386 c 2,48,-1
 1325 1386 l 2,49,50
 1436 1386 1436 1386 1495 1307 c 0,51,52
 1540 1250 1540 1250 1540 1169 c 0,53,54
 1540 1132 1540 1132 1536 1114 c 2,55,-1
 1391 426 l 1,56,-1
 1552 268 l 1,57,58
 1599 217 1599 217 1671 217 c 2,59,-1
 1804 217 l 2,60,61
 1827 217 1827 217 1837 236 c 1,62,63
 1860 261 1860 261 1868 303 c 2,64,-1
 2036 1092 l 1,65,66
 2040 1123 2040 1123 2023 1133 c 1,67,68
 2007 1149 2007 1149 1970 1149 c 2,69,-1
 1698 1149 l 1,70,-1
 1745 1378 l 1,71,-1
 2114 1378 l 2,72,73
 2167 1378 2167 1378 2208 1364 c 128,-1,74
 2249 1350 2249 1350 2277 1313 c 1,75,76
 2328 1256 2328 1256 2329 1194 c 0,77,78
 2329 1180 2329 1180 2324 1147 c 1,79,-1
 2136 231 l 2,0,1
1067 279 m 1,80,-1
 1081 336 l 1,81,82
 1044 393 1044 393 936 393 c 2,83,-1
 674 393 l 2,84,85
 643 393 643 393 621 385 c 2,86,-1
 606 381 l 1,87,-1
 578 254 l 1,88,89
 582 238 582 238 591 229.5 c 128,-1,90
 600 221 600 221 623 221 c 2,91,-1
 977 221 l 2,92,93
 1008 221 1008 221 1032 244 c 1,94,95
 1057 261 1057 261 1067 279 c 1,80,-1
EndSplineSet
LCarets2: 1 0
EndChar

StartChar: kha.base
Encoding: 131 -1 125
Width: 1662
Flags: W
LayerCount: 2
Fore
SplineSet
2140 231 m 1,0,1
 2122 135 2122 135 2052 65.5 c 128,-1,2
 1982 -4 1982 -4 1909 -4 c 1,3,-1
 1905 0 l 1,4,-1
 1595 0 l 2,5,6
 1515 0 1515 0 1427 74 c 1,7,-1
 1309 154 l 1,8,9
 1280 97 1280 97 1188 48.5 c 128,-1,10
 1096 0 1096 0 991 0 c 2,11,-1
 510 0 l 2,12,13
 410 0 410 0 352 47 c 0,14,15
 327 65 327 65 316 88 c 128,-1,16
 305 111 305 111 305 135 c 0,17,18
 305 158 305 158 307 168 c 2,19,-1
 365 436 l 2,20,21
 381 518 381 518 454.5 573.5 c 128,-1,22
 528 629 528 629 625 629 c 2,23,-1
 1036 629 l 2,24,25
 1118 629 1118 629 1155 600 c 1,26,-1
 1260 1098 l 2,27,28
 1264 1121 1264 1121 1253 1143 c 1,29,30
 1243 1153 1243 1153 1225 1153 c 2,31,-1
 991 1153 l 2,32,33
 966 1153 966 1153 950 1137.5 c 128,-1,34
 934 1122 934 1122 926 1085 c 2,35,-1
 881 860 l 1,36,-1
 604 860 l 1,37,-1
 666 1165 l 2,38,39
 684 1261 684 1261 768 1322.5 c 128,-1,40
 852 1384 852 1384 967 1384 c 2,41,-1
 1335 1384 l 2,42,43
 1446 1384 1446 1384 1505 1305 c 1,44,45
 1550 1252 1550 1252 1550 1178 c 0,46,47
 1550 1147 1550 1147 1542 1114 c 2,48,-1
 1397 424 l 1,49,-1
 1565 299 l 1,50,51
 1637 219 1637 219 1681 219 c 2,52,-1
 1847 219 l 2,53,54
 1861 219 1861 219 1866 242 c 2,55,-1
 2017 948 l 2,56,57
 2021 977 2021 977 2021 991 c 0,58,59
 2021 1052 2021 1052 1982 1092 c 0,60,61
 1925 1151 1925 1151 1835 1151 c 2,62,-1
 1712 1151 l 1,63,-1
 1759 1380 l 1,64,-1
 2019 1380 l 1,65,66
 2128 1366 2128 1366 2200 1305 c 1,67,68
 2233 1272 2233 1272 2255 1235 c 128,-1,69
 2277 1198 2277 1198 2289.5 1151 c 128,-1,70
 2302 1104 2302 1104 2302 1036 c 0,71,72
 2302 993 2302 993 2294 950 c 2,73,-1
 2140 231 l 1,0,1
1079 283 m 2,74,-1
 1087 322 l 1,75,76
 1015 396 1015 396 907 395 c 2,77,-1
 653 395 l 2,78,79
 637 395 637 395 629 391 c 0,80,81
 625 391 625 391 623 383 c 2,82,-1
 594 256 l 1,83,84
 596 240 596 240 605 231.5 c 128,-1,85
 614 223 614 223 637 223 c 2,86,-1
 991 223 l 2,87,88
 1016 223 1016 223 1044.5 241.5 c 128,-1,89
 1073 260 1073 260 1079 283 c 2,74,-1
EndSplineSet
EndChar

StartChar: kha.imathra
Encoding: 132 -1 126
Width: 2009
Flags: W
LayerCount: 2
Fore
SplineSet
2140 233 m 1,0,1
 2122 133 2122 133 2052 63.5 c 128,-1,2
 1982 -6 1982 -6 1909 -6 c 1,3,-1
 1905 -2 l 1,4,-1
 1595 -2 l 2,5,6
 1515 -2 1515 -2 1427 72 c 1,7,-1
 1296 166 l 1,8,9
 1251 98 1251 98 1186 53 c 1,10,11
 1092 0 1092 0 1010 0 c 2,12,-1
 510 0 l 2,13,14
 410 0 410 0 352 47 c 0,15,16
 327 65 327 65 316 88 c 128,-1,17
 305 111 305 111 305 135 c 0,18,19
 305 158 305 158 307 168 c 2,20,-1
 365 440 l 2,21,22
 381 526 381 526 461 580 c 1,23,24
 527 633 527 633 629 633 c 2,25,-1
 1040 633 l 2,26,27
 1099 633 1099 633 1153 580 c 1,28,-1
 1257 1077 l 1,29,30
 1261 1116 1261 1116 1245 1139 c 1,31,32
 1222 1162 1222 1162 1198 1161 c 2,33,-1
 989 1161 l 2,34,35
 973 1161 973 1161 950 1147 c 1,36,37
 927 1122 927 1122 926 1094 c 1,38,-1
 879 864 l 1,39,-1
 602 864 l 1,40,-1
 668 1174 l 1,41,42
 684 1274 684 1274 772 1331 c 1,43,44
 811 1362 811 1362 862 1377.5 c 128,-1,45
 913 1393 913 1393 965 1393 c 2,46,-1
 1333 1393 l 2,47,48
 1444 1393 1444 1393 1503 1313 c 0,49,50
 1548 1256 1548 1256 1548 1176 c 0,51,52
 1548 1162 1548 1162 1544 1116 c 1,53,-1
 1399 430 l 1,54,-1
 1532 299 l 1,55,56
 1589 260 1589 260 1639.5 240.5 c 128,-1,57
 1690 221 1690 221 1741 221 c 2,58,-1
 1815 221 l 2,59,60
 1833 221 1833 221 1851.5 236.5 c 128,-1,61
 1870 252 1870 252 1872 270 c 2,62,-1
 2083 1278 l 1,63,64
 2091 1307 2091 1307 2082 1326.5 c 128,-1,65
 2073 1346 2073 1346 2054 1346 c 2,66,-1
 1980 1346 l 2,67,68
 1951 1346 1951 1346 1944 1343 c 1,69,-1
 1939 1333 l 1,70,-1
 1929 1294 l 1,71,72
 1929 1255 1929 1255 1934 1247 c 128,-1,73
 1939 1239 1939 1239 1944.5 1235 c 128,-1,74
 1950 1231 1950 1231 1954 1231 c 2,75,-1
 2064 1231 l 1,76,-1
 2013 999 l 1,77,-1
 1798 999 l 2,78,79
 1712 999 1712 999 1665 1065 c 1,80,81
 1628 1110 1628 1110 1628 1163 c 0,82,83
 1628 1177 1628 1177 1632 1210 c 1,84,-1
 1671 1399 l 2,85,86
 1687 1475 1687 1475 1767 1528 c 1,87,88
 1853 1579 1853 1579 1954 1579 c 2,89,-1
 2187 1579 l 2,90,91
 2287 1579 2287 1579 2341 1507 c 0,92,93
 2380 1454 2380 1454 2380 1393 c 0,94,95
 2380 1364 2380 1364 2372 1333 c 2,96,-1
 2140 233 l 1,0,1
1077 283 m 2,97,-1
 1085 313 l 1,98,99
 1003 395 1003 395 922 395 c 2,100,-1
 674 395 l 2,101,102
 641 395 641 395 631 391 c 1,103,-1
 623 383 l 1,104,-1
 600 272 l 1,105,-1
 600 236 l 1,106,-1
 610 221 l 1,107,-1
 993 221 l 2,108,109
 1011 221 1011 221 1042 240.5 c 128,-1,110
 1073 260 1073 260 1077 283 c 2,97,-1
EndSplineSet
LCarets2: 1 0
EndChar

StartChar: kha.sub
Encoding: 133 -1 127
Width: 333
Flags: W
AnchorPoint: "Sub" -635 379 mark 0
AnchorPoint: "Sub" 442 -764 basemark 0
LayerCount: 2
Fore
SplineSet
582 -475 m 1,0,1
 553 -594 553 -594 440.5 -688 c 128,-1,2
 328 -782 328 -782 199 -782 c 2,3,-1
 55 -782 l 2,4,5
 18 -782 18 -782 -98 -739 c 1,6,7
 -258 -835 -258 -835 -340 -836 c 2,8,-1
 -649 -836 l 2,9,10
 -731 -836 -731 -836 -788 -784 c 0,11,12
 -831 -745 -831 -745 -831 -698 c 0,13,14
 -831 -688 -831 -688 -827 -666 c 2,15,-1
 -803 -547 l 2,16,17
 -787 -465 -787 -465 -713 -408 c 0,18,19
 -676 -379 -676 -379 -638 -366.5 c 128,-1,20
 -600 -354 -600 -354 -553 -354 c 2,21,-1
 -319 -354 l 2,22,23
 -274 -354 -274 -354 -258 -369 c 2,24,-1
 -162 -440 l 1,25,-1
 -137 -315 l 2,26,27
 -129 -278 -129 -278 -147 -248 c 1,28,29
 -172 -223 -172 -223 -205 -223 c 1,30,-1
 -227 -328 l 1,31,-1
 -473 -328 l 1,32,-1
 -408 -29 l 1,33,-1
 -109 -29 l 2,34,35
 20 -29 20 -29 76 -111 c 1,36,37
 121 -172 121 -172 121 -258 c 0,38,39
 121 -295 121 -295 117 -313 c 2,40,-1
 59 -575 l 1,41,42
 75 -585 75 -585 86.5 -587.5 c 128,-1,43
 98 -590 98 -590 113 -590 c 2,44,-1
 229 -590 l 2,45,46
 258 -590 258 -590 276.5 -563.5 c 128,-1,47
 295 -537 295 -537 307 -514.5 c 128,-1,48
 319 -492 319 -492 324 -467 c 2,49,-1
 500 379 l 2,50,51
 504 404 504 404 478.5 427.5 c 128,-1,52
 453 451 453 451 399 451 c 2,53,-1
 262 451 l 1,54,-1
 307 664 l 1,55,-1
 465 664 l 2,56,57
 602 664 602 664 690 590 c 1,58,59
 758 522 758 522 758 440 c 0,60,61
 758 424 758 424 754 395 c 2,62,-1
 582 -475 l 1,0,1
-293 -627 m 1,63,64
 -365 -570 -365 -570 -436 -569 c 2,65,-1
 -563 -569 l 2,66,67
 -586 -569 -586 -569 -588 -573 c 2,68,-1
 -598 -639 l 1,69,-1
 -580 -643 l 1,70,-1
 -342 -643 l 1,71,-1
 -293 -627 l 1,63,64
EndSplineSet
LCarets2: 1 0
EndChar

StartChar: ga.base
Encoding: 135 -1 129
Width: 1183
Flags: W
LayerCount: 2
Fore
SplineSet
1614 0 m 1,0,-1
 1339 0 l 1,1,-1
 1548 987 l 2,2,3
 1550 995 1550 995 1550 1014 c 0,4,5
 1550 1045 1550 1045 1536 1073 c 0,6,7
 1513 1118 1513 1118 1477.5 1136.5 c 128,-1,8
 1442 1155 1442 1155 1420.5 1157 c 128,-1,9
 1399 1159 1399 1159 1360 1159 c 2,10,-1
 1141 1159 l 2,11,12
 1047 1159 1047 1159 978 1109 c 128,-1,13
 909 1059 909 1059 893 983 c 2,14,-1
 684 -4 l 1,15,-1
 403 -4 l 1,16,-1
 614 995 l 2,17,18
 632 1089 632 1089 727 1161 c 1,19,-1
 651 1161 l 1,20,-1
 698 1393 l 1,21,-1
 1542 1393 l 1,22,23
 1696 1360 1696 1360 1778 1245 c 1,24,25
 1829 1159 1829 1159 1829 1065 c 0,26,27
 1829 1028 1829 1028 1821 985 c 2,28,-1
 1614 0 l 1,0,-1
EndSplineSet
EndChar

StartChar: ga.imathra
Encoding: 136 -1 130
Width: 1566
Flags: W
LayerCount: 2
Fore
SplineSet
1645 0 m 1,0,-1
 1368 0 l 1,1,-1
 1579 997 l 2,2,3
 1583 1026 1583 1026 1583 1040 c 0,4,5
 1583 1091 1583 1091 1554.5 1132.5 c 128,-1,6
 1526 1174 1526 1174 1458 1174 c 2,7,-1
 1077 1174 l 2,8,9
 1009 1174 1009 1174 965 1128 c 1,10,11
 912 1083 912 1083 897 1010 c 2,12,-1
 682 2 l 1,13,-1
 401 2 l 1,14,-1
 612 999 l 2,15,16
 635 1110 635 1110 702 1186 c 1,17,18
 747 1247 747 1247 819 1290 c 1,19,20
 772 1308 772 1308 741 1354 c 1,21,22
 712 1385 712 1385 713 1438 c 0,23,24
 713 1467 713 1467 715 1481 c 2,25,-1
 745 1618 l 2,26,27
 761 1700 761 1700 844.5 1755 c 128,-1,28
 928 1810 928 1810 1028 1810 c 2,29,-1
 1419 1810 l 2,30,31
 1587 1810 1587 1810 1706 1726 c 128,-1,32
 1825 1642 1825 1642 1878 1491 c 1,33,34
 1903 1401 1903 1401 1903 1311 c 0,35,36
 1903 1252 1903 1252 1888 1165 c 1,37,-1
 1645 0 l 1,0,-1
1628 1360 m 1,38,39
 1612 1440 1612 1440 1550 1499 c 1,40,41
 1454 1579 1454 1579 1303 1579 c 2,42,-1
 1098 1579 l 2,43,44
 1016 1579 1016 1579 1012 1548 c 1,45,-1
 997 1483 l 1,46,47
 993 1444 993 1444 997 1430 c 0,48,49
 999 1420 999 1420 1003.5 1414.5 c 128,-1,50
 1008 1409 1008 1409 1010 1407 c 1,51,-1
 1507 1407 l 2,52,53
 1589 1407 1589 1407 1628 1360 c 1,38,39
EndSplineSet
LCarets2: 1 0
EndChar

StartChar: ga.sub
Encoding: 137 -1 131
Width: 202
Flags: W
AnchorPoint: "Sub" -455 -131 mark 0
AnchorPoint: "Sub" 242 -885 basemark 0
LayerCount: 2
Fore
SplineSet
262 -840 m 1,0,-1
 14 -840 l 1,1,-1
 109 -395 l 1,2,3
 111 -364 111 -364 88.5 -338.5 c 128,-1,4
 66 -313 66 -313 29 -313 c 2,5,-1
 -145 -313 l 2,6,7
 -190 -313 -190 -313 -221 -332 c 1,8,9
 -252 -363 -252 -363 -254 -393 c 1,10,-1
 -348 -838 l 1,11,-1
 -600 -838 l 1,12,-1
 -506 -393 l 2,13,14
 -481 -270 -481 -270 -377 -190 c 1,15,16
 -281 -110 -281 -110 -152 -111 c 2,17,-1
 100 -111 l 2,18,19
 229 -111 229 -111 309 -182 c 0,20,21
 368 -233 368 -233 369 -317 c 0,22,23
 369 -331 369 -331 365 -365 c 1,24,-1
 262 -840 l 1,0,-1
EndSplineSet
LCarets2: 1 0
EndChar

StartChar: gha.base
Encoding: 139 -1 133
Width: 2086
Flags: W
LayerCount: 2
Fore
SplineSet
2796 1165 m 1,0,-1
 2161 1165 l 1,1,2
 2184 1134 2184 1134 2192 1094.5 c 128,-1,3
 2200 1055 2200 1055 2200 999 c 1,4,5
 2261 856 2261 856 2335 856 c 1,6,7
 2374 858 2374 858 2398 877 c 1,8,9
 2429 908 2429 908 2429 911 c 2,10,-1
 2474 1122 l 1,11,-1
 2748 1122 l 1,12,-1
 2710 940 l 2,13,14
 2700 893 2700 893 2677 842 c 0,15,16
 2669 826 2669 826 2644 782 c 1,17,18
 2593 708 2593 708 2527 666 c 1,19,20
 2451 623 2451 623 2392 623 c 2,21,-1
 2275 625 l 2,22,23
 2195 625 2195 625 2136 676 c 1,24,-1
 2050 289 l 1,25,26
 2025 164 2025 164 1931 84 c 1,27,28
 1841 -6 1841 -6 1733 -6 c 2,29,-1
 1380 -6 l 2,30,31
 1292 -6 1292 -6 1241 55 c 0,32,33
 1237 59 1237 59 1214.5 88 c 128,-1,34
 1192 117 1192 117 1184 147 c 1,35,36
 1147 94 1147 94 1087 55 c 1,37,38
 1015 -6 1015 -6 934 -6 c 2,39,-1
 567 -4 l 2,40,41
 471 -4 471 -4 420 72 c 0,42,43
 389 119 389 119 389 186 c 0,44,45
 389 204 389 204 393 244 c 1,46,-1
 522 848 l 1,47,-1
 864 848 l 2,48,49
 989 848 989 848 1049 774 c 1,50,51
 1102 717 1102 717 1102 637 c 0,52,53
 1102 619 1102 619 1098 586 c 1,54,-1
 1081 512 l 1,55,-1
 801 512 l 1,56,-1
 815 573 l 1,57,58
 817 591 817 591 809 603.5 c 128,-1,59
 801 616 801 616 772 616 c 2,60,-1
 750 616 l 1,61,-1
 684 303 l 2,62,63
 676 272 676 272 686 248 c 1,64,65
 711 223 711 223 719 223 c 2,66,-1
 952 223 l 2,67,68
 991 223 991 223 1030 276 c 1,69,70
 1081 335 1081 335 1098 412 c 2,71,-1
 1130 573 l 1,72,-1
 1407 573 l 1,73,-1
 1374 412 l 2,74,75
 1372 398 1372 398 1372 369 c 0,76,77
 1372 330 1372 330 1389 287 c 1,78,79
 1422 221 1422 221 1454 221 c 2,80,-1
 1688 221 l 2,81,82
 1704 221 1704 221 1733.5 242.5 c 128,-1,83
 1763 264 1763 264 1772 303 c 2,84,-1
 1909 956 l 2,85,86
 1911 966 1911 966 1911 989 c 0,87,88
 1911 1050 1911 1050 1864 1098 c 0,89,90
 1805 1157 1805 1157 1700 1157 c 2,91,-1
 578 1157 l 1,92,-1
 625 1389 l 1,93,-1
 2843 1389 l 1,94,-1
 2796 1165 l 1,0,-1
1452 803 m 1,95,-1
 1176 803 l 1,96,-1
 1229 1063 l 1,97,-1
 1505 1063 l 1,98,-1
 1452 803 l 1,95,-1
1217 -301 m 1,99,-1
 940 -301 l 1,100,-1
 1008 12 l 1,101,-1
 1284 12 l 1,102,-1
 1217 -301 l 1,99,-1
EndSplineSet
EndChar

StartChar: gha.imathra
Encoding: 140 -1 134
Width: 2484
Flags: W
LayerCount: 2
Fore
SplineSet
1548 1223 m 2,0,1
 1525 1119 1525 1119 1444 1053 c 1,2,3
 1368 985 1368 985 1274 985 c 2,4,-1
 870 985 l 1,5,-1
 918 1217 l 1,6,-1
 1227 1217 l 1,7,8
 1250 1221 1250 1221 1261 1233 c 128,-1,9
 1272 1245 1272 1245 1276 1253.5 c 128,-1,10
 1280 1262 1280 1262 1282 1276 c 2,11,-1
 1329 1509 l 2,12,13
 1337 1546 1337 1546 1329 1565 c 0,14,15
 1321 1579 1321 1579 1307 1579 c 2,16,-1
 1202 1579 l 2,17,18
 1184 1579 1184 1579 1182 1565 c 2,19,-1
 1171 1507 l 1,20,-1
 1171 1493 l 1,21,-1
 1186 1485 l 1,22,-1
 1315 1485 l 1,23,-1
 1264 1251 l 1,24,-1
 1051 1251 l 2,25,26
 971 1251 971 1251 920 1311 c 1,27,28
 881 1350 881 1350 881 1403 c 0,29,30
 881 1426 881 1426 883 1440 c 2,31,-1
 915 1591 l 1,32,33
 931 1691 931 1691 1018 1749 c 1,34,35
 1098 1810 1098 1810 1198 1810 c 2,36,-1
 1479 1810 l 2,37,38
 1565 1810 1565 1810 1608 1749 c 1,39,40
 1639 1716 1639 1716 1638 1655 c 0,41,42
 1638 1622 1638 1622 1634 1604 c 2,43,-1
 1548 1223 l 2,0,1
2779 948 m 2,44,45
 2756 831 2756 831 2673.5 755.5 c 128,-1,46
 2591 680 2591 680 2494 680 c 2,47,-1
 2292 680 l 2,48,49
 2212 680 2212 680 2154 737 c 1,50,-1
 2058 295 l 2,51,52
 2029 172 2029 172 1935 86 c 1,53,54
 1847 -2 1847 -2 1739 -2 c 1,55,-1
 1747 37 l 1,56,-1
 1745 -2 l 1,57,-1
 1393 0 l 2,58,59
 1307 0 1307 0 1245 47 c 0,60,61
 1202 80 1202 80 1188 127 c 1,62,63
 1145 76 1145 76 1094 43 c 1,64,65
 1014 -4 1014 -4 938 -4 c 2,66,-1
 575 -2 l 2,67,68
 479 -2 479 -2 432 63 c 1,69,70
 395 108 395 108 395 168 c 0,71,72
 395 205 395 205 399 221 c 2,73,-1
 532 856 l 1,74,-1
 877 856 l 2,75,76
 996 856 996 856 1061 788 c 0,77,78
 1118 731 1118 731 1118 659 c 0,79,80
 1118 645 1118 645 1114 616 c 1,81,-1
 1092 514 l 1,82,-1
 811 514 l 1,83,-1
 829 604 l 1,84,-1
 819 614 l 1,85,86
 809 618 809 618 778 618 c 2,87,-1
 762 618 l 1,88,-1
 696 303 l 2,89,90
 688 272 688 272 700.5 246.5 c 128,-1,91
 713 221 713 221 727 221 c 2,92,-1
 961 221 l 2,93,94
 1006 221 1006 221 1044 274 c 1,95,96
 1095 327 1095 327 1112 410 c 2,97,-1
 1145 575 l 1,98,-1
 1421 575 l 1,99,-1
 1384 410 l 1,100,101
 1376 344 1376 344 1407 285 c 1,102,103
 1436 219 1436 219 1468 219 c 2,104,-1
 1702 219 l 2,105,106
 1727 219 1727 219 1752.5 244.5 c 128,-1,107
 1778 270 1778 270 1786 301 c 2,108,-1
 1952 1077 l 1,109,110
 1954 1114 1954 1114 1935.5 1137.5 c 128,-1,111
 1917 1161 1917 1161 1872 1161 c 2,112,-1
 1686 1161 l 1,113,-1
 1733 1395 l 1,114,-1
 1991 1395 l 2,115,116
 2079 1395 2079 1395 2136 1344.5 c 128,-1,117
 2193 1294 2193 1294 2216 1221 c 1,118,119
 2226 1176 2226 1176 2226 1118 c 0,120,121
 2226 1073 2226 1073 2222 1051 c 1,122,123
 2294 906 2294 906 2351 905 c 2,124,-1
 2456 905 l 2,125,126
 2466 905 2466 905 2482.5 926.5 c 128,-1,127
 2499 948 2499 948 2513 995 c 1,128,-1
 2595 1397 l 1,129,-1
 2869 1397 l 1,130,-1
 2779 948 l 2,44,45
1212 -346 m 1,131,-1
 936 -346 l 1,132,-1
 1004 -33 l 1,133,-1
 1280 -33 l 1,134,-1
 1212 -346 l 1,131,-1
EndSplineSet
LCarets2: 1 0
EndChar

StartChar: gha.sub
Encoding: 141 -1 135
Width: 430
Flags: W
AnchorPoint: "Sub" -561 166 mark 0
AnchorPoint: "Sub" 602 -690 basemark 0
LayerCount: 2
Fore
SplineSet
862 -76 m 2,0,1
 833 -223 833 -223 668 -311 c 1,2,-1
 631 -477 l 2,3,4
 621 -528 621 -528 599.5 -564 c 128,-1,5
 578 -600 578 -600 535 -639 c 0,6,7
 455 -711 455 -711 354 -711 c 2,8,-1
 43 -711 l 2,9,10
 -33 -711 -33 -711 -94 -664 c 0,11,12
 -139 -631 -139 -631 -170 -569 c 1,13,14
 -201 -602 -201 -602 -233.5 -628.5 c 128,-1,15
 -266 -655 -266 -655 -303 -672 c 1,16,17
 -399 -729 -399 -729 -479 -729 c 2,18,-1
 -784 -729 l 2,19,20
 -878 -729 -878 -729 -923.5 -675 c 128,-1,21
 -969 -621 -969 -621 -969 -569 c 0,22,23
 -969 -544 -969 -544 -967 -530 c 2,24,-1
 -928 -344 l 2,25,26
 -905 -242 -905 -242 -829 -190 c 1,27,28
 -755 -129 -755 -129 -662 -129 c 2,29,-1
 -344 -129 l 1,30,-1
 -383 -330 l 1,31,-1
 -625 -330 l 2,32,33
 -650 -330 -650 -330 -666 -342 c 128,-1,34
 -682 -354 -682 -354 -684 -373 c 2,35,-1
 -709 -492 l 1,36,-1
 -705 -514 l 1,37,38
 -689 -524 -689 -524 -680 -524 c 2,39,-1
 -414 -524 l 2,40,41
 -396 -524 -396 -524 -367 -502.5 c 128,-1,42
 -338 -481 -338 -481 -322 -465 c 0,43,44
 -256 -404 -256 -404 -248 -358 c 2,45,-1
 -229 -262 l 1,46,-1
 23 -262 l 1,47,-1
 0 -373 l 2,48,49
 -8 -412 -8 -412 29 -455 c 1,50,51
 52 -478 52 -478 70 -489 c 128,-1,52
 88 -500 88 -500 113 -500 c 2,53,-1
 358 -500 l 2,54,55
 383 -500 383 -500 387 -467 c 1,56,-1
 406 -381 l 1,57,-1
 174 -381 l 1,58,-1
 217 -178 l 1,59,-1
 500 -178 l 2,60,61
 533 -178 533 -178 572.5 -143.5 c 128,-1,62
 612 -109 612 -109 621 -70 c 2,63,-1
 651 82 l 2,64,65
 653 96 653 96 551 170 c 1,66,-1
 727 332 l 1,67,68
 915 199 915 199 897 94 c 1,69,-1
 862 -76 l 2,0,1
-109 -840 m 1,70,-1
 -360 -840 l 1,71,-1
 -330 -686 l 1,72,-1
 -172 -547 l 1,73,-1
 -82 -686 l 1,74,-1
 -109 -840 l 1,70,-1
EndSplineSet
LCarets2: 1 0
EndChar

StartChar: nga
Encoding: 142 3225 136
Width: 1873
Flags: W
LayerCount: 2
Fore
SplineSet
2015 238 m 2,0,1
 1997 142 1997 142 1911 74 c 1,2,3
 1831 2 1831 2 1737 2 c 2,4,-1
 1325 4 l 2,5,6
 1253 4 1253 4 1196 47 c 0,7,8
 1165 72 1165 72 1149 117 c 1,9,10
 1126 80 1126 80 1079 47 c 0,11,12
 1018 2 1018 2 952 2 c 2,13,-1
 557 4 l 2,14,15
 506 4 506 4 470 17.5 c 128,-1,16
 434 31 434 31 397 61 c 1,17,18
 352 112 352 112 352 170 c 0,19,20
 352 180 352 180 356 209 c 2,21,-1
 418 510 l 1,22,-1
 928 850 l 1,23,24
 971 875 971 875 981 940 c 1,25,-1
 1014 1102 l 1,26,27
 1022 1125 1022 1125 998.5 1141 c 128,-1,28
 975 1157 975 1157 932 1157 c 2,29,-1
 838 1157 l 1,30,-1
 823 1100 l 1,31,32
 819 1069 819 1069 829 1059 c 0,33,34
 831 1057 831 1057 836.5 1049.5 c 128,-1,35
 842 1042 842 1042 844 1040 c 1,36,-1
 897 1040 l 1,37,-1
 846 809 l 1,38,-1
 678 811 l 2,39,40
 598 811 598 811 553 879 c 0,41,42
 522 924 522 924 522 985 c 0,43,44
 522 999 522 999 526 1032 c 1,45,-1
 602 1386 l 1,46,-1
 1022 1386 l 2,47,48
 1126 1386 1126 1386 1198 1348 c 0,49,50
 1255 1317 1255 1317 1264 1264 c 1,51,52
 1426 1389 1426 1389 1577 1389 c 2,53,-1
 2017 1389 l 2,54,55
 2097 1389 2097 1389 2134 1341 c 1,56,57
 2163 1290 2163 1290 2163 1247 c 0,58,59
 2163 1233 2163 1233 2159 1210 c 2,60,-1
 2122 1024 l 1,61,-1
 1845 1024 l 1,62,-1
 1862 1114 l 2,63,64
 1864 1130 1864 1130 1859.5 1139.5 c 128,-1,65
 1855 1149 1855 1149 1840 1151 c 128,-1,66
 1825 1153 1825 1153 1823 1153 c 2,67,-1
 1599 1153 l 2,68,69
 1540 1153 1540 1153 1496 1144 c 128,-1,70
 1452 1135 1452 1135 1404 1111 c 128,-1,71
 1356 1087 1356 1087 1313 1056.5 c 128,-1,72
 1270 1026 1270 1026 1239 987 c 1,73,-1
 1214 877 l 2,74,75
 1183 732 1183 732 1073 670 c 1,76,-1
 670 381 l 1,77,-1
 651 281 l 2,78,79
 649 265 649 265 668.5 248 c 128,-1,80
 688 231 688 231 721 231 c 2,81,-1
 907 231 l 2,82,83
 954 231 954 231 999 258 c 128,-1,84
 1044 285 1044 285 1053 317 c 2,85,-1
 1077 442 l 1,86,-1
 1354 442 l 1,87,-1
 1329 317 l 2,88,89
 1321 284 1321 284 1343 260 c 1,90,91
 1380 231 1380 231 1432 231 c 2,92,-1
 1694 231 l 2,93,94
 1712 231 1712 231 1720 236 c 1,95,-1
 1737 264 l 1,96,-1
 1794 537 l 2,97,98
 1796 551 1796 551 1798 573.5 c 128,-1,99
 1800 596 1800 596 1786 596 c 2,100,-1
 1599 596 l 1,101,-1
 1647 825 l 1,102,-1
 1901 825 l 2,103,104
 1973 825 1973 825 2011 795 c 1,105,106
 2058 772 2058 772 2077 721 c 1,107,108
 2085 688 2085 688 2085 655 c 0,109,110
 2085 639 2085 639 2081 610 c 2,111,-1
 2015 238 l 2,0,1
1356 520 m 1,112,-1
 1079 520 l 1,113,-1
 1137 780 l 1,114,-1
 1413 780 l 1,115,-1
 1356 520 l 1,112,-1
EndSplineSet
LCarets2: 1 0
EndChar

StartChar: nga.sub
Encoding: 143 -1 137
Width: 401
Flags: W
AnchorPoint: "Sub" -856 -66 mark 0
AnchorPoint: "Sub" 668 -811 basemark 0
LayerCount: 2
Fore
SplineSet
57 -467 m 1,0,-1
 -188 -467 l 1,1,-1
 -152 -295 l 1,2,-1
 94 -295 l 1,3,-1
 57 -467 l 1,0,-1
684 -643 m 1,4,5
 668 -729 668 -729 596 -776 c 1,6,7
 522 -835 522 -835 446 -836 c 2,8,-1
 37 -836 l 2,9,10
 4 -836 4 -836 -22.5 -824.5 c 128,-1,11
 -49 -813 -49 -813 -74.5 -793.5 c 128,-1,12
 -100 -774 -100 -774 -115 -743 c 1,13,14
 -138 -768 -138 -768 -182 -797 c 0,15,16
 -207 -811 -207 -811 -237.5 -823.5 c 128,-1,17
 -268 -836 -268 -836 -307 -836 c 2,18,-1
 -748 -836 l 2,19,20
 -834 -836 -834 -836 -886 -788.5 c 128,-1,21
 -938 -741 -938 -741 -938 -690 c 0,22,23
 -938 -667 -938 -667 -936 -657 c 2,24,-1
 -905 -512 l 2,25,26
 -889 -438 -889 -438 -824.5 -394 c 128,-1,27
 -760 -350 -760 -350 -674 -350 c 2,28,-1
 -528 -350 l 1,29,-1
 -518 -342 l 1,30,-1
 -510 -295 l 1,31,-1
 -514 -287 l 1,32,-1
 -829 -287 l 1,33,-1
 -786 -90 l 1,34,-1
 -383 -90 l 2,35,36
 -324 -90 -324 -90 -291 -115 c 0,37,38
 -277 -125 -277 -125 -266 -150 c 1,39,40
 -194 -89 -194 -89 -92 -88 c 2,41,-1
 260 -88 l 2,42,43
 354 -88 354 -88 408 -133 c 1,44,45
 451 -166 451 -166 451 -227 c 0,46,47
 451 -245 451 -245 449 -256 c 2,48,-1
 420 -383 l 1,49,-1
 174 -383 l 1,50,-1
 197 -283 l 1,51,52
 199 -260 199 -260 139 -260 c 2,53,-1
 -94 -260 l 2,54,55
 -145 -260 -145 -260 -193 -293 c 1,56,57
 -244 -318 -244 -318 -276 -371 c 1,58,-1
 -291 -436 l 2,59,60
 -299 -473 -299 -473 -354.5 -506 c 128,-1,61
 -410 -539 -410 -539 -469 -539 c 2,62,-1
 -631 -539 l 2,63,64
 -662 -539 -662 -539 -664 -553 c 2,65,-1
 -674 -604 l 1,66,-1
 -670 -614 l 1,67,-1
 -647 -625 l 1,68,-1
 -309 -625 l 2,69,70
 -270 -625 -270 -625 -236.5 -605.5 c 128,-1,71
 -203 -586 -203 -586 -201 -567 c 2,72,-1
 -182 -471 l 1,73,-1
 63 -471 l 1,74,-1
 47 -553 l 2,75,76
 39 -590 39 -590 61 -606 c 1,77,78
 92 -637 92 -637 123 -637 c 2,79,-1
 406 -637 l 2,80,81
 429 -637 429 -637 438 -623 c 2,82,-1
 461 -594 l 1,83,-1
 492 -442 l 1,84,-1
 729 -442 l 1,85,-1
 684 -643 l 1,4,5
EndSplineSet
LCarets2: 1 0
EndChar

StartChar: ca.base
Encoding: 145 -1 139
Width: 1677
Flags: W
LayerCount: 2
Fore
SplineSet
2259 678 m 1,0,-1
 2056 678 l 1,1,2
 2070 649 2070 649 2071 621 c 0,3,4
 2071 603 2071 603 2068 594 c 2,5,-1
 1995 240 l 2,6,7
 1972 140 1972 140 1884 74 c 1,8,9
 1798 2 1798 2 1698 2 c 2,10,-1
 1274 4 l 2,11,12
 1208 4 1208 4 1165 37 c 0,13,14
 1147 53 1147 53 1133 78 c 1,15,16
 1115 53 1115 53 1077 37 c 1,17,18
 1011 0 1011 0 938 0 c 2,19,-1
 575 2 l 2,20,21
 466 2 466 2 416 76 c 1,22,23
 369 133 369 133 369 205 c 0,24,25
 369 219 369 219 373 252 c 1,26,-1
 438 561 l 1,27,-1
 938 834 l 1,28,-1
 991 1094 l 1,29,30
 999 1123 999 1123 980 1142 c 128,-1,31
 961 1161 961 1161 924 1161 c 2,32,-1
 848 1161 l 1,33,-1
 831 1096 l 1,34,35
 829 1071 829 1071 843.5 1056.5 c 128,-1,36
 858 1042 858 1042 872 1042 c 2,37,-1
 940 1042 l 1,38,-1
 889 811 l 1,39,-1
 707 813 l 2,40,41
 621 813 621 813 569 874 c 1,42,43
 532 913 532 913 532 975 c 0,44,45
 532 989 532 989 537 1018 c 2,46,-1
 616 1389 l 1,47,-1
 1092 1389 l 2,48,49
 1194 1389 1194 1389 1245 1317 c 1,50,51
 1288 1266 1288 1266 1288 1194 c 0,52,53
 1288 1161 1288 1161 1284 1145 c 2,54,-1
 1194 700 l 1,55,-1
 690 412 l 1,56,-1
 668 317 l 1,57,58
 666 274 666 274 678 250.5 c 128,-1,59
 690 227 690 227 719 227 c 2,60,-1
 963 227 l 2,61,62
 1000 227 1000 227 1029.5 246.5 c 128,-1,63
 1059 266 1059 266 1061 289 c 1,64,-1
 1092 440 l 1,65,-1
 1368 440 l 1,66,-1
 1343 315 l 2,67,68
 1341 305 1341 305 1341 287 c 0,69,70
 1341 271 1341 271 1352.5 251 c 128,-1,71
 1364 231 1364 231 1386 231 c 2,72,-1
 1632 231 l 2,73,74
 1671 231 1671 231 1701 250.5 c 128,-1,75
 1731 270 1731 270 1733 293 c 1,76,-1
 1792 580 l 2,77,78
 1802 625 1802 625 1774 647 c 1,79,80
 1758 676 1758 676 1714 676 c 2,81,-1
 1403 676 l 1,82,-1
 1454 907 l 1,83,-1
 1815 907 l 1,84,-1
 1868 1161 l 1,85,-1
 1507 1161 l 1,86,-1
 1554 1393 l 1,87,-1
 2052 1393 l 1,88,-1
 2146 1190 l 1,89,-1
 2089 907 l 1,90,-1
 2312 907 l 1,91,-1
 2259 678 l 1,0,-1
EndSplineSet
EndChar

